<?xml version="1.0" encoding="utf-8" standalone="no"?>
<!DOCTYPE svg PUBLIC "-//W3C//DTD SVG 1.1//EN"
  "http://www.w3.org/Graphics/SVG/1.1/DTD/svg11.dtd">
<svg xmlns:xlink="http://www.w3.org/1999/xlink" width="720pt" height="354.96pt" viewBox="0 0 720 354.96" xmlns="http://www.w3.org/2000/svg" version="1.1">
 <metadata>
  <rdf:RDF xmlns:dc="http://purl.org/dc/elements/1.1/" xmlns:cc="http://creativecommons.org/ns#" xmlns:rdf="http://www.w3.org/1999/02/22-rdf-syntax-ns#">
   <cc:Work>
    <dc:type rdf:resource="http://purl.org/dc/dcmitype/StillImage"/>
    <dc:date>2022-06-19T19:08:25.953992</dc:date>
    <dc:format>image/svg+xml</dc:format>
    <dc:creator>
     <cc:Agent>
      <dc:title>Matplotlib v3.5.2, https://matplotlib.org/</dc:title>
     </cc:Agent>
    </dc:creator>
   </cc:Work>
  </rdf:RDF>
 </metadata>
 <defs>
  <style type="text/css">*{stroke-linejoin: round; stroke-linecap: butt}</style>
 </defs>
 <g id="figure_1">
  <g id="patch_1">
   <path d="M 0 354.96 
L 720 354.96 
L 720 0 
L 0 0 
z
" style="fill: #ffffff"/>
  </g>
  <g id="axes_1">
   <g id="patch_2">
    <path d="M 57.44 315.416 
L 709.2 315.416 
L 709.2 25.44 
L 57.44 25.44 
z
" style="fill: #ffffff"/>
   </g>
   <g id="patch_3">
    <path d="M 87.065455 205.036787 
L 103.381598 205.036787 
L 103.381598 93.981106 
L 87.065455 93.981106 
z
" clip-path="url(#pd9c9c281aa)" style="fill: #add8e6"/>
   </g>
   <g id="patch_4">
    <path d="M 133.683007 199.213616 
L 149.99915 199.213616 
L 149.99915 77.224057 
L 133.683007 77.224057 
z
" clip-path="url(#pd9c9c281aa)" style="fill: #add8e6"/>
   </g>
   <g id="patch_5">
    <path d="M 180.300559 216.472695 
L 196.616703 216.472695 
L 196.616703 89.937613 
L 180.300559 89.937613 
z
" clip-path="url(#pd9c9c281aa)" style="fill: #add8e6"/>
   </g>
   <g id="patch_6">
    <path d="M 226.918112 260.488972 
L 243.234255 260.488972 
L 243.234255 176.978693 
L 226.918112 176.978693 
z
" clip-path="url(#pd9c9c281aa)" style="fill: #add8e6"/>
   </g>
   <g id="patch_7">
    <path d="M 273.535664 287.881813 
L 289.851807 287.881813 
L 289.851807 183.308698 
L 273.535664 183.308698 
z
" clip-path="url(#pd9c9c281aa)" style="fill: #add8e6"/>
   </g>
   <g id="patch_8">
    <path d="M 320.153217 298.618043 
L 336.46936 298.618043 
L 336.46936 217.957439 
L 320.153217 217.957439 
z
" clip-path="url(#pd9c9c281aa)" style="fill: #add8e6"/>
   </g>
   <g id="patch_9">
    <path d="M 366.770769 287.79192 
L 383.086912 287.79192 
L 383.086912 208.481609 
L 366.770769 208.481609 
z
" clip-path="url(#pd9c9c281aa)" style="fill: #add8e6"/>
   </g>
   <g id="patch_10">
    <path d="M 413.388321 292.366027 
L 429.704465 292.366027 
L 429.704465 196.574231 
L 413.388321 196.574231 
z
" clip-path="url(#pd9c9c281aa)" style="fill: #add8e6"/>
   </g>
   <g id="patch_11">
    <path d="M 460.005874 296.417843 
L 476.322017 296.417843 
L 476.322017 204.592511 
L 460.005874 204.592511 
z
" clip-path="url(#pd9c9c281aa)" style="fill: #add8e6"/>
   </g>
   <g id="patch_12">
    <path d="M 506.623426 300.2847 
L 522.939569 300.2847 
L 522.939569 211.67336 
L 506.623426 211.67336 
z
" clip-path="url(#pd9c9c281aa)" style="fill: #add8e6"/>
   </g>
   <g id="patch_13">
    <path d="M 553.240978 298.717078 
L 569.557122 298.717078 
L 569.557122 170.265139 
L 553.240978 170.265139 
z
" clip-path="url(#pd9c9c281aa)" style="fill: #add8e6"/>
   </g>
   <g id="patch_14">
    <path d="M 599.858531 274.943915 
L 616.174674 274.943915 
L 616.174674 113.345728 
L 599.858531 113.345728 
z
" clip-path="url(#pd9c9c281aa)" style="fill: #add8e6"/>
   </g>
   <g id="patch_15">
    <path d="M 646.476083 263.560254 
L 662.792227 263.560254 
L 662.792227 166.142328 
L 646.476083 166.142328 
z
" clip-path="url(#pd9c9c281aa)" style="fill: #add8e6"/>
   </g>
   <g id="patch_16">
    <path d="M 87.065455 315.416 
L 103.381598 315.416 
L 103.381598 205.036787 
L 87.065455 205.036787 
z
" clip-path="url(#pd9c9c281aa)" style="fill: #f08080"/>
   </g>
   <g id="patch_17">
    <path d="M 133.683007 315.416 
L 149.99915 315.416 
L 149.99915 199.213616 
L 133.683007 199.213616 
z
" clip-path="url(#pd9c9c281aa)" style="fill: #f08080"/>
   </g>
   <g id="patch_18">
    <path d="M 180.300559 315.416 
L 196.616703 315.416 
L 196.616703 216.472695 
L 180.300559 216.472695 
z
" clip-path="url(#pd9c9c281aa)" style="fill: #f08080"/>
   </g>
   <g id="patch_19">
    <path d="M 226.918112 315.416 
L 243.234255 315.416 
L 243.234255 260.488972 
L 226.918112 260.488972 
z
" clip-path="url(#pd9c9c281aa)" style="fill: #f08080"/>
   </g>
   <g id="patch_20">
    <path d="M 273.535664 315.416 
L 289.851807 315.416 
L 289.851807 287.881813 
L 273.535664 287.881813 
z
" clip-path="url(#pd9c9c281aa)" style="fill: #f08080"/>
   </g>
   <g id="patch_21">
    <path d="M 320.153217 315.416 
L 336.46936 315.416 
L 336.46936 298.618043 
L 320.153217 298.618043 
z
" clip-path="url(#pd9c9c281aa)" style="fill: #f08080"/>
   </g>
   <g id="patch_22">
    <path d="M 366.770769 315.416 
L 383.086912 315.416 
L 383.086912 287.79192 
L 366.770769 287.79192 
z
" clip-path="url(#pd9c9c281aa)" style="fill: #f08080"/>
   </g>
   <g id="patch_23">
    <path d="M 413.388321 315.416 
L 429.704465 315.416 
L 429.704465 292.366027 
L 413.388321 292.366027 
z
" clip-path="url(#pd9c9c281aa)" style="fill: #f08080"/>
   </g>
   <g id="patch_24">
    <path d="M 460.005874 315.416 
L 476.322017 315.416 
L 476.322017 296.417843 
L 460.005874 296.417843 
z
" clip-path="url(#pd9c9c281aa)" style="fill: #f08080"/>
   </g>
   <g id="patch_25">
    <path d="M 506.623426 315.416 
L 522.939569 315.416 
L 522.939569 300.2847 
L 506.623426 300.2847 
z
" clip-path="url(#pd9c9c281aa)" style="fill: #f08080"/>
   </g>
   <g id="patch_26">
    <path d="M 553.240978 315.416 
L 569.557122 315.416 
L 569.557122 298.717078 
L 553.240978 298.717078 
z
" clip-path="url(#pd9c9c281aa)" style="fill: #f08080"/>
   </g>
   <g id="patch_27">
    <path d="M 599.858531 315.416 
L 616.174674 315.416 
L 616.174674 274.943915 
L 599.858531 274.943915 
z
" clip-path="url(#pd9c9c281aa)" style="fill: #f08080"/>
   </g>
   <g id="patch_28">
    <path d="M 646.476083 315.416 
L 662.792227 315.416 
L 662.792227 263.560254 
L 646.476083 263.560254 
z
" clip-path="url(#pd9c9c281aa)" style="fill: #f08080"/>
   </g>
   <g id="patch_29">
    <path d="M 103.847773 315.416 
L 120.163917 315.416 
L 120.163917 293.466907 
L 103.847773 293.466907 
z
" clip-path="url(#pd9c9c281aa)" style="fill: #1f77b4"/>
   </g>
   <g id="patch_30">
    <path d="M 150.465326 315.416 
L 166.781469 315.416 
L 166.781469 290.989146 
L 150.465326 290.989146 
z
" clip-path="url(#pd9c9c281aa)" style="fill: #1f77b4"/>
   </g>
   <g id="patch_31">
    <path d="M 197.082878 315.416 
L 213.399022 315.416 
L 213.399022 294.419626 
L 197.082878 294.419626 
z
" clip-path="url(#pd9c9c281aa)" style="fill: #1f77b4"/>
   </g>
   <g id="patch_32">
    <path d="M 243.700431 315.416 
L 260.016574 315.416 
L 260.016574 285.074709 
L 243.700431 285.074709 
z
" clip-path="url(#pd9c9c281aa)" style="fill: #1f77b4"/>
   </g>
   <g id="patch_33">
    <path d="M 290.317983 315.416 
L 306.634126 315.416 
L 306.634126 297.623834 
L 290.317983 297.623834 
z
" clip-path="url(#pd9c9c281aa)" style="fill: #1f77b4"/>
   </g>
   <g id="patch_34">
    <path d="M 336.935535 315.416 
L 353.251679 315.416 
L 353.251679 300.683356 
L 336.935535 300.683356 
z
" clip-path="url(#pd9c9c281aa)" style="fill: #1f77b4"/>
   </g>
   <g id="patch_35">
    <path d="M 383.553088 315.416 
L 399.869231 315.416 
L 399.869231 306.917018 
L 383.553088 306.917018 
z
" clip-path="url(#pd9c9c281aa)" style="fill: #1f77b4"/>
   </g>
   <g id="patch_36">
    <path d="M 430.17064 315.416 
L 446.486783 315.416 
L 446.486783 306.97345 
L 430.17064 306.97345 
z
" clip-path="url(#pd9c9c281aa)" style="fill: #1f77b4"/>
   </g>
   <g id="patch_37">
    <path d="M 476.788193 315.416 
L 493.104336 315.416 
L 493.104336 309.056382 
L 476.788193 309.056382 
z
" clip-path="url(#pd9c9c281aa)" style="fill: #1f77b4"/>
   </g>
   <g id="patch_38">
    <path d="M 523.405745 315.416 
L 539.721888 315.416 
L 539.721888 304.37568 
L 523.405745 304.37568 
z
" clip-path="url(#pd9c9c281aa)" style="fill: #1f77b4"/>
   </g>
   <g id="patch_39">
    <path d="M 570.023297 315.416 
L 586.339441 315.416 
L 586.339441 285.057134 
L 570.023297 285.057134 
z
" clip-path="url(#pd9c9c281aa)" style="fill: #1f77b4"/>
   </g>
   <g id="patch_40">
    <path d="M 616.64085 315.416 
L 632.956993 315.416 
L 632.956993 283.048837 
L 616.64085 283.048837 
z
" clip-path="url(#pd9c9c281aa)" style="fill: #1f77b4"/>
   </g>
   <g id="patch_41">
    <path d="M 663.258402 315.416 
L 679.574545 315.416 
L 679.574545 299.60474 
L 663.258402 299.60474 
z
" clip-path="url(#pd9c9c281aa)" style="fill: #1f77b4"/>
   </g>
   <g id="patch_42">
    <path d="M 103.847773 293.466907 
L 120.163917 293.466907 
L 120.163917 285.992493 
L 103.847773 285.992493 
z
" clip-path="url(#pd9c9c281aa)" style="fill: #ffd700"/>
   </g>
   <g id="patch_43">
    <path d="M 150.465326 290.989146 
L 166.781469 290.989146 
L 166.781469 283.026048 
L 150.465326 283.026048 
z
" clip-path="url(#pd9c9c281aa)" style="fill: #ffd700"/>
   </g>
   <g id="patch_44">
    <path d="M 197.082878 294.419626 
L 213.399022 294.419626 
L 213.399022 286.766083 
L 197.082878 286.766083 
z
" clip-path="url(#pd9c9c281aa)" style="fill: #ffd700"/>
   </g>
   <g id="patch_45">
    <path d="M 243.700431 285.074709 
L 260.016574 285.074709 
L 260.016574 282.690505 
L 243.700431 282.690505 
z
" clip-path="url(#pd9c9c281aa)" style="fill: #ffd700"/>
   </g>
   <g id="patch_46">
    <path d="M 290.317983 297.623834 
L 306.634126 297.623834 
L 306.634126 284.310281 
L 290.317983 284.310281 
z
" clip-path="url(#pd9c9c281aa)" style="fill: #ffd700"/>
   </g>
   <g id="patch_47">
    <path d="M 336.935535 300.683356 
L 353.251679 300.683356 
L 353.251679 286.170624 
L 336.935535 286.170624 
z
" clip-path="url(#pd9c9c281aa)" style="fill: #ffd700"/>
   </g>
   <g id="patch_48">
    <path d="M 383.553088 306.917018 
L 399.869231 306.917018 
L 399.869231 291.098322 
L 383.553088 291.098322 
z
" clip-path="url(#pd9c9c281aa)" style="fill: #ffd700"/>
   </g>
   <g id="patch_49">
    <path d="M 430.17064 306.97345 
L 446.486783 306.97345 
L 446.486783 290.671332 
L 430.17064 290.671332 
z
" clip-path="url(#pd9c9c281aa)" style="fill: #ffd700"/>
   </g>
   <g id="patch_50">
    <path d="M 476.788193 309.056382 
L 493.104336 309.056382 
L 493.104336 293.35913 
L 476.788193 293.35913 
z
" clip-path="url(#pd9c9c281aa)" style="fill: #ffd700"/>
   </g>
   <g id="patch_51">
    <path d="M 523.405745 304.37568 
L 539.721888 304.37568 
L 539.721888 288.229024 
L 523.405745 288.229024 
z
" clip-path="url(#pd9c9c281aa)" style="fill: #ffd700"/>
   </g>
   <g id="patch_52">
    <path d="M 570.023297 285.057134 
L 586.339441 285.057134 
L 586.339441 273.534824 
L 570.023297 273.534824 
z
" clip-path="url(#pd9c9c281aa)" style="fill: #ffd700"/>
   </g>
   <g id="patch_53">
    <path d="M 616.64085 283.048837 
L 632.956993 283.048837 
L 632.956993 274.814787 
L 616.64085 274.814787 
z
" clip-path="url(#pd9c9c281aa)" style="fill: #ffd700"/>
   </g>
   <g id="patch_54">
    <path d="M 663.258402 299.60474 
L 679.574545 299.60474 
L 679.574545 296.492085 
L 663.258402 296.492085 
z
" clip-path="url(#pd9c9c281aa)" style="fill: #ffd700"/>
   </g>
   <g id="patch_55">
    <path d="M 103.847773 285.992493 
L 120.163917 285.992493 
L 120.163917 142.808437 
L 103.847773 142.808437 
z
" clip-path="url(#pd9c9c281aa)" style="fill: #17becf"/>
   </g>
   <g id="patch_56">
    <path d="M 150.465326 283.026048 
L 166.781469 283.026048 
L 166.781469 143.329166 
L 150.465326 143.329166 
z
" clip-path="url(#pd9c9c281aa)" style="fill: #17becf"/>
   </g>
   <g id="patch_57">
    <path d="M 197.082878 286.766083 
L 213.399022 286.766083 
L 213.399022 159.687866 
L 197.082878 159.687866 
z
" clip-path="url(#pd9c9c281aa)" style="fill: #17becf"/>
   </g>
   <g id="patch_58">
    <path d="M 243.700431 282.690505 
L 260.016574 282.690505 
L 260.016574 207.034172 
L 243.700431 207.034172 
z
" clip-path="url(#pd9c9c281aa)" style="fill: #17becf"/>
   </g>
   <g id="patch_59">
    <path d="M 290.317983 284.310281 
L 306.634126 284.310281 
L 306.634126 253.148461 
L 290.317983 253.148461 
z
" clip-path="url(#pd9c9c281aa)" style="fill: #17becf"/>
   </g>
   <g id="patch_60">
    <path d="M 336.935535 286.170624 
L 353.251679 286.170624 
L 353.251679 278.910843 
L 336.935535 278.910843 
z
" clip-path="url(#pd9c9c281aa)" style="fill: #17becf"/>
   </g>
   <g id="patch_61">
    <path d="M 383.553088 291.098322 
L 399.869231 291.098322 
L 399.869231 272.967309 
L 383.553088 272.967309 
z
" clip-path="url(#pd9c9c281aa)" style="fill: #17becf"/>
   </g>
   <g id="patch_62">
    <path d="M 430.17064 290.671332 
L 446.486783 290.671332 
L 446.486783 260.580202 
L 430.17064 260.580202 
z
" clip-path="url(#pd9c9c281aa)" style="fill: #17becf"/>
   </g>
   <g id="patch_63">
    <path d="M 476.788193 293.35913 
L 493.104336 293.35913 
L 493.104336 270.219766 
L 476.788193 270.219766 
z
" clip-path="url(#pd9c9c281aa)" style="fill: #17becf"/>
   </g>
   <g id="patch_64">
    <path d="M 523.405745 288.229024 
L 539.721888 288.229024 
L 539.721888 274.824319 
L 523.405745 274.824319 
z
" clip-path="url(#pd9c9c281aa)" style="fill: #17becf"/>
   </g>
   <g id="patch_65">
    <path d="M 570.023297 273.534824 
L 586.339441 273.534824 
L 586.339441 229.290705 
L 570.023297 229.290705 
z
" clip-path="url(#pd9c9c281aa)" style="fill: #17becf"/>
   </g>
   <g id="patch_66">
    <path d="M 616.64085 274.814787 
L 632.956993 274.814787 
L 632.956993 191.187147 
L 616.64085 191.187147 
z
" clip-path="url(#pd9c9c281aa)" style="fill: #17becf"/>
   </g>
   <g id="patch_67">
    <path d="M 663.258402 296.492085 
L 679.574545 296.492085 
L 679.574545 214.896766 
L 663.258402 214.896766 
z
" clip-path="url(#pd9c9c281aa)" style="fill: #17becf"/>
   </g>
   <g id="patch_68">
    <path d="M 103.847773 142.808437 
L 120.163917 142.808437 
L 120.163917 140.954092 
L 103.847773 140.954092 
z
" clip-path="url(#pd9c9c281aa)" style="fill: #d62728"/>
   </g>
   <g id="patch_69">
    <path d="M 150.465326 143.329166 
L 166.781469 143.329166 
L 166.781469 142.141033 
L 150.465326 142.141033 
z
" clip-path="url(#pd9c9c281aa)" style="fill: #d62728"/>
   </g>
   <g id="patch_70">
    <path d="M 197.082878 159.687866 
L 213.399022 159.687866 
L 213.399022 158.14904 
L 197.082878 158.14904 
z
" clip-path="url(#pd9c9c281aa)" style="fill: #d62728"/>
   </g>
   <g id="patch_71">
    <path d="M 243.700431 207.034172 
L 260.016574 207.034172 
L 260.016574 206.981032 
L 243.700431 206.981032 
z
" clip-path="url(#pd9c9c281aa)" style="fill: #d62728"/>
   </g>
   <g id="patch_72">
    <path d="M 290.317983 253.148461 
L 306.634126 253.148461 
L 306.634126 252.197381 
L 290.317983 252.197381 
z
" clip-path="url(#pd9c9c281aa)" style="fill: #d62728"/>
   </g>
   <g id="patch_73">
    <path d="M 336.935535 278.910843 
L 353.251679 278.910843 
L 353.251679 276.650546 
L 336.935535 276.650546 
z
" clip-path="url(#pd9c9c281aa)" style="fill: #d62728"/>
   </g>
   <g id="patch_74">
    <path d="M 383.553088 272.967309 
L 399.869231 272.967309 
L 399.869231 269.262315 
L 383.553088 269.262315 
z
" clip-path="url(#pd9c9c281aa)" style="fill: #d62728"/>
   </g>
   <g id="patch_75">
    <path d="M 430.17064 260.580202 
L 446.486783 260.580202 
L 446.486783 258.194447 
L 430.17064 258.194447 
z
" clip-path="url(#pd9c9c281aa)" style="fill: #d62728"/>
   </g>
   <g id="patch_76">
    <path d="M 476.788193 270.219766 
L 493.104336 270.219766 
L 493.104336 264.898146 
L 476.788193 264.898146 
z
" clip-path="url(#pd9c9c281aa)" style="fill: #d62728"/>
   </g>
   <g id="patch_77">
    <path d="M 523.405745 274.824319 
L 539.721888 274.824319 
L 539.721888 271.788289 
L 523.405745 271.788289 
z
" clip-path="url(#pd9c9c281aa)" style="fill: #d62728"/>
   </g>
   <g id="patch_78">
    <path d="M 570.023297 229.290705 
L 586.339441 229.290705 
L 586.339441 227.182977 
L 570.023297 227.182977 
z
" clip-path="url(#pd9c9c281aa)" style="fill: #d62728"/>
   </g>
   <g id="patch_79">
    <path d="M 616.64085 191.187147 
L 632.956993 191.187147 
L 632.956993 189.46928 
L 616.64085 189.46928 
z
" clip-path="url(#pd9c9c281aa)" style="fill: #d62728"/>
   </g>
   <g id="patch_80">
    <path d="M 663.258402 214.896766 
L 679.574545 214.896766 
L 679.574545 213.717334 
L 663.258402 213.717334 
z
" clip-path="url(#pd9c9c281aa)" style="fill: #d62728"/>
   </g>
   <g id="patch_81">
    <path d="M 103.847773 140.954092 
L 120.163917 140.954092 
L 120.163917 115.508286 
L 103.847773 115.508286 
z
" clip-path="url(#pd9c9c281aa)" style="fill: #2ca02c"/>
   </g>
   <g id="patch_82">
    <path d="M 150.465326 142.141033 
L 166.781469 142.141033 
L 166.781469 102.683892 
L 150.465326 102.683892 
z
" clip-path="url(#pd9c9c281aa)" style="fill: #2ca02c"/>
   </g>
   <g id="patch_83">
    <path d="M 197.082878 158.14904 
L 213.399022 158.14904 
L 213.399022 114.285413 
L 197.082878 114.285413 
z
" clip-path="url(#pd9c9c281aa)" style="fill: #2ca02c"/>
   </g>
   <g id="patch_84">
    <path d="M 243.700431 206.981032 
L 260.016574 206.981032 
L 260.016574 195.905215 
L 243.700431 195.905215 
z
" clip-path="url(#pd9c9c281aa)" style="fill: #2ca02c"/>
   </g>
   <g id="patch_85">
    <path d="M 290.317983 252.197381 
L 306.634126 252.197381 
L 306.634126 209.465971 
L 290.317983 209.465971 
z
" clip-path="url(#pd9c9c281aa)" style="fill: #2ca02c"/>
   </g>
   <g id="patch_86">
    <path d="M 336.935535 276.650546 
L 353.251679 276.650546 
L 353.251679 243.787042 
L 336.935535 243.787042 
z
" clip-path="url(#pd9c9c281aa)" style="fill: #2ca02c"/>
   </g>
   <g id="patch_87">
    <path d="M 383.553088 269.262315 
L 399.869231 269.262315 
L 399.869231 235.796719 
L 383.553088 235.796719 
z
" clip-path="url(#pd9c9c281aa)" style="fill: #2ca02c"/>
   </g>
   <g id="patch_88">
    <path d="M 430.17064 258.194447 
L 446.486783 258.194447 
L 446.486783 222.954629 
L 430.17064 222.954629 
z
" clip-path="url(#pd9c9c281aa)" style="fill: #2ca02c"/>
   </g>
   <g id="patch_89">
    <path d="M 476.788193 264.898146 
L 493.104336 264.898146 
L 493.104336 228.603095 
L 476.788193 228.603095 
z
" clip-path="url(#pd9c9c281aa)" style="fill: #2ca02c"/>
   </g>
   <g id="patch_90">
    <path d="M 523.405745 271.788289 
L 539.721888 271.788289 
L 539.721888 238.51474 
L 523.405745 238.51474 
z
" clip-path="url(#pd9c9c281aa)" style="fill: #2ca02c"/>
   </g>
   <g id="patch_91">
    <path d="M 570.023297 227.182977 
L 586.339441 227.182977 
L 586.339441 193.594037 
L 570.023297 193.594037 
z
" clip-path="url(#pd9c9c281aa)" style="fill: #2ca02c"/>
   </g>
   <g id="patch_92">
    <path d="M 616.64085 189.46928 
L 632.956993 189.46928 
L 632.956993 136.762394 
L 616.64085 136.762394 
z
" clip-path="url(#pd9c9c281aa)" style="fill: #2ca02c"/>
   </g>
   <g id="patch_93">
    <path d="M 663.258402 213.717334 
L 679.574545 213.717334 
L 679.574545 180.475377 
L 663.258402 180.475377 
z
" clip-path="url(#pd9c9c281aa)" style="fill: #2ca02c"/>
   </g>
   <g id="patch_94">
    <path d="M 103.847773 115.508286 
L 120.163917 115.508286 
L 120.163917 115.508143 
L 103.847773 115.508143 
z
" clip-path="url(#pd9c9c281aa)" style="fill: #ff7f0e"/>
   </g>
   <g id="patch_95">
    <path d="M 150.465326 102.683892 
L 166.781469 102.683892 
L 166.781469 102.441746 
L 150.465326 102.441746 
z
" clip-path="url(#pd9c9c281aa)" style="fill: #ff7f0e"/>
   </g>
   <g id="patch_96">
    <path d="M 197.082878 114.285413 
L 213.399022 114.285413 
L 213.399022 114.285271 
L 197.082878 114.285271 
z
" clip-path="url(#pd9c9c281aa)" style="fill: #ff7f0e"/>
   </g>
   <g id="patch_97">
    <path d="M 243.700431 195.905215 
L 260.016574 195.905215 
L 260.016574 195.905119 
L 243.700431 195.905119 
z
" clip-path="url(#pd9c9c281aa)" style="fill: #ff7f0e"/>
   </g>
   <g id="patch_98">
    <path d="M 290.317983 209.465971 
L 306.634126 209.465971 
L 306.634126 209.465504 
L 290.317983 209.465504 
z
" clip-path="url(#pd9c9c281aa)" style="fill: #ff7f0e"/>
   </g>
   <g id="patch_99">
    <path d="M 336.935535 243.787042 
L 353.251679 243.787042 
L 353.251679 243.786309 
L 336.935535 243.786309 
z
" clip-path="url(#pd9c9c281aa)" style="fill: #ff7f0e"/>
   </g>
   <g id="patch_100">
    <path d="M 383.553088 235.796719 
L 399.869231 235.796719 
L 399.869231 235.636157 
L 383.553088 235.636157 
z
" clip-path="url(#pd9c9c281aa)" style="fill: #ff7f0e"/>
   </g>
   <g id="patch_101">
    <path d="M 430.17064 222.954629 
L 446.486783 222.954629 
L 446.486783 222.953397 
L 430.17064 222.953397 
z
" clip-path="url(#pd9c9c281aa)" style="fill: #ff7f0e"/>
   </g>
   <g id="patch_102">
    <path d="M 476.788193 228.603095 
L 493.104336 228.603095 
L 493.104336 228.601789 
L 476.788193 228.601789 
z
" clip-path="url(#pd9c9c281aa)" style="fill: #ff7f0e"/>
   </g>
   <g id="patch_103">
    <path d="M 523.405745 238.51474 
L 539.721888 238.51474 
L 539.721888 238.51407 
L 523.405745 238.51407 
z
" clip-path="url(#pd9c9c281aa)" style="fill: #ff7f0e"/>
   </g>
   <g id="patch_104">
    <path d="M 570.023297 193.594037 
L 586.339441 193.594037 
L 586.339441 193.593691 
L 570.023297 193.593691 
z
" clip-path="url(#pd9c9c281aa)" style="fill: #ff7f0e"/>
   </g>
   <g id="patch_105">
    <path d="M 616.64085 136.762394 
L 632.956993 136.762394 
L 632.956993 136.762145 
L 616.64085 136.762145 
z
" clip-path="url(#pd9c9c281aa)" style="fill: #ff7f0e"/>
   </g>
   <g id="patch_106">
    <path d="M 663.258402 180.475377 
L 679.574545 180.475377 
L 679.574545 180.47535 
L 663.258402 180.47535 
z
" clip-path="url(#pd9c9c281aa)" style="fill: #ff7f0e"/>
   </g>
   <g id="patch_107">
    <path d="M 103.847773 115.508143 
L 120.163917 115.508143 
L 120.163917 93.981106 
L 103.847773 93.981106 
z
" clip-path="url(#pd9c9c281aa)" style="fill: #d3d3d3"/>
   </g>
   <g id="patch_108">
    <path d="M 150.465326 102.441746 
L 166.781469 102.441746 
L 166.781469 77.224057 
L 150.465326 77.224057 
z
" clip-path="url(#pd9c9c281aa)" style="fill: #d3d3d3"/>
   </g>
   <g id="patch_109">
    <path d="M 197.082878 114.285271 
L 213.399022 114.285271 
L 213.399022 89.937613 
L 197.082878 89.937613 
z
" clip-path="url(#pd9c9c281aa)" style="fill: #d3d3d3"/>
   </g>
   <g id="patch_110">
    <path d="M 243.700431 195.905119 
L 260.016574 195.905119 
L 260.016574 176.978693 
L 243.700431 176.978693 
z
" clip-path="url(#pd9c9c281aa)" style="fill: #d3d3d3"/>
   </g>
   <g id="patch_111">
    <path d="M 290.317983 209.465504 
L 306.634126 209.465504 
L 306.634126 183.308698 
L 290.317983 183.308698 
z
" clip-path="url(#pd9c9c281aa)" style="fill: #d3d3d3"/>
   </g>
   <g id="patch_112">
    <path d="M 336.935535 243.786309 
L 353.251679 243.786309 
L 353.251679 217.957439 
L 336.935535 217.957439 
z
" clip-path="url(#pd9c9c281aa)" style="fill: #d3d3d3"/>
   </g>
   <g id="patch_113">
    <path d="M 383.553088 235.636157 
L 399.869231 235.636157 
L 399.869231 208.481609 
L 383.553088 208.481609 
z
" clip-path="url(#pd9c9c281aa)" style="fill: #d3d3d3"/>
   </g>
   <g id="patch_114">
    <path d="M 430.17064 222.953397 
L 446.486783 222.953397 
L 446.486783 196.574231 
L 430.17064 196.574231 
z
" clip-path="url(#pd9c9c281aa)" style="fill: #d3d3d3"/>
   </g>
   <g id="patch_115">
    <path d="M 476.788193 228.601789 
L 493.104336 228.601789 
L 493.104336 204.592511 
L 476.788193 204.592511 
z
" clip-path="url(#pd9c9c281aa)" style="fill: #d3d3d3"/>
   </g>
   <g id="patch_116">
    <path d="M 523.405745 238.51407 
L 539.721888 238.51407 
L 539.721888 211.67336 
L 523.405745 211.67336 
z
" clip-path="url(#pd9c9c281aa)" style="fill: #d3d3d3"/>
   </g>
   <g id="patch_117">
    <path d="M 570.023297 193.593691 
L 586.339441 193.593691 
L 586.339441 170.265139 
L 570.023297 170.265139 
z
" clip-path="url(#pd9c9c281aa)" style="fill: #d3d3d3"/>
   </g>
   <g id="patch_118">
    <path d="M 616.64085 136.762145 
L 632.956993 136.762145 
L 632.956993 113.345728 
L 616.64085 113.345728 
z
" clip-path="url(#pd9c9c281aa)" style="fill: #d3d3d3"/>
   </g>
   <g id="patch_119">
    <path d="M 663.258402 180.47535 
L 679.574545 180.47535 
L 679.574545 166.142328 
L 663.258402 166.142328 
z
" clip-path="url(#pd9c9c281aa)" style="fill: #d3d3d3"/>
   </g>
   <g id="matplotlib.axis_1">
    <g id="xtick_1">
     <g id="line2d_1">
      <path d="M 103.381598 315.416 
L 103.381598 25.44 
" clip-path="url(#pd9c9c281aa)" style="fill: none; stroke-dasharray: 0.8,1.32; stroke-dashoffset: 0; stroke: #b0b0b0; stroke-width: 0.8"/>
     </g>
     <g id="line2d_2">
      <defs>
       <path id="m713712d395" d="M 0 0 
L 0 3.5 
" style="stroke: #000000; stroke-width: 0.8"/>
      </defs>
      <g>
       <use xlink:href="#m713712d395" x="103.381598" y="315.416" style="stroke: #000000; stroke-width: 0.8"/>
      </g>
     </g>
     <g id="text_1">
      <!-- June -->
      <g transform="translate(92.492535 330.014437)scale(0.1 -0.1)">
       <defs>
        <path id="DejaVuSans-4a" d="M 628 4666 
L 1259 4666 
L 1259 325 
Q 1259 -519 939 -900 
Q 619 -1281 -91 -1281 
L -331 -1281 
L -331 -750 
L -134 -750 
Q 284 -750 456 -515 
Q 628 -281 628 325 
L 628 4666 
z
" transform="scale(0.015625)"/>
        <path id="DejaVuSans-75" d="M 544 1381 
L 544 3500 
L 1119 3500 
L 1119 1403 
Q 1119 906 1312 657 
Q 1506 409 1894 409 
Q 2359 409 2629 706 
Q 2900 1003 2900 1516 
L 2900 3500 
L 3475 3500 
L 3475 0 
L 2900 0 
L 2900 538 
Q 2691 219 2414 64 
Q 2138 -91 1772 -91 
Q 1169 -91 856 284 
Q 544 659 544 1381 
z
M 1991 3584 
L 1991 3584 
z
" transform="scale(0.015625)"/>
        <path id="DejaVuSans-6e" d="M 3513 2113 
L 3513 0 
L 2938 0 
L 2938 2094 
Q 2938 2591 2744 2837 
Q 2550 3084 2163 3084 
Q 1697 3084 1428 2787 
Q 1159 2491 1159 1978 
L 1159 0 
L 581 0 
L 581 3500 
L 1159 3500 
L 1159 2956 
Q 1366 3272 1645 3428 
Q 1925 3584 2291 3584 
Q 2894 3584 3203 3211 
Q 3513 2838 3513 2113 
z
" transform="scale(0.015625)"/>
        <path id="DejaVuSans-65" d="M 3597 1894 
L 3597 1613 
L 953 1613 
Q 991 1019 1311 708 
Q 1631 397 2203 397 
Q 2534 397 2845 478 
Q 3156 559 3463 722 
L 3463 178 
Q 3153 47 2828 -22 
Q 2503 -91 2169 -91 
Q 1331 -91 842 396 
Q 353 884 353 1716 
Q 353 2575 817 3079 
Q 1281 3584 2069 3584 
Q 2775 3584 3186 3129 
Q 3597 2675 3597 1894 
z
M 3022 2063 
Q 3016 2534 2758 2815 
Q 2500 3097 2075 3097 
Q 1594 3097 1305 2825 
Q 1016 2553 972 2059 
L 3022 2063 
z
" transform="scale(0.015625)"/>
       </defs>
       <use xlink:href="#DejaVuSans-4a"/>
       <use xlink:href="#DejaVuSans-75" x="29.492188"/>
       <use xlink:href="#DejaVuSans-6e" x="92.871094"/>
       <use xlink:href="#DejaVuSans-65" x="156.25"/>
      </g>
      <!-- 2021 -->
      <g transform="translate(90.656598 341.21225)scale(0.1 -0.1)">
       <defs>
        <path id="DejaVuSans-32" d="M 1228 531 
L 3431 531 
L 3431 0 
L 469 0 
L 469 531 
Q 828 903 1448 1529 
Q 2069 2156 2228 2338 
Q 2531 2678 2651 2914 
Q 2772 3150 2772 3378 
Q 2772 3750 2511 3984 
Q 2250 4219 1831 4219 
Q 1534 4219 1204 4116 
Q 875 4013 500 3803 
L 500 4441 
Q 881 4594 1212 4672 
Q 1544 4750 1819 4750 
Q 2544 4750 2975 4387 
Q 3406 4025 3406 3419 
Q 3406 3131 3298 2873 
Q 3191 2616 2906 2266 
Q 2828 2175 2409 1742 
Q 1991 1309 1228 531 
z
" transform="scale(0.015625)"/>
        <path id="DejaVuSans-30" d="M 2034 4250 
Q 1547 4250 1301 3770 
Q 1056 3291 1056 2328 
Q 1056 1369 1301 889 
Q 1547 409 2034 409 
Q 2525 409 2770 889 
Q 3016 1369 3016 2328 
Q 3016 3291 2770 3770 
Q 2525 4250 2034 4250 
z
M 2034 4750 
Q 2819 4750 3233 4129 
Q 3647 3509 3647 2328 
Q 3647 1150 3233 529 
Q 2819 -91 2034 -91 
Q 1250 -91 836 529 
Q 422 1150 422 2328 
Q 422 3509 836 4129 
Q 1250 4750 2034 4750 
z
" transform="scale(0.015625)"/>
        <path id="DejaVuSans-31" d="M 794 531 
L 1825 531 
L 1825 4091 
L 703 3866 
L 703 4441 
L 1819 4666 
L 2450 4666 
L 2450 531 
L 3481 531 
L 3481 0 
L 794 0 
L 794 531 
z
" transform="scale(0.015625)"/>
       </defs>
       <use xlink:href="#DejaVuSans-32"/>
       <use xlink:href="#DejaVuSans-30" x="63.623047"/>
       <use xlink:href="#DejaVuSans-32" x="127.246094"/>
       <use xlink:href="#DejaVuSans-31" x="190.869141"/>
      </g>
     </g>
    </g>
    <g id="xtick_2">
     <g id="line2d_3">
      <path d="M 149.99915 315.416 
L 149.99915 25.44 
" clip-path="url(#pd9c9c281aa)" style="fill: none; stroke-dasharray: 0.8,1.32; stroke-dashoffset: 0; stroke: #b0b0b0; stroke-width: 0.8"/>
     </g>
     <g id="line2d_4">
      <g>
       <use xlink:href="#m713712d395" x="149.99915" y="315.416" style="stroke: #000000; stroke-width: 0.8"/>
      </g>
     </g>
     <g id="text_2">
      <!-- July -->
      <g transform="translate(141.006963 330.014437)scale(0.1 -0.1)">
       <defs>
        <path id="DejaVuSans-6c" d="M 603 4863 
L 1178 4863 
L 1178 0 
L 603 0 
L 603 4863 
z
" transform="scale(0.015625)"/>
        <path id="DejaVuSans-79" d="M 2059 -325 
Q 1816 -950 1584 -1140 
Q 1353 -1331 966 -1331 
L 506 -1331 
L 506 -850 
L 844 -850 
Q 1081 -850 1212 -737 
Q 1344 -625 1503 -206 
L 1606 56 
L 191 3500 
L 800 3500 
L 1894 763 
L 2988 3500 
L 3597 3500 
L 2059 -325 
z
" transform="scale(0.015625)"/>
       </defs>
       <use xlink:href="#DejaVuSans-4a"/>
       <use xlink:href="#DejaVuSans-75" x="29.492188"/>
       <use xlink:href="#DejaVuSans-6c" x="92.871094"/>
       <use xlink:href="#DejaVuSans-79" x="120.654297"/>
      </g>
      <!-- 2021 -->
      <g transform="translate(137.27415 341.21225)scale(0.1 -0.1)">
       <use xlink:href="#DejaVuSans-32"/>
       <use xlink:href="#DejaVuSans-30" x="63.623047"/>
       <use xlink:href="#DejaVuSans-32" x="127.246094"/>
       <use xlink:href="#DejaVuSans-31" x="190.869141"/>
      </g>
     </g>
    </g>
    <g id="xtick_3">
     <g id="line2d_5">
      <path d="M 196.616703 315.416 
L 196.616703 25.44 
" clip-path="url(#pd9c9c281aa)" style="fill: none; stroke-dasharray: 0.8,1.32; stroke-dashoffset: 0; stroke: #b0b0b0; stroke-width: 0.8"/>
     </g>
     <g id="line2d_6">
      <g>
       <use xlink:href="#m713712d395" x="196.616703" y="315.416" style="stroke: #000000; stroke-width: 0.8"/>
      </g>
     </g>
     <g id="text_3">
      <!-- August -->
      <g transform="translate(179.119828 330.014437)scale(0.1 -0.1)">
       <defs>
        <path id="DejaVuSans-41" d="M 2188 4044 
L 1331 1722 
L 3047 1722 
L 2188 4044 
z
M 1831 4666 
L 2547 4666 
L 4325 0 
L 3669 0 
L 3244 1197 
L 1141 1197 
L 716 0 
L 50 0 
L 1831 4666 
z
" transform="scale(0.015625)"/>
        <path id="DejaVuSans-67" d="M 2906 1791 
Q 2906 2416 2648 2759 
Q 2391 3103 1925 3103 
Q 1463 3103 1205 2759 
Q 947 2416 947 1791 
Q 947 1169 1205 825 
Q 1463 481 1925 481 
Q 2391 481 2648 825 
Q 2906 1169 2906 1791 
z
M 3481 434 
Q 3481 -459 3084 -895 
Q 2688 -1331 1869 -1331 
Q 1566 -1331 1297 -1286 
Q 1028 -1241 775 -1147 
L 775 -588 
Q 1028 -725 1275 -790 
Q 1522 -856 1778 -856 
Q 2344 -856 2625 -561 
Q 2906 -266 2906 331 
L 2906 616 
Q 2728 306 2450 153 
Q 2172 0 1784 0 
Q 1141 0 747 490 
Q 353 981 353 1791 
Q 353 2603 747 3093 
Q 1141 3584 1784 3584 
Q 2172 3584 2450 3431 
Q 2728 3278 2906 2969 
L 2906 3500 
L 3481 3500 
L 3481 434 
z
" transform="scale(0.015625)"/>
        <path id="DejaVuSans-73" d="M 2834 3397 
L 2834 2853 
Q 2591 2978 2328 3040 
Q 2066 3103 1784 3103 
Q 1356 3103 1142 2972 
Q 928 2841 928 2578 
Q 928 2378 1081 2264 
Q 1234 2150 1697 2047 
L 1894 2003 
Q 2506 1872 2764 1633 
Q 3022 1394 3022 966 
Q 3022 478 2636 193 
Q 2250 -91 1575 -91 
Q 1294 -91 989 -36 
Q 684 19 347 128 
L 347 722 
Q 666 556 975 473 
Q 1284 391 1588 391 
Q 1994 391 2212 530 
Q 2431 669 2431 922 
Q 2431 1156 2273 1281 
Q 2116 1406 1581 1522 
L 1381 1569 
Q 847 1681 609 1914 
Q 372 2147 372 2553 
Q 372 3047 722 3315 
Q 1072 3584 1716 3584 
Q 2034 3584 2315 3537 
Q 2597 3491 2834 3397 
z
" transform="scale(0.015625)"/>
        <path id="DejaVuSans-74" d="M 1172 4494 
L 1172 3500 
L 2356 3500 
L 2356 3053 
L 1172 3053 
L 1172 1153 
Q 1172 725 1289 603 
Q 1406 481 1766 481 
L 2356 481 
L 2356 0 
L 1766 0 
Q 1100 0 847 248 
Q 594 497 594 1153 
L 594 3053 
L 172 3053 
L 172 3500 
L 594 3500 
L 594 4494 
L 1172 4494 
z
" transform="scale(0.015625)"/>
       </defs>
       <use xlink:href="#DejaVuSans-41"/>
       <use xlink:href="#DejaVuSans-75" x="68.408203"/>
       <use xlink:href="#DejaVuSans-67" x="131.787109"/>
       <use xlink:href="#DejaVuSans-75" x="195.263672"/>
       <use xlink:href="#DejaVuSans-73" x="258.642578"/>
       <use xlink:href="#DejaVuSans-74" x="310.742188"/>
      </g>
      <!-- 2021 -->
      <g transform="translate(183.891703 341.21225)scale(0.1 -0.1)">
       <use xlink:href="#DejaVuSans-32"/>
       <use xlink:href="#DejaVuSans-30" x="63.623047"/>
       <use xlink:href="#DejaVuSans-32" x="127.246094"/>
       <use xlink:href="#DejaVuSans-31" x="190.869141"/>
      </g>
     </g>
    </g>
    <g id="xtick_4">
     <g id="line2d_7">
      <path d="M 243.234255 315.416 
L 243.234255 25.44 
" clip-path="url(#pd9c9c281aa)" style="fill: none; stroke-dasharray: 0.8,1.32; stroke-dashoffset: 0; stroke: #b0b0b0; stroke-width: 0.8"/>
     </g>
     <g id="line2d_8">
      <g>
       <use xlink:href="#m713712d395" x="243.234255" y="315.416" style="stroke: #000000; stroke-width: 0.8"/>
      </g>
     </g>
     <g id="text_4">
      <!-- September -->
      <g transform="translate(215.595974 330.014437)scale(0.1 -0.1)">
       <defs>
        <path id="DejaVuSans-53" d="M 3425 4513 
L 3425 3897 
Q 3066 4069 2747 4153 
Q 2428 4238 2131 4238 
Q 1616 4238 1336 4038 
Q 1056 3838 1056 3469 
Q 1056 3159 1242 3001 
Q 1428 2844 1947 2747 
L 2328 2669 
Q 3034 2534 3370 2195 
Q 3706 1856 3706 1288 
Q 3706 609 3251 259 
Q 2797 -91 1919 -91 
Q 1588 -91 1214 -16 
Q 841 59 441 206 
L 441 856 
Q 825 641 1194 531 
Q 1563 422 1919 422 
Q 2459 422 2753 634 
Q 3047 847 3047 1241 
Q 3047 1584 2836 1778 
Q 2625 1972 2144 2069 
L 1759 2144 
Q 1053 2284 737 2584 
Q 422 2884 422 3419 
Q 422 4038 858 4394 
Q 1294 4750 2059 4750 
Q 2388 4750 2728 4690 
Q 3069 4631 3425 4513 
z
" transform="scale(0.015625)"/>
        <path id="DejaVuSans-70" d="M 1159 525 
L 1159 -1331 
L 581 -1331 
L 581 3500 
L 1159 3500 
L 1159 2969 
Q 1341 3281 1617 3432 
Q 1894 3584 2278 3584 
Q 2916 3584 3314 3078 
Q 3713 2572 3713 1747 
Q 3713 922 3314 415 
Q 2916 -91 2278 -91 
Q 1894 -91 1617 61 
Q 1341 213 1159 525 
z
M 3116 1747 
Q 3116 2381 2855 2742 
Q 2594 3103 2138 3103 
Q 1681 3103 1420 2742 
Q 1159 2381 1159 1747 
Q 1159 1113 1420 752 
Q 1681 391 2138 391 
Q 2594 391 2855 752 
Q 3116 1113 3116 1747 
z
" transform="scale(0.015625)"/>
        <path id="DejaVuSans-6d" d="M 3328 2828 
Q 3544 3216 3844 3400 
Q 4144 3584 4550 3584 
Q 5097 3584 5394 3201 
Q 5691 2819 5691 2113 
L 5691 0 
L 5113 0 
L 5113 2094 
Q 5113 2597 4934 2840 
Q 4756 3084 4391 3084 
Q 3944 3084 3684 2787 
Q 3425 2491 3425 1978 
L 3425 0 
L 2847 0 
L 2847 2094 
Q 2847 2600 2669 2842 
Q 2491 3084 2119 3084 
Q 1678 3084 1418 2786 
Q 1159 2488 1159 1978 
L 1159 0 
L 581 0 
L 581 3500 
L 1159 3500 
L 1159 2956 
Q 1356 3278 1631 3431 
Q 1906 3584 2284 3584 
Q 2666 3584 2933 3390 
Q 3200 3197 3328 2828 
z
" transform="scale(0.015625)"/>
        <path id="DejaVuSans-62" d="M 3116 1747 
Q 3116 2381 2855 2742 
Q 2594 3103 2138 3103 
Q 1681 3103 1420 2742 
Q 1159 2381 1159 1747 
Q 1159 1113 1420 752 
Q 1681 391 2138 391 
Q 2594 391 2855 752 
Q 3116 1113 3116 1747 
z
M 1159 2969 
Q 1341 3281 1617 3432 
Q 1894 3584 2278 3584 
Q 2916 3584 3314 3078 
Q 3713 2572 3713 1747 
Q 3713 922 3314 415 
Q 2916 -91 2278 -91 
Q 1894 -91 1617 61 
Q 1341 213 1159 525 
L 1159 0 
L 581 0 
L 581 4863 
L 1159 4863 
L 1159 2969 
z
" transform="scale(0.015625)"/>
        <path id="DejaVuSans-72" d="M 2631 2963 
Q 2534 3019 2420 3045 
Q 2306 3072 2169 3072 
Q 1681 3072 1420 2755 
Q 1159 2438 1159 1844 
L 1159 0 
L 581 0 
L 581 3500 
L 1159 3500 
L 1159 2956 
Q 1341 3275 1631 3429 
Q 1922 3584 2338 3584 
Q 2397 3584 2469 3576 
Q 2541 3569 2628 3553 
L 2631 2963 
z
" transform="scale(0.015625)"/>
       </defs>
       <use xlink:href="#DejaVuSans-53"/>
       <use xlink:href="#DejaVuSans-65" x="63.476562"/>
       <use xlink:href="#DejaVuSans-70" x="125"/>
       <use xlink:href="#DejaVuSans-74" x="188.476562"/>
       <use xlink:href="#DejaVuSans-65" x="227.685547"/>
       <use xlink:href="#DejaVuSans-6d" x="289.208984"/>
       <use xlink:href="#DejaVuSans-62" x="386.621094"/>
       <use xlink:href="#DejaVuSans-65" x="450.097656"/>
       <use xlink:href="#DejaVuSans-72" x="511.621094"/>
      </g>
      <!-- 2021 -->
      <g transform="translate(230.509255 341.21225)scale(0.1 -0.1)">
       <use xlink:href="#DejaVuSans-32"/>
       <use xlink:href="#DejaVuSans-30" x="63.623047"/>
       <use xlink:href="#DejaVuSans-32" x="127.246094"/>
       <use xlink:href="#DejaVuSans-31" x="190.869141"/>
      </g>
     </g>
    </g>
    <g id="xtick_5">
     <g id="line2d_9">
      <path d="M 289.851807 315.416 
L 289.851807 25.44 
" clip-path="url(#pd9c9c281aa)" style="fill: none; stroke-dasharray: 0.8,1.32; stroke-dashoffset: 0; stroke: #b0b0b0; stroke-width: 0.8"/>
     </g>
     <g id="line2d_10">
      <g>
       <use xlink:href="#m713712d395" x="289.851807" y="315.416" style="stroke: #000000; stroke-width: 0.8"/>
      </g>
     </g>
     <g id="text_5">
      <!-- October -->
      <g transform="translate(269.84087 330.014437)scale(0.1 -0.1)">
       <defs>
        <path id="DejaVuSans-4f" d="M 2522 4238 
Q 1834 4238 1429 3725 
Q 1025 3213 1025 2328 
Q 1025 1447 1429 934 
Q 1834 422 2522 422 
Q 3209 422 3611 934 
Q 4013 1447 4013 2328 
Q 4013 3213 3611 3725 
Q 3209 4238 2522 4238 
z
M 2522 4750 
Q 3503 4750 4090 4092 
Q 4678 3434 4678 2328 
Q 4678 1225 4090 567 
Q 3503 -91 2522 -91 
Q 1538 -91 948 565 
Q 359 1222 359 2328 
Q 359 3434 948 4092 
Q 1538 4750 2522 4750 
z
" transform="scale(0.015625)"/>
        <path id="DejaVuSans-63" d="M 3122 3366 
L 3122 2828 
Q 2878 2963 2633 3030 
Q 2388 3097 2138 3097 
Q 1578 3097 1268 2742 
Q 959 2388 959 1747 
Q 959 1106 1268 751 
Q 1578 397 2138 397 
Q 2388 397 2633 464 
Q 2878 531 3122 666 
L 3122 134 
Q 2881 22 2623 -34 
Q 2366 -91 2075 -91 
Q 1284 -91 818 406 
Q 353 903 353 1747 
Q 353 2603 823 3093 
Q 1294 3584 2113 3584 
Q 2378 3584 2631 3529 
Q 2884 3475 3122 3366 
z
" transform="scale(0.015625)"/>
        <path id="DejaVuSans-6f" d="M 1959 3097 
Q 1497 3097 1228 2736 
Q 959 2375 959 1747 
Q 959 1119 1226 758 
Q 1494 397 1959 397 
Q 2419 397 2687 759 
Q 2956 1122 2956 1747 
Q 2956 2369 2687 2733 
Q 2419 3097 1959 3097 
z
M 1959 3584 
Q 2709 3584 3137 3096 
Q 3566 2609 3566 1747 
Q 3566 888 3137 398 
Q 2709 -91 1959 -91 
Q 1206 -91 779 398 
Q 353 888 353 1747 
Q 353 2609 779 3096 
Q 1206 3584 1959 3584 
z
" transform="scale(0.015625)"/>
       </defs>
       <use xlink:href="#DejaVuSans-4f"/>
       <use xlink:href="#DejaVuSans-63" x="78.710938"/>
       <use xlink:href="#DejaVuSans-74" x="133.691406"/>
       <use xlink:href="#DejaVuSans-6f" x="172.900391"/>
       <use xlink:href="#DejaVuSans-62" x="234.082031"/>
       <use xlink:href="#DejaVuSans-65" x="297.558594"/>
       <use xlink:href="#DejaVuSans-72" x="359.082031"/>
      </g>
      <!-- 2021 -->
      <g transform="translate(277.126807 341.21225)scale(0.1 -0.1)">
       <use xlink:href="#DejaVuSans-32"/>
       <use xlink:href="#DejaVuSans-30" x="63.623047"/>
       <use xlink:href="#DejaVuSans-32" x="127.246094"/>
       <use xlink:href="#DejaVuSans-31" x="190.869141"/>
      </g>
     </g>
    </g>
    <g id="xtick_6">
     <g id="line2d_11">
      <path d="M 336.46936 315.416 
L 336.46936 25.44 
" clip-path="url(#pd9c9c281aa)" style="fill: none; stroke-dasharray: 0.8,1.32; stroke-dashoffset: 0; stroke: #b0b0b0; stroke-width: 0.8"/>
     </g>
     <g id="line2d_12">
      <g>
       <use xlink:href="#m713712d395" x="336.46936" y="315.416" style="stroke: #000000; stroke-width: 0.8"/>
      </g>
     </g>
     <g id="text_6">
      <!-- November -->
      <g transform="translate(310.45686 330.014437)scale(0.1 -0.1)">
       <defs>
        <path id="DejaVuSans-4e" d="M 628 4666 
L 1478 4666 
L 3547 763 
L 3547 4666 
L 4159 4666 
L 4159 0 
L 3309 0 
L 1241 3903 
L 1241 0 
L 628 0 
L 628 4666 
z
" transform="scale(0.015625)"/>
        <path id="DejaVuSans-76" d="M 191 3500 
L 800 3500 
L 1894 563 
L 2988 3500 
L 3597 3500 
L 2284 0 
L 1503 0 
L 191 3500 
z
" transform="scale(0.015625)"/>
       </defs>
       <use xlink:href="#DejaVuSans-4e"/>
       <use xlink:href="#DejaVuSans-6f" x="74.804688"/>
       <use xlink:href="#DejaVuSans-76" x="135.986328"/>
       <use xlink:href="#DejaVuSans-65" x="195.166016"/>
       <use xlink:href="#DejaVuSans-6d" x="256.689453"/>
       <use xlink:href="#DejaVuSans-62" x="354.101562"/>
       <use xlink:href="#DejaVuSans-65" x="417.578125"/>
       <use xlink:href="#DejaVuSans-72" x="479.101562"/>
      </g>
      <!-- 2021 -->
      <g transform="translate(323.74436 341.21225)scale(0.1 -0.1)">
       <use xlink:href="#DejaVuSans-32"/>
       <use xlink:href="#DejaVuSans-30" x="63.623047"/>
       <use xlink:href="#DejaVuSans-32" x="127.246094"/>
       <use xlink:href="#DejaVuSans-31" x="190.869141"/>
      </g>
     </g>
    </g>
    <g id="xtick_7">
     <g id="line2d_13">
      <path d="M 383.086912 315.416 
L 383.086912 25.44 
" clip-path="url(#pd9c9c281aa)" style="fill: none; stroke-dasharray: 0.8,1.32; stroke-dashoffset: 0; stroke: #b0b0b0; stroke-width: 0.8"/>
     </g>
     <g id="line2d_14">
      <g>
       <use xlink:href="#m713712d395" x="383.086912" y="315.416" style="stroke: #000000; stroke-width: 0.8"/>
      </g>
     </g>
     <g id="text_7">
      <!-- December -->
      <g transform="translate(357.158006 330.014437)scale(0.1 -0.1)">
       <defs>
        <path id="DejaVuSans-44" d="M 1259 4147 
L 1259 519 
L 2022 519 
Q 2988 519 3436 956 
Q 3884 1394 3884 2338 
Q 3884 3275 3436 3711 
Q 2988 4147 2022 4147 
L 1259 4147 
z
M 628 4666 
L 1925 4666 
Q 3281 4666 3915 4102 
Q 4550 3538 4550 2338 
Q 4550 1131 3912 565 
Q 3275 0 1925 0 
L 628 0 
L 628 4666 
z
" transform="scale(0.015625)"/>
       </defs>
       <use xlink:href="#DejaVuSans-44"/>
       <use xlink:href="#DejaVuSans-65" x="77.001953"/>
       <use xlink:href="#DejaVuSans-63" x="138.525391"/>
       <use xlink:href="#DejaVuSans-65" x="193.505859"/>
       <use xlink:href="#DejaVuSans-6d" x="255.029297"/>
       <use xlink:href="#DejaVuSans-62" x="352.441406"/>
       <use xlink:href="#DejaVuSans-65" x="415.917969"/>
       <use xlink:href="#DejaVuSans-72" x="477.441406"/>
      </g>
      <!-- 2021 -->
      <g transform="translate(370.361912 341.21225)scale(0.1 -0.1)">
       <use xlink:href="#DejaVuSans-32"/>
       <use xlink:href="#DejaVuSans-30" x="63.623047"/>
       <use xlink:href="#DejaVuSans-32" x="127.246094"/>
       <use xlink:href="#DejaVuSans-31" x="190.869141"/>
      </g>
     </g>
    </g>
    <g id="xtick_8">
     <g id="line2d_15">
      <path d="M 429.704465 315.416 
L 429.704465 25.44 
" clip-path="url(#pd9c9c281aa)" style="fill: none; stroke-dasharray: 0.8,1.32; stroke-dashoffset: 0; stroke: #b0b0b0; stroke-width: 0.8"/>
     </g>
     <g id="line2d_16">
      <g>
       <use xlink:href="#m713712d395" x="429.704465" y="315.416" style="stroke: #000000; stroke-width: 0.8"/>
      </g>
     </g>
     <g id="text_8">
      <!-- January -->
      <g transform="translate(410.748996 330.014437)scale(0.1 -0.1)">
       <defs>
        <path id="DejaVuSans-61" d="M 2194 1759 
Q 1497 1759 1228 1600 
Q 959 1441 959 1056 
Q 959 750 1161 570 
Q 1363 391 1709 391 
Q 2188 391 2477 730 
Q 2766 1069 2766 1631 
L 2766 1759 
L 2194 1759 
z
M 3341 1997 
L 3341 0 
L 2766 0 
L 2766 531 
Q 2569 213 2275 61 
Q 1981 -91 1556 -91 
Q 1019 -91 701 211 
Q 384 513 384 1019 
Q 384 1609 779 1909 
Q 1175 2209 1959 2209 
L 2766 2209 
L 2766 2266 
Q 2766 2663 2505 2880 
Q 2244 3097 1772 3097 
Q 1472 3097 1187 3025 
Q 903 2953 641 2809 
L 641 3341 
Q 956 3463 1253 3523 
Q 1550 3584 1831 3584 
Q 2591 3584 2966 3190 
Q 3341 2797 3341 1997 
z
" transform="scale(0.015625)"/>
       </defs>
       <use xlink:href="#DejaVuSans-4a"/>
       <use xlink:href="#DejaVuSans-61" x="29.492188"/>
       <use xlink:href="#DejaVuSans-6e" x="90.771484"/>
       <use xlink:href="#DejaVuSans-75" x="154.150391"/>
       <use xlink:href="#DejaVuSans-61" x="217.529297"/>
       <use xlink:href="#DejaVuSans-72" x="278.808594"/>
       <use xlink:href="#DejaVuSans-79" x="319.921875"/>
      </g>
      <!-- 2022 -->
      <g transform="translate(416.979465 341.21225)scale(0.1 -0.1)">
       <use xlink:href="#DejaVuSans-32"/>
       <use xlink:href="#DejaVuSans-30" x="63.623047"/>
       <use xlink:href="#DejaVuSans-32" x="127.246094"/>
       <use xlink:href="#DejaVuSans-32" x="190.869141"/>
      </g>
     </g>
    </g>
    <g id="xtick_9">
     <g id="line2d_17">
      <path d="M 476.322017 315.416 
L 476.322017 25.44 
" clip-path="url(#pd9c9c281aa)" style="fill: none; stroke-dasharray: 0.8,1.32; stroke-dashoffset: 0; stroke: #b0b0b0; stroke-width: 0.8"/>
     </g>
     <g id="line2d_18">
      <g>
       <use xlink:href="#m713712d395" x="476.322017" y="315.416" style="stroke: #000000; stroke-width: 0.8"/>
      </g>
     </g>
     <g id="text_9">
      <!-- February -->
      <g transform="translate(454.16733 330.014437)scale(0.1 -0.1)">
       <defs>
        <path id="DejaVuSans-46" d="M 628 4666 
L 3309 4666 
L 3309 4134 
L 1259 4134 
L 1259 2759 
L 3109 2759 
L 3109 2228 
L 1259 2228 
L 1259 0 
L 628 0 
L 628 4666 
z
" transform="scale(0.015625)"/>
       </defs>
       <use xlink:href="#DejaVuSans-46"/>
       <use xlink:href="#DejaVuSans-65" x="52.019531"/>
       <use xlink:href="#DejaVuSans-62" x="113.542969"/>
       <use xlink:href="#DejaVuSans-72" x="177.019531"/>
       <use xlink:href="#DejaVuSans-75" x="218.132812"/>
       <use xlink:href="#DejaVuSans-61" x="281.511719"/>
       <use xlink:href="#DejaVuSans-72" x="342.791016"/>
       <use xlink:href="#DejaVuSans-79" x="383.904297"/>
      </g>
      <!-- 2022 -->
      <g transform="translate(463.597017 341.21225)scale(0.1 -0.1)">
       <use xlink:href="#DejaVuSans-32"/>
       <use xlink:href="#DejaVuSans-30" x="63.623047"/>
       <use xlink:href="#DejaVuSans-32" x="127.246094"/>
       <use xlink:href="#DejaVuSans-32" x="190.869141"/>
      </g>
     </g>
    </g>
    <g id="xtick_10">
     <g id="line2d_19">
      <path d="M 522.939569 315.416 
L 522.939569 25.44 
" clip-path="url(#pd9c9c281aa)" style="fill: none; stroke-dasharray: 0.8,1.32; stroke-dashoffset: 0; stroke: #b0b0b0; stroke-width: 0.8"/>
     </g>
     <g id="line2d_20">
      <g>
       <use xlink:href="#m713712d395" x="522.939569" y="315.416" style="stroke: #000000; stroke-width: 0.8"/>
      </g>
     </g>
     <g id="text_10">
      <!-- March -->
      <g transform="translate(507.700507 330.014437)scale(0.1 -0.1)">
       <defs>
        <path id="DejaVuSans-4d" d="M 628 4666 
L 1569 4666 
L 2759 1491 
L 3956 4666 
L 4897 4666 
L 4897 0 
L 4281 0 
L 4281 4097 
L 3078 897 
L 2444 897 
L 1241 4097 
L 1241 0 
L 628 0 
L 628 4666 
z
" transform="scale(0.015625)"/>
        <path id="DejaVuSans-68" d="M 3513 2113 
L 3513 0 
L 2938 0 
L 2938 2094 
Q 2938 2591 2744 2837 
Q 2550 3084 2163 3084 
Q 1697 3084 1428 2787 
Q 1159 2491 1159 1978 
L 1159 0 
L 581 0 
L 581 4863 
L 1159 4863 
L 1159 2956 
Q 1366 3272 1645 3428 
Q 1925 3584 2291 3584 
Q 2894 3584 3203 3211 
Q 3513 2838 3513 2113 
z
" transform="scale(0.015625)"/>
       </defs>
       <use xlink:href="#DejaVuSans-4d"/>
       <use xlink:href="#DejaVuSans-61" x="86.279297"/>
       <use xlink:href="#DejaVuSans-72" x="147.558594"/>
       <use xlink:href="#DejaVuSans-63" x="186.421875"/>
       <use xlink:href="#DejaVuSans-68" x="241.402344"/>
      </g>
      <!-- 2022 -->
      <g transform="translate(510.214569 341.21225)scale(0.1 -0.1)">
       <use xlink:href="#DejaVuSans-32"/>
       <use xlink:href="#DejaVuSans-30" x="63.623047"/>
       <use xlink:href="#DejaVuSans-32" x="127.246094"/>
       <use xlink:href="#DejaVuSans-32" x="190.869141"/>
      </g>
     </g>
    </g>
    <g id="xtick_11">
     <g id="line2d_21">
      <path d="M 569.557122 315.416 
L 569.557122 25.44 
" clip-path="url(#pd9c9c281aa)" style="fill: none; stroke-dasharray: 0.8,1.32; stroke-dashoffset: 0; stroke: #b0b0b0; stroke-width: 0.8"/>
     </g>
     <g id="line2d_22">
      <g>
       <use xlink:href="#m713712d395" x="569.557122" y="315.416" style="stroke: #000000; stroke-width: 0.8"/>
      </g>
     </g>
     <g id="text_11">
      <!-- April -->
      <g transform="translate(558.128997 330.014437)scale(0.1 -0.1)">
       <defs>
        <path id="DejaVuSans-69" d="M 603 3500 
L 1178 3500 
L 1178 0 
L 603 0 
L 603 3500 
z
M 603 4863 
L 1178 4863 
L 1178 4134 
L 603 4134 
L 603 4863 
z
" transform="scale(0.015625)"/>
       </defs>
       <use xlink:href="#DejaVuSans-41"/>
       <use xlink:href="#DejaVuSans-70" x="68.408203"/>
       <use xlink:href="#DejaVuSans-72" x="131.884766"/>
       <use xlink:href="#DejaVuSans-69" x="172.998047"/>
       <use xlink:href="#DejaVuSans-6c" x="200.78125"/>
      </g>
      <!-- 2022 -->
      <g transform="translate(556.832122 341.21225)scale(0.1 -0.1)">
       <use xlink:href="#DejaVuSans-32"/>
       <use xlink:href="#DejaVuSans-30" x="63.623047"/>
       <use xlink:href="#DejaVuSans-32" x="127.246094"/>
       <use xlink:href="#DejaVuSans-32" x="190.869141"/>
      </g>
     </g>
    </g>
    <g id="xtick_12">
     <g id="line2d_23">
      <path d="M 616.174674 315.416 
L 616.174674 25.44 
" clip-path="url(#pd9c9c281aa)" style="fill: none; stroke-dasharray: 0.8,1.32; stroke-dashoffset: 0; stroke: #b0b0b0; stroke-width: 0.8"/>
     </g>
     <g id="line2d_24">
      <g>
       <use xlink:href="#m713712d395" x="616.174674" y="315.416" style="stroke: #000000; stroke-width: 0.8"/>
      </g>
     </g>
     <g id="text_12">
      <!-- May -->
      <g transform="translate(605.837174 330.014437)scale(0.1 -0.1)">
       <use xlink:href="#DejaVuSans-4d"/>
       <use xlink:href="#DejaVuSans-61" x="86.279297"/>
       <use xlink:href="#DejaVuSans-79" x="147.558594"/>
      </g>
      <!-- 2022 -->
      <g transform="translate(603.449674 341.21225)scale(0.1 -0.1)">
       <use xlink:href="#DejaVuSans-32"/>
       <use xlink:href="#DejaVuSans-30" x="63.623047"/>
       <use xlink:href="#DejaVuSans-32" x="127.246094"/>
       <use xlink:href="#DejaVuSans-32" x="190.869141"/>
      </g>
     </g>
    </g>
    <g id="xtick_13">
     <g id="line2d_25">
      <path d="M 662.792227 315.416 
L 662.792227 25.44 
" clip-path="url(#pd9c9c281aa)" style="fill: none; stroke-dasharray: 0.8,1.32; stroke-dashoffset: 0; stroke: #b0b0b0; stroke-width: 0.8"/>
     </g>
     <g id="line2d_26">
      <g>
       <use xlink:href="#m713712d395" x="662.792227" y="315.416" style="stroke: #000000; stroke-width: 0.8"/>
      </g>
     </g>
     <g id="text_13">
      <!-- June -->
      <g transform="translate(651.903164 330.014437)scale(0.1 -0.1)">
       <use xlink:href="#DejaVuSans-4a"/>
       <use xlink:href="#DejaVuSans-75" x="29.492188"/>
       <use xlink:href="#DejaVuSans-6e" x="92.871094"/>
       <use xlink:href="#DejaVuSans-65" x="156.25"/>
      </g>
      <!-- 2022 -->
      <g transform="translate(650.067227 341.21225)scale(0.1 -0.1)">
       <use xlink:href="#DejaVuSans-32"/>
       <use xlink:href="#DejaVuSans-30" x="63.623047"/>
       <use xlink:href="#DejaVuSans-32" x="127.246094"/>
       <use xlink:href="#DejaVuSans-32" x="190.869141"/>
      </g>
     </g>
    </g>
   </g>
   <g id="matplotlib.axis_2">
    <g id="ytick_1">
     <g id="line2d_27">
      <path d="M 57.44 315.416 
L 709.2 315.416 
" clip-path="url(#pd9c9c281aa)" style="fill: none; stroke-dasharray: 0.8,1.32; stroke-dashoffset: 0; stroke: #b0b0b0; stroke-width: 0.8"/>
     </g>
     <g id="line2d_28">
      <defs>
       <path id="m3028177f06" d="M 0 0 
L -3.5 0 
" style="stroke: #000000; stroke-width: 0.8"/>
      </defs>
      <g>
       <use xlink:href="#m3028177f06" x="57.44" y="315.416" style="stroke: #000000; stroke-width: 0.8"/>
      </g>
     </g>
     <g id="text_14">
      <!-- 0 -->
      <g transform="translate(44.0775 319.215219)scale(0.1 -0.1)">
       <use xlink:href="#DejaVuSans-30"/>
      </g>
     </g>
    </g>
    <g id="ytick_2">
     <g id="line2d_29">
      <path d="M 57.44 303.333667 
L 709.2 303.333667 
" clip-path="url(#pd9c9c281aa)" style="fill: none; stroke-dasharray: 0.8,1.32; stroke-dashoffset: 0; stroke: #b0b0b0; stroke-width: 0.8"/>
     </g>
     <g id="line2d_30">
      <g>
       <use xlink:href="#m3028177f06" x="57.44" y="303.333667" style="stroke: #000000; stroke-width: 0.8"/>
      </g>
     </g>
     <g id="text_15">
      <!-- 100 -->
      <g transform="translate(31.3525 307.132885)scale(0.1 -0.1)">
       <use xlink:href="#DejaVuSans-31"/>
       <use xlink:href="#DejaVuSans-30" x="63.623047"/>
       <use xlink:href="#DejaVuSans-30" x="127.246094"/>
      </g>
     </g>
    </g>
    <g id="ytick_3">
     <g id="line2d_31">
      <path d="M 57.44 291.251333 
L 709.2 291.251333 
" clip-path="url(#pd9c9c281aa)" style="fill: none; stroke-dasharray: 0.8,1.32; stroke-dashoffset: 0; stroke: #b0b0b0; stroke-width: 0.8"/>
     </g>
     <g id="line2d_32">
      <g>
       <use xlink:href="#m3028177f06" x="57.44" y="291.251333" style="stroke: #000000; stroke-width: 0.8"/>
      </g>
     </g>
     <g id="text_16">
      <!-- 200 -->
      <g transform="translate(31.3525 295.050552)scale(0.1 -0.1)">
       <use xlink:href="#DejaVuSans-32"/>
       <use xlink:href="#DejaVuSans-30" x="63.623047"/>
       <use xlink:href="#DejaVuSans-30" x="127.246094"/>
      </g>
     </g>
    </g>
    <g id="ytick_4">
     <g id="line2d_33">
      <path d="M 57.44 279.169 
L 709.2 279.169 
" clip-path="url(#pd9c9c281aa)" style="fill: none; stroke-dasharray: 0.8,1.32; stroke-dashoffset: 0; stroke: #b0b0b0; stroke-width: 0.8"/>
     </g>
     <g id="line2d_34">
      <g>
       <use xlink:href="#m3028177f06" x="57.44" y="279.169" style="stroke: #000000; stroke-width: 0.8"/>
      </g>
     </g>
     <g id="text_17">
      <!-- 300 -->
      <g transform="translate(31.3525 282.968219)scale(0.1 -0.1)">
       <defs>
        <path id="DejaVuSans-33" d="M 2597 2516 
Q 3050 2419 3304 2112 
Q 3559 1806 3559 1356 
Q 3559 666 3084 287 
Q 2609 -91 1734 -91 
Q 1441 -91 1130 -33 
Q 819 25 488 141 
L 488 750 
Q 750 597 1062 519 
Q 1375 441 1716 441 
Q 2309 441 2620 675 
Q 2931 909 2931 1356 
Q 2931 1769 2642 2001 
Q 2353 2234 1838 2234 
L 1294 2234 
L 1294 2753 
L 1863 2753 
Q 2328 2753 2575 2939 
Q 2822 3125 2822 3475 
Q 2822 3834 2567 4026 
Q 2313 4219 1838 4219 
Q 1578 4219 1281 4162 
Q 984 4106 628 3988 
L 628 4550 
Q 988 4650 1302 4700 
Q 1616 4750 1894 4750 
Q 2613 4750 3031 4423 
Q 3450 4097 3450 3541 
Q 3450 3153 3228 2886 
Q 3006 2619 2597 2516 
z
" transform="scale(0.015625)"/>
       </defs>
       <use xlink:href="#DejaVuSans-33"/>
       <use xlink:href="#DejaVuSans-30" x="63.623047"/>
       <use xlink:href="#DejaVuSans-30" x="127.246094"/>
      </g>
     </g>
    </g>
    <g id="ytick_5">
     <g id="line2d_35">
      <path d="M 57.44 267.086667 
L 709.2 267.086667 
" clip-path="url(#pd9c9c281aa)" style="fill: none; stroke-dasharray: 0.8,1.32; stroke-dashoffset: 0; stroke: #b0b0b0; stroke-width: 0.8"/>
     </g>
     <g id="line2d_36">
      <g>
       <use xlink:href="#m3028177f06" x="57.44" y="267.086667" style="stroke: #000000; stroke-width: 0.8"/>
      </g>
     </g>
     <g id="text_18">
      <!-- 400 -->
      <g transform="translate(31.3525 270.885885)scale(0.1 -0.1)">
       <defs>
        <path id="DejaVuSans-34" d="M 2419 4116 
L 825 1625 
L 2419 1625 
L 2419 4116 
z
M 2253 4666 
L 3047 4666 
L 3047 1625 
L 3713 1625 
L 3713 1100 
L 3047 1100 
L 3047 0 
L 2419 0 
L 2419 1100 
L 313 1100 
L 313 1709 
L 2253 4666 
z
" transform="scale(0.015625)"/>
       </defs>
       <use xlink:href="#DejaVuSans-34"/>
       <use xlink:href="#DejaVuSans-30" x="63.623047"/>
       <use xlink:href="#DejaVuSans-30" x="127.246094"/>
      </g>
     </g>
    </g>
    <g id="ytick_6">
     <g id="line2d_37">
      <path d="M 57.44 255.004333 
L 709.2 255.004333 
" clip-path="url(#pd9c9c281aa)" style="fill: none; stroke-dasharray: 0.8,1.32; stroke-dashoffset: 0; stroke: #b0b0b0; stroke-width: 0.8"/>
     </g>
     <g id="line2d_38">
      <g>
       <use xlink:href="#m3028177f06" x="57.44" y="255.004333" style="stroke: #000000; stroke-width: 0.8"/>
      </g>
     </g>
     <g id="text_19">
      <!-- 500 -->
      <g transform="translate(31.3525 258.803552)scale(0.1 -0.1)">
       <defs>
        <path id="DejaVuSans-35" d="M 691 4666 
L 3169 4666 
L 3169 4134 
L 1269 4134 
L 1269 2991 
Q 1406 3038 1543 3061 
Q 1681 3084 1819 3084 
Q 2600 3084 3056 2656 
Q 3513 2228 3513 1497 
Q 3513 744 3044 326 
Q 2575 -91 1722 -91 
Q 1428 -91 1123 -41 
Q 819 9 494 109 
L 494 744 
Q 775 591 1075 516 
Q 1375 441 1709 441 
Q 2250 441 2565 725 
Q 2881 1009 2881 1497 
Q 2881 1984 2565 2268 
Q 2250 2553 1709 2553 
Q 1456 2553 1204 2497 
Q 953 2441 691 2322 
L 691 4666 
z
" transform="scale(0.015625)"/>
       </defs>
       <use xlink:href="#DejaVuSans-35"/>
       <use xlink:href="#DejaVuSans-30" x="63.623047"/>
       <use xlink:href="#DejaVuSans-30" x="127.246094"/>
      </g>
     </g>
    </g>
    <g id="ytick_7">
     <g id="line2d_39">
      <path d="M 57.44 242.922 
L 709.2 242.922 
" clip-path="url(#pd9c9c281aa)" style="fill: none; stroke-dasharray: 0.8,1.32; stroke-dashoffset: 0; stroke: #b0b0b0; stroke-width: 0.8"/>
     </g>
     <g id="line2d_40">
      <g>
       <use xlink:href="#m3028177f06" x="57.44" y="242.922" style="stroke: #000000; stroke-width: 0.8"/>
      </g>
     </g>
     <g id="text_20">
      <!-- 600 -->
      <g transform="translate(31.3525 246.721219)scale(0.1 -0.1)">
       <defs>
        <path id="DejaVuSans-36" d="M 2113 2584 
Q 1688 2584 1439 2293 
Q 1191 2003 1191 1497 
Q 1191 994 1439 701 
Q 1688 409 2113 409 
Q 2538 409 2786 701 
Q 3034 994 3034 1497 
Q 3034 2003 2786 2293 
Q 2538 2584 2113 2584 
z
M 3366 4563 
L 3366 3988 
Q 3128 4100 2886 4159 
Q 2644 4219 2406 4219 
Q 1781 4219 1451 3797 
Q 1122 3375 1075 2522 
Q 1259 2794 1537 2939 
Q 1816 3084 2150 3084 
Q 2853 3084 3261 2657 
Q 3669 2231 3669 1497 
Q 3669 778 3244 343 
Q 2819 -91 2113 -91 
Q 1303 -91 875 529 
Q 447 1150 447 2328 
Q 447 3434 972 4092 
Q 1497 4750 2381 4750 
Q 2619 4750 2861 4703 
Q 3103 4656 3366 4563 
z
" transform="scale(0.015625)"/>
       </defs>
       <use xlink:href="#DejaVuSans-36"/>
       <use xlink:href="#DejaVuSans-30" x="63.623047"/>
       <use xlink:href="#DejaVuSans-30" x="127.246094"/>
      </g>
     </g>
    </g>
    <g id="ytick_8">
     <g id="line2d_41">
      <path d="M 57.44 230.839667 
L 709.2 230.839667 
" clip-path="url(#pd9c9c281aa)" style="fill: none; stroke-dasharray: 0.8,1.32; stroke-dashoffset: 0; stroke: #b0b0b0; stroke-width: 0.8"/>
     </g>
     <g id="line2d_42">
      <g>
       <use xlink:href="#m3028177f06" x="57.44" y="230.839667" style="stroke: #000000; stroke-width: 0.8"/>
      </g>
     </g>
     <g id="text_21">
      <!-- 700 -->
      <g transform="translate(31.3525 234.638885)scale(0.1 -0.1)">
       <defs>
        <path id="DejaVuSans-37" d="M 525 4666 
L 3525 4666 
L 3525 4397 
L 1831 0 
L 1172 0 
L 2766 4134 
L 525 4134 
L 525 4666 
z
" transform="scale(0.015625)"/>
       </defs>
       <use xlink:href="#DejaVuSans-37"/>
       <use xlink:href="#DejaVuSans-30" x="63.623047"/>
       <use xlink:href="#DejaVuSans-30" x="127.246094"/>
      </g>
     </g>
    </g>
    <g id="ytick_9">
     <g id="line2d_43">
      <path d="M 57.44 218.757333 
L 709.2 218.757333 
" clip-path="url(#pd9c9c281aa)" style="fill: none; stroke-dasharray: 0.8,1.32; stroke-dashoffset: 0; stroke: #b0b0b0; stroke-width: 0.8"/>
     </g>
     <g id="line2d_44">
      <g>
       <use xlink:href="#m3028177f06" x="57.44" y="218.757333" style="stroke: #000000; stroke-width: 0.8"/>
      </g>
     </g>
     <g id="text_22">
      <!-- 800 -->
      <g transform="translate(31.3525 222.556552)scale(0.1 -0.1)">
       <defs>
        <path id="DejaVuSans-38" d="M 2034 2216 
Q 1584 2216 1326 1975 
Q 1069 1734 1069 1313 
Q 1069 891 1326 650 
Q 1584 409 2034 409 
Q 2484 409 2743 651 
Q 3003 894 3003 1313 
Q 3003 1734 2745 1975 
Q 2488 2216 2034 2216 
z
M 1403 2484 
Q 997 2584 770 2862 
Q 544 3141 544 3541 
Q 544 4100 942 4425 
Q 1341 4750 2034 4750 
Q 2731 4750 3128 4425 
Q 3525 4100 3525 3541 
Q 3525 3141 3298 2862 
Q 3072 2584 2669 2484 
Q 3125 2378 3379 2068 
Q 3634 1759 3634 1313 
Q 3634 634 3220 271 
Q 2806 -91 2034 -91 
Q 1263 -91 848 271 
Q 434 634 434 1313 
Q 434 1759 690 2068 
Q 947 2378 1403 2484 
z
M 1172 3481 
Q 1172 3119 1398 2916 
Q 1625 2713 2034 2713 
Q 2441 2713 2670 2916 
Q 2900 3119 2900 3481 
Q 2900 3844 2670 4047 
Q 2441 4250 2034 4250 
Q 1625 4250 1398 4047 
Q 1172 3844 1172 3481 
z
" transform="scale(0.015625)"/>
       </defs>
       <use xlink:href="#DejaVuSans-38"/>
       <use xlink:href="#DejaVuSans-30" x="63.623047"/>
       <use xlink:href="#DejaVuSans-30" x="127.246094"/>
      </g>
     </g>
    </g>
    <g id="ytick_10">
     <g id="line2d_45">
      <path d="M 57.44 206.675 
L 709.2 206.675 
" clip-path="url(#pd9c9c281aa)" style="fill: none; stroke-dasharray: 0.8,1.32; stroke-dashoffset: 0; stroke: #b0b0b0; stroke-width: 0.8"/>
     </g>
     <g id="line2d_46">
      <g>
       <use xlink:href="#m3028177f06" x="57.44" y="206.675" style="stroke: #000000; stroke-width: 0.8"/>
      </g>
     </g>
     <g id="text_23">
      <!-- 900 -->
      <g transform="translate(31.3525 210.474219)scale(0.1 -0.1)">
       <defs>
        <path id="DejaVuSans-39" d="M 703 97 
L 703 672 
Q 941 559 1184 500 
Q 1428 441 1663 441 
Q 2288 441 2617 861 
Q 2947 1281 2994 2138 
Q 2813 1869 2534 1725 
Q 2256 1581 1919 1581 
Q 1219 1581 811 2004 
Q 403 2428 403 3163 
Q 403 3881 828 4315 
Q 1253 4750 1959 4750 
Q 2769 4750 3195 4129 
Q 3622 3509 3622 2328 
Q 3622 1225 3098 567 
Q 2575 -91 1691 -91 
Q 1453 -91 1209 -44 
Q 966 3 703 97 
z
M 1959 2075 
Q 2384 2075 2632 2365 
Q 2881 2656 2881 3163 
Q 2881 3666 2632 3958 
Q 2384 4250 1959 4250 
Q 1534 4250 1286 3958 
Q 1038 3666 1038 3163 
Q 1038 2656 1286 2365 
Q 1534 2075 1959 2075 
z
" transform="scale(0.015625)"/>
       </defs>
       <use xlink:href="#DejaVuSans-39"/>
       <use xlink:href="#DejaVuSans-30" x="63.623047"/>
       <use xlink:href="#DejaVuSans-30" x="127.246094"/>
      </g>
     </g>
    </g>
    <g id="ytick_11">
     <g id="line2d_47">
      <path d="M 57.44 194.592667 
L 709.2 194.592667 
" clip-path="url(#pd9c9c281aa)" style="fill: none; stroke-dasharray: 0.8,1.32; stroke-dashoffset: 0; stroke: #b0b0b0; stroke-width: 0.8"/>
     </g>
     <g id="line2d_48">
      <g>
       <use xlink:href="#m3028177f06" x="57.44" y="194.592667" style="stroke: #000000; stroke-width: 0.8"/>
      </g>
     </g>
     <g id="text_24">
      <!-- 1000 -->
      <g transform="translate(24.99 198.391885)scale(0.1 -0.1)">
       <use xlink:href="#DejaVuSans-31"/>
       <use xlink:href="#DejaVuSans-30" x="63.623047"/>
       <use xlink:href="#DejaVuSans-30" x="127.246094"/>
       <use xlink:href="#DejaVuSans-30" x="190.869141"/>
      </g>
     </g>
    </g>
    <g id="ytick_12">
     <g id="line2d_49">
      <path d="M 57.44 182.510333 
L 709.2 182.510333 
" clip-path="url(#pd9c9c281aa)" style="fill: none; stroke-dasharray: 0.8,1.32; stroke-dashoffset: 0; stroke: #b0b0b0; stroke-width: 0.8"/>
     </g>
     <g id="line2d_50">
      <g>
       <use xlink:href="#m3028177f06" x="57.44" y="182.510333" style="stroke: #000000; stroke-width: 0.8"/>
      </g>
     </g>
     <g id="text_25">
      <!-- 1100 -->
      <g transform="translate(24.99 186.309552)scale(0.1 -0.1)">
       <use xlink:href="#DejaVuSans-31"/>
       <use xlink:href="#DejaVuSans-31" x="63.623047"/>
       <use xlink:href="#DejaVuSans-30" x="127.246094"/>
       <use xlink:href="#DejaVuSans-30" x="190.869141"/>
      </g>
     </g>
    </g>
    <g id="ytick_13">
     <g id="line2d_51">
      <path d="M 57.44 170.428 
L 709.2 170.428 
" clip-path="url(#pd9c9c281aa)" style="fill: none; stroke-dasharray: 0.8,1.32; stroke-dashoffset: 0; stroke: #b0b0b0; stroke-width: 0.8"/>
     </g>
     <g id="line2d_52">
      <g>
       <use xlink:href="#m3028177f06" x="57.44" y="170.428" style="stroke: #000000; stroke-width: 0.8"/>
      </g>
     </g>
     <g id="text_26">
      <!-- 1200 -->
      <g transform="translate(24.99 174.227219)scale(0.1 -0.1)">
       <use xlink:href="#DejaVuSans-31"/>
       <use xlink:href="#DejaVuSans-32" x="63.623047"/>
       <use xlink:href="#DejaVuSans-30" x="127.246094"/>
       <use xlink:href="#DejaVuSans-30" x="190.869141"/>
      </g>
     </g>
    </g>
    <g id="ytick_14">
     <g id="line2d_53">
      <path d="M 57.44 158.345667 
L 709.2 158.345667 
" clip-path="url(#pd9c9c281aa)" style="fill: none; stroke-dasharray: 0.8,1.32; stroke-dashoffset: 0; stroke: #b0b0b0; stroke-width: 0.8"/>
     </g>
     <g id="line2d_54">
      <g>
       <use xlink:href="#m3028177f06" x="57.44" y="158.345667" style="stroke: #000000; stroke-width: 0.8"/>
      </g>
     </g>
     <g id="text_27">
      <!-- 1300 -->
      <g transform="translate(24.99 162.144885)scale(0.1 -0.1)">
       <use xlink:href="#DejaVuSans-31"/>
       <use xlink:href="#DejaVuSans-33" x="63.623047"/>
       <use xlink:href="#DejaVuSans-30" x="127.246094"/>
       <use xlink:href="#DejaVuSans-30" x="190.869141"/>
      </g>
     </g>
    </g>
    <g id="ytick_15">
     <g id="line2d_55">
      <path d="M 57.44 146.263333 
L 709.2 146.263333 
" clip-path="url(#pd9c9c281aa)" style="fill: none; stroke-dasharray: 0.8,1.32; stroke-dashoffset: 0; stroke: #b0b0b0; stroke-width: 0.8"/>
     </g>
     <g id="line2d_56">
      <g>
       <use xlink:href="#m3028177f06" x="57.44" y="146.263333" style="stroke: #000000; stroke-width: 0.8"/>
      </g>
     </g>
     <g id="text_28">
      <!-- 1400 -->
      <g transform="translate(24.99 150.062552)scale(0.1 -0.1)">
       <use xlink:href="#DejaVuSans-31"/>
       <use xlink:href="#DejaVuSans-34" x="63.623047"/>
       <use xlink:href="#DejaVuSans-30" x="127.246094"/>
       <use xlink:href="#DejaVuSans-30" x="190.869141"/>
      </g>
     </g>
    </g>
    <g id="ytick_16">
     <g id="line2d_57">
      <path d="M 57.44 134.181 
L 709.2 134.181 
" clip-path="url(#pd9c9c281aa)" style="fill: none; stroke-dasharray: 0.8,1.32; stroke-dashoffset: 0; stroke: #b0b0b0; stroke-width: 0.8"/>
     </g>
     <g id="line2d_58">
      <g>
       <use xlink:href="#m3028177f06" x="57.44" y="134.181" style="stroke: #000000; stroke-width: 0.8"/>
      </g>
     </g>
     <g id="text_29">
      <!-- 1500 -->
      <g transform="translate(24.99 137.980219)scale(0.1 -0.1)">
       <use xlink:href="#DejaVuSans-31"/>
       <use xlink:href="#DejaVuSans-35" x="63.623047"/>
       <use xlink:href="#DejaVuSans-30" x="127.246094"/>
       <use xlink:href="#DejaVuSans-30" x="190.869141"/>
      </g>
     </g>
    </g>
    <g id="ytick_17">
     <g id="line2d_59">
      <path d="M 57.44 122.098667 
L 709.2 122.098667 
" clip-path="url(#pd9c9c281aa)" style="fill: none; stroke-dasharray: 0.8,1.32; stroke-dashoffset: 0; stroke: #b0b0b0; stroke-width: 0.8"/>
     </g>
     <g id="line2d_60">
      <g>
       <use xlink:href="#m3028177f06" x="57.44" y="122.098667" style="stroke: #000000; stroke-width: 0.8"/>
      </g>
     </g>
     <g id="text_30">
      <!-- 1600 -->
      <g transform="translate(24.99 125.897885)scale(0.1 -0.1)">
       <use xlink:href="#DejaVuSans-31"/>
       <use xlink:href="#DejaVuSans-36" x="63.623047"/>
       <use xlink:href="#DejaVuSans-30" x="127.246094"/>
       <use xlink:href="#DejaVuSans-30" x="190.869141"/>
      </g>
     </g>
    </g>
    <g id="ytick_18">
     <g id="line2d_61">
      <path d="M 57.44 110.016333 
L 709.2 110.016333 
" clip-path="url(#pd9c9c281aa)" style="fill: none; stroke-dasharray: 0.8,1.32; stroke-dashoffset: 0; stroke: #b0b0b0; stroke-width: 0.8"/>
     </g>
     <g id="line2d_62">
      <g>
       <use xlink:href="#m3028177f06" x="57.44" y="110.016333" style="stroke: #000000; stroke-width: 0.8"/>
      </g>
     </g>
     <g id="text_31">
      <!-- 1700 -->
      <g transform="translate(24.99 113.815552)scale(0.1 -0.1)">
       <use xlink:href="#DejaVuSans-31"/>
       <use xlink:href="#DejaVuSans-37" x="63.623047"/>
       <use xlink:href="#DejaVuSans-30" x="127.246094"/>
       <use xlink:href="#DejaVuSans-30" x="190.869141"/>
      </g>
     </g>
    </g>
    <g id="ytick_19">
     <g id="line2d_63">
      <path d="M 57.44 97.934 
L 709.2 97.934 
" clip-path="url(#pd9c9c281aa)" style="fill: none; stroke-dasharray: 0.8,1.32; stroke-dashoffset: 0; stroke: #b0b0b0; stroke-width: 0.8"/>
     </g>
     <g id="line2d_64">
      <g>
       <use xlink:href="#m3028177f06" x="57.44" y="97.934" style="stroke: #000000; stroke-width: 0.8"/>
      </g>
     </g>
     <g id="text_32">
      <!-- 1800 -->
      <g transform="translate(24.99 101.733219)scale(0.1 -0.1)">
       <use xlink:href="#DejaVuSans-31"/>
       <use xlink:href="#DejaVuSans-38" x="63.623047"/>
       <use xlink:href="#DejaVuSans-30" x="127.246094"/>
       <use xlink:href="#DejaVuSans-30" x="190.869141"/>
      </g>
     </g>
    </g>
    <g id="ytick_20">
     <g id="line2d_65">
      <path d="M 57.44 85.851667 
L 709.2 85.851667 
" clip-path="url(#pd9c9c281aa)" style="fill: none; stroke-dasharray: 0.8,1.32; stroke-dashoffset: 0; stroke: #b0b0b0; stroke-width: 0.8"/>
     </g>
     <g id="line2d_66">
      <g>
       <use xlink:href="#m3028177f06" x="57.44" y="85.851667" style="stroke: #000000; stroke-width: 0.8"/>
      </g>
     </g>
     <g id="text_33">
      <!-- 1900 -->
      <g transform="translate(24.99 89.650885)scale(0.1 -0.1)">
       <use xlink:href="#DejaVuSans-31"/>
       <use xlink:href="#DejaVuSans-39" x="63.623047"/>
       <use xlink:href="#DejaVuSans-30" x="127.246094"/>
       <use xlink:href="#DejaVuSans-30" x="190.869141"/>
      </g>
     </g>
    </g>
    <g id="ytick_21">
     <g id="line2d_67">
      <path d="M 57.44 73.769333 
L 709.2 73.769333 
" clip-path="url(#pd9c9c281aa)" style="fill: none; stroke-dasharray: 0.8,1.32; stroke-dashoffset: 0; stroke: #b0b0b0; stroke-width: 0.8"/>
     </g>
     <g id="line2d_68">
      <g>
       <use xlink:href="#m3028177f06" x="57.44" y="73.769333" style="stroke: #000000; stroke-width: 0.8"/>
      </g>
     </g>
     <g id="text_34">
      <!-- 2000 -->
      <g transform="translate(24.99 77.568552)scale(0.1 -0.1)">
       <use xlink:href="#DejaVuSans-32"/>
       <use xlink:href="#DejaVuSans-30" x="63.623047"/>
       <use xlink:href="#DejaVuSans-30" x="127.246094"/>
       <use xlink:href="#DejaVuSans-30" x="190.869141"/>
      </g>
     </g>
    </g>
    <g id="ytick_22">
     <g id="line2d_69">
      <path d="M 57.44 61.687 
L 709.2 61.687 
" clip-path="url(#pd9c9c281aa)" style="fill: none; stroke-dasharray: 0.8,1.32; stroke-dashoffset: 0; stroke: #b0b0b0; stroke-width: 0.8"/>
     </g>
     <g id="line2d_70">
      <g>
       <use xlink:href="#m3028177f06" x="57.44" y="61.687" style="stroke: #000000; stroke-width: 0.8"/>
      </g>
     </g>
     <g id="text_35">
      <!-- 2100 -->
      <g transform="translate(24.99 65.486219)scale(0.1 -0.1)">
       <use xlink:href="#DejaVuSans-32"/>
       <use xlink:href="#DejaVuSans-31" x="63.623047"/>
       <use xlink:href="#DejaVuSans-30" x="127.246094"/>
       <use xlink:href="#DejaVuSans-30" x="190.869141"/>
      </g>
     </g>
    </g>
    <g id="ytick_23">
     <g id="line2d_71">
      <path d="M 57.44 49.604667 
L 709.2 49.604667 
" clip-path="url(#pd9c9c281aa)" style="fill: none; stroke-dasharray: 0.8,1.32; stroke-dashoffset: 0; stroke: #b0b0b0; stroke-width: 0.8"/>
     </g>
     <g id="line2d_72">
      <g>
       <use xlink:href="#m3028177f06" x="57.44" y="49.604667" style="stroke: #000000; stroke-width: 0.8"/>
      </g>
     </g>
     <g id="text_36">
      <!-- 2200 -->
      <g transform="translate(24.99 53.403885)scale(0.1 -0.1)">
       <use xlink:href="#DejaVuSans-32"/>
       <use xlink:href="#DejaVuSans-32" x="63.623047"/>
       <use xlink:href="#DejaVuSans-30" x="127.246094"/>
       <use xlink:href="#DejaVuSans-30" x="190.869141"/>
      </g>
     </g>
    </g>
    <g id="ytick_24">
     <g id="line2d_73">
      <path d="M 57.44 37.522333 
L 709.2 37.522333 
" clip-path="url(#pd9c9c281aa)" style="fill: none; stroke-dasharray: 0.8,1.32; stroke-dashoffset: 0; stroke: #b0b0b0; stroke-width: 0.8"/>
     </g>
     <g id="line2d_74">
      <g>
       <use xlink:href="#m3028177f06" x="57.44" y="37.522333" style="stroke: #000000; stroke-width: 0.8"/>
      </g>
     </g>
     <g id="text_37">
      <!-- 2300 -->
      <g transform="translate(24.99 41.321552)scale(0.1 -0.1)">
       <use xlink:href="#DejaVuSans-32"/>
       <use xlink:href="#DejaVuSans-33" x="63.623047"/>
       <use xlink:href="#DejaVuSans-30" x="127.246094"/>
       <use xlink:href="#DejaVuSans-30" x="190.869141"/>
      </g>
     </g>
    </g>
    <g id="ytick_25">
     <g id="line2d_75">
      <path d="M 57.44 25.44 
L 709.2 25.44 
" clip-path="url(#pd9c9c281aa)" style="fill: none; stroke-dasharray: 0.8,1.32; stroke-dashoffset: 0; stroke: #b0b0b0; stroke-width: 0.8"/>
     </g>
     <g id="line2d_76">
      <g>
       <use xlink:href="#m3028177f06" x="57.44" y="25.44" style="stroke: #000000; stroke-width: 0.8"/>
      </g>
     </g>
     <g id="text_38">
      <!-- 2400 -->
      <g transform="translate(24.99 29.239219)scale(0.1 -0.1)">
       <use xlink:href="#DejaVuSans-32"/>
       <use xlink:href="#DejaVuSans-34" x="63.623047"/>
       <use xlink:href="#DejaVuSans-30" x="127.246094"/>
       <use xlink:href="#DejaVuSans-30" x="190.869141"/>
      </g>
     </g>
    </g>
    <g id="text_39">
     <!-- kWh -->
     <g transform="translate(18.910313 181.435812)rotate(-90)scale(0.1 -0.1)">
      <defs>
       <path id="DejaVuSans-6b" d="M 581 4863 
L 1159 4863 
L 1159 1991 
L 2875 3500 
L 3609 3500 
L 1753 1863 
L 3688 0 
L 2938 0 
L 1159 1709 
L 1159 0 
L 581 0 
L 581 4863 
z
" transform="scale(0.015625)"/>
       <path id="DejaVuSans-57" d="M 213 4666 
L 850 4666 
L 1831 722 
L 2809 4666 
L 3519 4666 
L 4500 722 
L 5478 4666 
L 6119 4666 
L 4947 0 
L 4153 0 
L 3169 4050 
L 2175 0 
L 1381 0 
L 213 4666 
z
" transform="scale(0.015625)"/>
      </defs>
      <use xlink:href="#DejaVuSans-6b"/>
      <use xlink:href="#DejaVuSans-57" x="57.910156"/>
      <use xlink:href="#DejaVuSans-68" x="156.787109"/>
     </g>
    </g>
   </g>
   <g id="patch_120">
    <path d="M 57.44 315.416 
L 57.44 25.44 
" style="fill: none; stroke: #000000; stroke-width: 0.8; stroke-linejoin: miter; stroke-linecap: square"/>
   </g>
   <g id="patch_121">
    <path d="M 709.2 315.416 
L 709.2 25.44 
" style="fill: none; stroke: #000000; stroke-width: 0.8; stroke-linejoin: miter; stroke-linecap: square"/>
   </g>
   <g id="patch_122">
    <path d="M 57.44 315.416 
L 709.2 315.416 
" style="fill: none; stroke: #000000; stroke-width: 0.8; stroke-linejoin: miter; stroke-linecap: square"/>
   </g>
   <g id="patch_123">
    <path d="M 57.44 25.44 
L 709.2 25.44 
" style="fill: none; stroke: #000000; stroke-width: 0.8; stroke-linejoin: miter; stroke-linecap: square"/>
   </g>
   <g id="text_40">
    <!-- 50% -->
    <g style="fill: #add8e6" transform="translate(90.561771 91.564639)scale(0.1 -0.1)">
     <defs>
      <path id="DejaVuSans-Bold-35" d="M 678 4666 
L 3669 4666 
L 3669 3781 
L 1638 3781 
L 1638 3059 
Q 1775 3097 1914 3117 
Q 2053 3138 2203 3138 
Q 3056 3138 3531 2711 
Q 4006 2284 4006 1522 
Q 4006 766 3489 337 
Q 2972 -91 2053 -91 
Q 1656 -91 1267 -14 
Q 878 63 494 219 
L 494 1166 
Q 875 947 1217 837 
Q 1559 728 1863 728 
Q 2300 728 2551 942 
Q 2803 1156 2803 1522 
Q 2803 1891 2551 2103 
Q 2300 2316 1863 2316 
Q 1603 2316 1309 2248 
Q 1016 2181 678 2041 
L 678 4666 
z
" transform="scale(0.015625)"/>
      <path id="DejaVuSans-Bold-30" d="M 2944 2338 
Q 2944 3213 2780 3570 
Q 2616 3928 2228 3928 
Q 1841 3928 1675 3570 
Q 1509 3213 1509 2338 
Q 1509 1453 1675 1090 
Q 1841 728 2228 728 
Q 2613 728 2778 1090 
Q 2944 1453 2944 2338 
z
M 4147 2328 
Q 4147 1169 3647 539 
Q 3147 -91 2228 -91 
Q 1306 -91 806 539 
Q 306 1169 306 2328 
Q 306 3491 806 4120 
Q 1306 4750 2228 4750 
Q 3147 4750 3647 4120 
Q 4147 3491 4147 2328 
z
" transform="scale(0.015625)"/>
      <path id="DejaVuSans-Bold-25" d="M 4959 1925 
Q 4738 1925 4616 1733 
Q 4494 1541 4494 1184 
Q 4494 825 4614 633 
Q 4734 441 4959 441 
Q 5184 441 5303 633 
Q 5422 825 5422 1184 
Q 5422 1541 5301 1733 
Q 5181 1925 4959 1925 
z
M 4959 2450 
Q 5541 2450 5875 2112 
Q 6209 1775 6209 1184 
Q 6209 594 5875 251 
Q 5541 -91 4959 -91 
Q 4378 -91 4042 251 
Q 3706 594 3706 1184 
Q 3706 1772 4042 2111 
Q 4378 2450 4959 2450 
z
M 2094 -91 
L 1403 -91 
L 4319 4750 
L 5013 4750 
L 2094 -91 
z
M 1453 4750 
Q 2034 4750 2367 4411 
Q 2700 4072 2700 3481 
Q 2700 2891 2367 2550 
Q 2034 2209 1453 2209 
Q 872 2209 539 2550 
Q 206 2891 206 3481 
Q 206 4072 539 4411 
Q 872 4750 1453 4750 
z
M 1453 4225 
Q 1228 4225 1106 4031 
Q 984 3838 984 3481 
Q 984 3122 1106 2926 
Q 1228 2731 1453 2731 
Q 1678 2731 1798 2926 
Q 1919 3122 1919 3481 
Q 1919 3838 1797 4031 
Q 1675 4225 1453 4225 
z
" transform="scale(0.015625)"/>
     </defs>
     <use xlink:href="#DejaVuSans-Bold-35"/>
     <use xlink:href="#DejaVuSans-Bold-30" x="69.580078"/>
     <use xlink:href="#DejaVuSans-Bold-25" x="139.160156"/>
    </g>
   </g>
   <g id="text_41">
    <!-- 51% -->
    <g style="fill: #add8e6" transform="translate(137.179323 74.80759)scale(0.1 -0.1)">
     <defs>
      <path id="DejaVuSans-Bold-31" d="M 750 831 
L 1813 831 
L 1813 3847 
L 722 3622 
L 722 4441 
L 1806 4666 
L 2950 4666 
L 2950 831 
L 4013 831 
L 4013 0 
L 750 0 
L 750 831 
z
" transform="scale(0.015625)"/>
     </defs>
     <use xlink:href="#DejaVuSans-Bold-35"/>
     <use xlink:href="#DejaVuSans-Bold-31" x="69.580078"/>
     <use xlink:href="#DejaVuSans-Bold-25" x="139.160156"/>
    </g>
   </g>
   <g id="text_42">
    <!-- 56% -->
    <g style="fill: #add8e6" transform="translate(183.796876 87.521146)scale(0.1 -0.1)">
     <defs>
      <path id="DejaVuSans-Bold-36" d="M 2316 2303 
Q 2000 2303 1842 2098 
Q 1684 1894 1684 1484 
Q 1684 1075 1842 870 
Q 2000 666 2316 666 
Q 2634 666 2792 870 
Q 2950 1075 2950 1484 
Q 2950 1894 2792 2098 
Q 2634 2303 2316 2303 
z
M 3803 4544 
L 3803 3681 
Q 3506 3822 3243 3889 
Q 2981 3956 2731 3956 
Q 2194 3956 1894 3657 
Q 1594 3359 1544 2772 
Q 1750 2925 1990 3001 
Q 2231 3078 2516 3078 
Q 3231 3078 3670 2659 
Q 4109 2241 4109 1563 
Q 4109 813 3618 361 
Q 3128 -91 2303 -91 
Q 1394 -91 895 523 
Q 397 1138 397 2266 
Q 397 3422 980 4083 
Q 1563 4744 2578 4744 
Q 2900 4744 3203 4694 
Q 3506 4644 3803 4544 
z
" transform="scale(0.015625)"/>
     </defs>
     <use xlink:href="#DejaVuSans-Bold-35"/>
     <use xlink:href="#DejaVuSans-Bold-36" x="69.580078"/>
     <use xlink:href="#DejaVuSans-Bold-25" x="139.160156"/>
    </g>
   </g>
   <g id="text_43">
    <!-- 60% -->
    <g style="fill: #add8e6" transform="translate(230.414428 174.562226)scale(0.1 -0.1)">
     <use xlink:href="#DejaVuSans-Bold-36"/>
     <use xlink:href="#DejaVuSans-Bold-30" x="69.580078"/>
     <use xlink:href="#DejaVuSans-Bold-25" x="139.160156"/>
    </g>
   </g>
   <g id="text_44">
    <!-- 79% -->
    <g style="fill: #add8e6" transform="translate(277.031981 180.892231)scale(0.1 -0.1)">
     <defs>
      <path id="DejaVuSans-Bold-37" d="M 428 4666 
L 3944 4666 
L 3944 3988 
L 2125 0 
L 953 0 
L 2675 3781 
L 428 3781 
L 428 4666 
z
" transform="scale(0.015625)"/>
      <path id="DejaVuSans-Bold-39" d="M 641 103 
L 641 966 
Q 928 831 1190 764 
Q 1453 697 1709 697 
Q 2247 697 2547 995 
Q 2847 1294 2900 1881 
Q 2688 1725 2447 1647 
Q 2206 1569 1925 1569 
Q 1209 1569 770 1986 
Q 331 2403 331 3084 
Q 331 3838 820 4291 
Q 1309 4744 2131 4744 
Q 3044 4744 3544 4128 
Q 4044 3513 4044 2388 
Q 4044 1231 3459 570 
Q 2875 -91 1856 -91 
Q 1528 -91 1228 -42 
Q 928 6 641 103 
z
M 2125 2350 
Q 2441 2350 2600 2554 
Q 2759 2759 2759 3169 
Q 2759 3575 2600 3781 
Q 2441 3988 2125 3988 
Q 1809 3988 1650 3781 
Q 1491 3575 1491 3169 
Q 1491 2759 1650 2554 
Q 1809 2350 2125 2350 
z
" transform="scale(0.015625)"/>
     </defs>
     <use xlink:href="#DejaVuSans-Bold-37"/>
     <use xlink:href="#DejaVuSans-Bold-39" x="69.580078"/>
     <use xlink:href="#DejaVuSans-Bold-25" x="139.160156"/>
    </g>
   </g>
   <g id="text_45">
    <!-- 83% -->
    <g style="fill: #add8e6" transform="translate(323.649533 215.540972)scale(0.1 -0.1)">
     <defs>
      <path id="DejaVuSans-Bold-38" d="M 2228 2088 
Q 1891 2088 1709 1903 
Q 1528 1719 1528 1375 
Q 1528 1031 1709 848 
Q 1891 666 2228 666 
Q 2563 666 2741 848 
Q 2919 1031 2919 1375 
Q 2919 1722 2741 1905 
Q 2563 2088 2228 2088 
z
M 1350 2484 
Q 925 2613 709 2878 
Q 494 3144 494 3541 
Q 494 4131 934 4440 
Q 1375 4750 2228 4750 
Q 3075 4750 3515 4442 
Q 3956 4134 3956 3541 
Q 3956 3144 3739 2878 
Q 3522 2613 3097 2484 
Q 3572 2353 3814 2058 
Q 4056 1763 4056 1313 
Q 4056 619 3595 264 
Q 3134 -91 2228 -91 
Q 1319 -91 855 264 
Q 391 619 391 1313 
Q 391 1763 633 2058 
Q 875 2353 1350 2484 
z
M 1631 3419 
Q 1631 3141 1786 2991 
Q 1941 2841 2228 2841 
Q 2509 2841 2662 2991 
Q 2816 3141 2816 3419 
Q 2816 3697 2662 3845 
Q 2509 3994 2228 3994 
Q 1941 3994 1786 3844 
Q 1631 3694 1631 3419 
z
" transform="scale(0.015625)"/>
      <path id="DejaVuSans-Bold-33" d="M 2981 2516 
Q 3453 2394 3698 2092 
Q 3944 1791 3944 1325 
Q 3944 631 3412 270 
Q 2881 -91 1863 -91 
Q 1503 -91 1142 -33 
Q 781 25 428 141 
L 428 1069 
Q 766 900 1098 814 
Q 1431 728 1753 728 
Q 2231 728 2486 893 
Q 2741 1059 2741 1369 
Q 2741 1688 2480 1852 
Q 2219 2016 1709 2016 
L 1228 2016 
L 1228 2791 
L 1734 2791 
Q 2188 2791 2409 2933 
Q 2631 3075 2631 3366 
Q 2631 3634 2415 3781 
Q 2200 3928 1806 3928 
Q 1516 3928 1219 3862 
Q 922 3797 628 3669 
L 628 4550 
Q 984 4650 1334 4700 
Q 1684 4750 2022 4750 
Q 2931 4750 3382 4451 
Q 3834 4153 3834 3553 
Q 3834 3144 3618 2883 
Q 3403 2622 2981 2516 
z
" transform="scale(0.015625)"/>
     </defs>
     <use xlink:href="#DejaVuSans-Bold-38"/>
     <use xlink:href="#DejaVuSans-Bold-33" x="69.580078"/>
     <use xlink:href="#DejaVuSans-Bold-25" x="139.160156"/>
    </g>
   </g>
   <g id="text_46">
    <!-- 74% -->
    <g style="fill: #add8e6" transform="translate(370.267085 206.065142)scale(0.1 -0.1)">
     <defs>
      <path id="DejaVuSans-Bold-34" d="M 2356 3675 
L 1038 1722 
L 2356 1722 
L 2356 3675 
z
M 2156 4666 
L 3494 4666 
L 3494 1722 
L 4159 1722 
L 4159 850 
L 3494 850 
L 3494 0 
L 2356 0 
L 2356 850 
L 288 850 
L 288 1881 
L 2156 4666 
z
" transform="scale(0.015625)"/>
     </defs>
     <use xlink:href="#DejaVuSans-Bold-37"/>
     <use xlink:href="#DejaVuSans-Bold-34" x="69.580078"/>
     <use xlink:href="#DejaVuSans-Bold-25" x="139.160156"/>
    </g>
   </g>
   <g id="text_47">
    <!-- 81% -->
    <g style="fill: #add8e6" transform="translate(416.884638 194.157764)scale(0.1 -0.1)">
     <use xlink:href="#DejaVuSans-Bold-38"/>
     <use xlink:href="#DejaVuSans-Bold-31" x="69.580078"/>
     <use xlink:href="#DejaVuSans-Bold-25" x="139.160156"/>
    </g>
   </g>
   <g id="text_48">
    <!-- 83% -->
    <g style="fill: #add8e6" transform="translate(463.50219 202.176045)scale(0.1 -0.1)">
     <use xlink:href="#DejaVuSans-Bold-38"/>
     <use xlink:href="#DejaVuSans-Bold-33" x="69.580078"/>
     <use xlink:href="#DejaVuSans-Bold-25" x="139.160156"/>
    </g>
   </g>
   <g id="text_49">
    <!-- 85% -->
    <g style="fill: #add8e6" transform="translate(510.119743 209.256893)scale(0.1 -0.1)">
     <use xlink:href="#DejaVuSans-Bold-38"/>
     <use xlink:href="#DejaVuSans-Bold-35" x="69.580078"/>
     <use xlink:href="#DejaVuSans-Bold-25" x="139.160156"/>
    </g>
   </g>
   <g id="text_50">
    <!-- 88% -->
    <g style="fill: #add8e6" transform="translate(556.737295 167.848673)scale(0.1 -0.1)">
     <use xlink:href="#DejaVuSans-Bold-38"/>
     <use xlink:href="#DejaVuSans-Bold-38" x="69.580078"/>
     <use xlink:href="#DejaVuSans-Bold-25" x="139.160156"/>
    </g>
   </g>
   <g id="text_51">
    <!-- 80% -->
    <g style="fill: #add8e6" transform="translate(603.354847 110.929262)scale(0.1 -0.1)">
     <use xlink:href="#DejaVuSans-Bold-38"/>
     <use xlink:href="#DejaVuSans-Bold-30" x="69.580078"/>
     <use xlink:href="#DejaVuSans-Bold-25" x="139.160156"/>
    </g>
   </g>
   <g id="text_52">
    <!-- 65% -->
    <g style="fill: #add8e6" transform="translate(649.9724 163.725861)scale(0.1 -0.1)">
     <use xlink:href="#DejaVuSans-Bold-36"/>
     <use xlink:href="#DejaVuSans-Bold-35" x="69.580078"/>
     <use xlink:href="#DejaVuSans-Bold-25" x="139.160156"/>
    </g>
   </g>
   <g id="text_53">
    <!-- Energy Consumption Distribution -->
    <g transform="translate(283.758437 19.44)scale(0.12 -0.12)">
     <defs>
      <path id="DejaVuSans-45" d="M 628 4666 
L 3578 4666 
L 3578 4134 
L 1259 4134 
L 1259 2753 
L 3481 2753 
L 3481 2222 
L 1259 2222 
L 1259 531 
L 3634 531 
L 3634 0 
L 628 0 
L 628 4666 
z
" transform="scale(0.015625)"/>
      <path id="DejaVuSans-20" transform="scale(0.015625)"/>
      <path id="DejaVuSans-43" d="M 4122 4306 
L 4122 3641 
Q 3803 3938 3442 4084 
Q 3081 4231 2675 4231 
Q 1875 4231 1450 3742 
Q 1025 3253 1025 2328 
Q 1025 1406 1450 917 
Q 1875 428 2675 428 
Q 3081 428 3442 575 
Q 3803 722 4122 1019 
L 4122 359 
Q 3791 134 3420 21 
Q 3050 -91 2638 -91 
Q 1578 -91 968 557 
Q 359 1206 359 2328 
Q 359 3453 968 4101 
Q 1578 4750 2638 4750 
Q 3056 4750 3426 4639 
Q 3797 4528 4122 4306 
z
" transform="scale(0.015625)"/>
     </defs>
     <use xlink:href="#DejaVuSans-45"/>
     <use xlink:href="#DejaVuSans-6e" x="63.183594"/>
     <use xlink:href="#DejaVuSans-65" x="126.5625"/>
     <use xlink:href="#DejaVuSans-72" x="188.085938"/>
     <use xlink:href="#DejaVuSans-67" x="227.449219"/>
     <use xlink:href="#DejaVuSans-79" x="290.925781"/>
     <use xlink:href="#DejaVuSans-20" x="350.105469"/>
     <use xlink:href="#DejaVuSans-43" x="381.892578"/>
     <use xlink:href="#DejaVuSans-6f" x="451.716797"/>
     <use xlink:href="#DejaVuSans-6e" x="512.898438"/>
     <use xlink:href="#DejaVuSans-73" x="576.277344"/>
     <use xlink:href="#DejaVuSans-75" x="628.376953"/>
     <use xlink:href="#DejaVuSans-6d" x="691.755859"/>
     <use xlink:href="#DejaVuSans-70" x="789.167969"/>
     <use xlink:href="#DejaVuSans-74" x="852.644531"/>
     <use xlink:href="#DejaVuSans-69" x="891.853516"/>
     <use xlink:href="#DejaVuSans-6f" x="919.636719"/>
     <use xlink:href="#DejaVuSans-6e" x="980.818359"/>
     <use xlink:href="#DejaVuSans-20" x="1044.197266"/>
     <use xlink:href="#DejaVuSans-44" x="1075.984375"/>
     <use xlink:href="#DejaVuSans-69" x="1152.986328"/>
     <use xlink:href="#DejaVuSans-73" x="1180.769531"/>
     <use xlink:href="#DejaVuSans-74" x="1232.869141"/>
     <use xlink:href="#DejaVuSans-72" x="1272.078125"/>
     <use xlink:href="#DejaVuSans-69" x="1313.191406"/>
     <use xlink:href="#DejaVuSans-62" x="1340.974609"/>
     <use xlink:href="#DejaVuSans-75" x="1404.451172"/>
     <use xlink:href="#DejaVuSans-74" x="1467.830078"/>
     <use xlink:href="#DejaVuSans-69" x="1507.039062"/>
     <use xlink:href="#DejaVuSans-6f" x="1534.822266"/>
     <use xlink:href="#DejaVuSans-6e" x="1596.003906"/>
    </g>
   </g>
   <g id="legend_1">
    <g id="patch_124">
     <path d="M 284.600469 165.543125 
L 482.039531 165.543125 
Q 484.039531 165.543125 484.039531 163.543125 
L 484.039531 32.44 
Q 484.039531 30.44 482.039531 30.44 
L 284.600469 30.44 
Q 282.600469 30.44 282.600469 32.44 
L 282.600469 163.543125 
Q 282.600469 165.543125 284.600469 165.543125 
z
" style="fill: #ffffff; opacity: 0.8; stroke: #cccccc; stroke-linejoin: miter"/>
    </g>
    <g id="patch_125">
     <path d="M 286.600469 42.038437 
L 306.600469 42.038437 
L 306.600469 35.038437 
L 286.600469 35.038437 
z
" style="fill: #add8e6"/>
    </g>
    <g id="text_54">
     <!-- Energy from the solar production -->
     <g transform="translate(314.600469 42.038437)scale(0.1 -0.1)">
      <defs>
       <path id="DejaVuSans-66" d="M 2375 4863 
L 2375 4384 
L 1825 4384 
Q 1516 4384 1395 4259 
Q 1275 4134 1275 3809 
L 1275 3500 
L 2222 3500 
L 2222 3053 
L 1275 3053 
L 1275 0 
L 697 0 
L 697 3053 
L 147 3053 
L 147 3500 
L 697 3500 
L 697 3744 
Q 697 4328 969 4595 
Q 1241 4863 1831 4863 
L 2375 4863 
z
" transform="scale(0.015625)"/>
       <path id="DejaVuSans-64" d="M 2906 2969 
L 2906 4863 
L 3481 4863 
L 3481 0 
L 2906 0 
L 2906 525 
Q 2725 213 2448 61 
Q 2172 -91 1784 -91 
Q 1150 -91 751 415 
Q 353 922 353 1747 
Q 353 2572 751 3078 
Q 1150 3584 1784 3584 
Q 2172 3584 2448 3432 
Q 2725 3281 2906 2969 
z
M 947 1747 
Q 947 1113 1208 752 
Q 1469 391 1925 391 
Q 2381 391 2643 752 
Q 2906 1113 2906 1747 
Q 2906 2381 2643 2742 
Q 2381 3103 1925 3103 
Q 1469 3103 1208 2742 
Q 947 2381 947 1747 
z
" transform="scale(0.015625)"/>
      </defs>
      <use xlink:href="#DejaVuSans-45"/>
      <use xlink:href="#DejaVuSans-6e" x="63.183594"/>
      <use xlink:href="#DejaVuSans-65" x="126.5625"/>
      <use xlink:href="#DejaVuSans-72" x="188.085938"/>
      <use xlink:href="#DejaVuSans-67" x="227.449219"/>
      <use xlink:href="#DejaVuSans-79" x="290.925781"/>
      <use xlink:href="#DejaVuSans-20" x="350.105469"/>
      <use xlink:href="#DejaVuSans-66" x="381.892578"/>
      <use xlink:href="#DejaVuSans-72" x="417.097656"/>
      <use xlink:href="#DejaVuSans-6f" x="455.960938"/>
      <use xlink:href="#DejaVuSans-6d" x="517.142578"/>
      <use xlink:href="#DejaVuSans-20" x="614.554688"/>
      <use xlink:href="#DejaVuSans-74" x="646.341797"/>
      <use xlink:href="#DejaVuSans-68" x="685.550781"/>
      <use xlink:href="#DejaVuSans-65" x="748.929688"/>
      <use xlink:href="#DejaVuSans-20" x="810.453125"/>
      <use xlink:href="#DejaVuSans-73" x="842.240234"/>
      <use xlink:href="#DejaVuSans-6f" x="894.339844"/>
      <use xlink:href="#DejaVuSans-6c" x="955.521484"/>
      <use xlink:href="#DejaVuSans-61" x="983.304688"/>
      <use xlink:href="#DejaVuSans-72" x="1044.583984"/>
      <use xlink:href="#DejaVuSans-20" x="1085.697266"/>
      <use xlink:href="#DejaVuSans-70" x="1117.484375"/>
      <use xlink:href="#DejaVuSans-72" x="1180.960938"/>
      <use xlink:href="#DejaVuSans-6f" x="1219.824219"/>
      <use xlink:href="#DejaVuSans-64" x="1281.005859"/>
      <use xlink:href="#DejaVuSans-75" x="1344.482422"/>
      <use xlink:href="#DejaVuSans-63" x="1407.861328"/>
      <use xlink:href="#DejaVuSans-74" x="1462.841797"/>
      <use xlink:href="#DejaVuSans-69" x="1502.050781"/>
      <use xlink:href="#DejaVuSans-6f" x="1529.833984"/>
      <use xlink:href="#DejaVuSans-6e" x="1591.015625"/>
     </g>
    </g>
    <g id="patch_126">
     <path d="M 286.600469 56.716563 
L 306.600469 56.716563 
L 306.600469 49.716563 
L 286.600469 49.716563 
z
" style="fill: #f08080"/>
    </g>
    <g id="text_55">
     <!-- Energy from the grid -->
     <g transform="translate(314.600469 56.716563)scale(0.1 -0.1)">
      <use xlink:href="#DejaVuSans-45"/>
      <use xlink:href="#DejaVuSans-6e" x="63.183594"/>
      <use xlink:href="#DejaVuSans-65" x="126.5625"/>
      <use xlink:href="#DejaVuSans-72" x="188.085938"/>
      <use xlink:href="#DejaVuSans-67" x="227.449219"/>
      <use xlink:href="#DejaVuSans-79" x="290.925781"/>
      <use xlink:href="#DejaVuSans-20" x="350.105469"/>
      <use xlink:href="#DejaVuSans-66" x="381.892578"/>
      <use xlink:href="#DejaVuSans-72" x="417.097656"/>
      <use xlink:href="#DejaVuSans-6f" x="455.960938"/>
      <use xlink:href="#DejaVuSans-6d" x="517.142578"/>
      <use xlink:href="#DejaVuSans-20" x="614.554688"/>
      <use xlink:href="#DejaVuSans-74" x="646.341797"/>
      <use xlink:href="#DejaVuSans-68" x="685.550781"/>
      <use xlink:href="#DejaVuSans-65" x="748.929688"/>
      <use xlink:href="#DejaVuSans-20" x="810.453125"/>
      <use xlink:href="#DejaVuSans-67" x="842.240234"/>
      <use xlink:href="#DejaVuSans-72" x="905.716797"/>
      <use xlink:href="#DejaVuSans-69" x="946.830078"/>
      <use xlink:href="#DejaVuSans-64" x="974.613281"/>
     </g>
    </g>
    <g id="patch_127">
     <path d="M 286.600469 71.394687 
L 306.600469 71.394687 
L 306.600469 64.394687 
L 286.600469 64.394687 
z
" style="fill: #1f77b4"/>
    </g>
    <g id="text_56">
     <!-- Pool -->
     <g transform="translate(314.600469 71.394687)scale(0.1 -0.1)">
      <defs>
       <path id="DejaVuSans-50" d="M 1259 4147 
L 1259 2394 
L 2053 2394 
Q 2494 2394 2734 2622 
Q 2975 2850 2975 3272 
Q 2975 3691 2734 3919 
Q 2494 4147 2053 4147 
L 1259 4147 
z
M 628 4666 
L 2053 4666 
Q 2838 4666 3239 4311 
Q 3641 3956 3641 3272 
Q 3641 2581 3239 2228 
Q 2838 1875 2053 1875 
L 1259 1875 
L 1259 0 
L 628 0 
L 628 4666 
z
" transform="scale(0.015625)"/>
      </defs>
      <use xlink:href="#DejaVuSans-50"/>
      <use xlink:href="#DejaVuSans-6f" x="56.677734"/>
      <use xlink:href="#DejaVuSans-6f" x="117.859375"/>
      <use xlink:href="#DejaVuSans-6c" x="179.041016"/>
     </g>
    </g>
    <g id="patch_128">
     <path d="M 286.600469 86.072812 
L 306.600469 86.072812 
L 306.600469 79.072812 
L 286.600469 79.072812 
z
" style="fill: #ffd700"/>
    </g>
    <g id="text_57">
     <!-- Water heater -->
     <g transform="translate(314.600469 86.072812)scale(0.1 -0.1)">
      <use xlink:href="#DejaVuSans-57"/>
      <use xlink:href="#DejaVuSans-61" x="92.501953"/>
      <use xlink:href="#DejaVuSans-74" x="153.78125"/>
      <use xlink:href="#DejaVuSans-65" x="192.990234"/>
      <use xlink:href="#DejaVuSans-72" x="254.513672"/>
      <use xlink:href="#DejaVuSans-20" x="295.626953"/>
      <use xlink:href="#DejaVuSans-68" x="327.414062"/>
      <use xlink:href="#DejaVuSans-65" x="390.792969"/>
      <use xlink:href="#DejaVuSans-61" x="452.316406"/>
      <use xlink:href="#DejaVuSans-74" x="513.595703"/>
      <use xlink:href="#DejaVuSans-65" x="552.804688"/>
      <use xlink:href="#DejaVuSans-72" x="614.328125"/>
     </g>
    </g>
    <g id="patch_129">
     <path d="M 286.600469 100.750937 
L 306.600469 100.750937 
L 306.600469 93.750937 
L 286.600469 93.750937 
z
" style="fill: #17becf"/>
    </g>
    <g id="text_58">
     <!-- HVAC -->
     <g transform="translate(314.600469 100.750937)scale(0.1 -0.1)">
      <defs>
       <path id="DejaVuSans-48" d="M 628 4666 
L 1259 4666 
L 1259 2753 
L 3553 2753 
L 3553 4666 
L 4184 4666 
L 4184 0 
L 3553 0 
L 3553 2222 
L 1259 2222 
L 1259 0 
L 628 0 
L 628 4666 
z
" transform="scale(0.015625)"/>
       <path id="DejaVuSans-56" d="M 1831 0 
L 50 4666 
L 709 4666 
L 2188 738 
L 3669 4666 
L 4325 4666 
L 2547 0 
L 1831 0 
z
" transform="scale(0.015625)"/>
      </defs>
      <use xlink:href="#DejaVuSans-48"/>
      <use xlink:href="#DejaVuSans-56" x="75.195312"/>
      <use xlink:href="#DejaVuSans-41" x="137.228516"/>
      <use xlink:href="#DejaVuSans-43" x="203.886719"/>
     </g>
    </g>
    <g id="patch_130">
     <path d="M 286.600469 115.429062 
L 306.600469 115.429062 
L 306.600469 108.429062 
L 286.600469 108.429062 
z
" style="fill: #d62728"/>
    </g>
    <g id="text_59">
     <!-- Kitchen range -->
     <g transform="translate(314.600469 115.429062)scale(0.1 -0.1)">
      <defs>
       <path id="DejaVuSans-4b" d="M 628 4666 
L 1259 4666 
L 1259 2694 
L 3353 4666 
L 4166 4666 
L 1850 2491 
L 4331 0 
L 3500 0 
L 1259 2247 
L 1259 0 
L 628 0 
L 628 4666 
z
" transform="scale(0.015625)"/>
      </defs>
      <use xlink:href="#DejaVuSans-4b"/>
      <use xlink:href="#DejaVuSans-69" x="65.576172"/>
      <use xlink:href="#DejaVuSans-74" x="93.359375"/>
      <use xlink:href="#DejaVuSans-63" x="132.568359"/>
      <use xlink:href="#DejaVuSans-68" x="187.548828"/>
      <use xlink:href="#DejaVuSans-65" x="250.927734"/>
      <use xlink:href="#DejaVuSans-6e" x="312.451172"/>
      <use xlink:href="#DejaVuSans-20" x="375.830078"/>
      <use xlink:href="#DejaVuSans-72" x="407.617188"/>
      <use xlink:href="#DejaVuSans-61" x="448.730469"/>
      <use xlink:href="#DejaVuSans-6e" x="510.009766"/>
      <use xlink:href="#DejaVuSans-67" x="573.388672"/>
      <use xlink:href="#DejaVuSans-65" x="636.865234"/>
     </g>
    </g>
    <g id="patch_131">
     <path d="M 286.600469 130.107187 
L 306.600469 130.107187 
L 306.600469 123.107187 
L 286.600469 123.107187 
z
" style="fill: #2ca02c"/>
    </g>
    <g id="text_60">
     <!-- Electric Vehicle -->
     <g transform="translate(314.600469 130.107187)scale(0.1 -0.1)">
      <use xlink:href="#DejaVuSans-45"/>
      <use xlink:href="#DejaVuSans-6c" x="63.183594"/>
      <use xlink:href="#DejaVuSans-65" x="90.966797"/>
      <use xlink:href="#DejaVuSans-63" x="152.490234"/>
      <use xlink:href="#DejaVuSans-74" x="207.470703"/>
      <use xlink:href="#DejaVuSans-72" x="246.679688"/>
      <use xlink:href="#DejaVuSans-69" x="287.792969"/>
      <use xlink:href="#DejaVuSans-63" x="315.576172"/>
      <use xlink:href="#DejaVuSans-20" x="370.556641"/>
      <use xlink:href="#DejaVuSans-56" x="402.34375"/>
      <use xlink:href="#DejaVuSans-65" x="463.001953"/>
      <use xlink:href="#DejaVuSans-68" x="524.525391"/>
      <use xlink:href="#DejaVuSans-69" x="587.904297"/>
      <use xlink:href="#DejaVuSans-63" x="615.6875"/>
      <use xlink:href="#DejaVuSans-6c" x="670.667969"/>
      <use xlink:href="#DejaVuSans-65" x="698.451172"/>
     </g>
    </g>
    <g id="patch_132">
     <path d="M 286.600469 144.785312 
L 306.600469 144.785312 
L 306.600469 137.785312 
L 286.600469 137.785312 
z
" style="fill: #ff7f0e"/>
    </g>
    <g id="text_61">
     <!-- Dryer -->
     <g transform="translate(314.600469 144.785312)scale(0.1 -0.1)">
      <use xlink:href="#DejaVuSans-44"/>
      <use xlink:href="#DejaVuSans-72" x="77.001953"/>
      <use xlink:href="#DejaVuSans-79" x="118.115234"/>
      <use xlink:href="#DejaVuSans-65" x="177.294922"/>
      <use xlink:href="#DejaVuSans-72" x="238.818359"/>
     </g>
    </g>
    <g id="patch_133">
     <path d="M 286.600469 159.463437 
L 306.600469 159.463437 
L 306.600469 152.463437 
L 286.600469 152.463437 
z
" style="fill: #d3d3d3"/>
    </g>
    <g id="text_62">
     <!-- Other -->
     <g transform="translate(314.600469 159.463437)scale(0.1 -0.1)">
      <use xlink:href="#DejaVuSans-4f"/>
      <use xlink:href="#DejaVuSans-74" x="78.710938"/>
      <use xlink:href="#DejaVuSans-68" x="117.919922"/>
      <use xlink:href="#DejaVuSans-65" x="181.298828"/>
      <use xlink:href="#DejaVuSans-72" x="242.822266"/>
     </g>
    </g>
   </g>
  </g>
 </g>
 <defs>
  <clipPath id="pd9c9c281aa">
   <rect x="57.44" y="25.44" width="651.76" height="289.976"/>
  </clipPath>
 </defs>
</svg>
