<?xml version="1.0" encoding="utf-8" standalone="no"?>
<!DOCTYPE svg PUBLIC "-//W3C//DTD SVG 1.1//EN"
  "http://www.w3.org/Graphics/SVG/1.1/DTD/svg11.dtd">
<svg height="416.88pt" version="1.1" viewBox="0 0 846 416.88" width="846pt" xmlns="http://www.w3.org/2000/svg" xmlns:xlink="http://www.w3.org/1999/xlink">
 <metadata>
  <rdf:RDF xmlns:cc="http://creativecommons.org/ns#" xmlns:dc="http://purl.org/dc/elements/1.1/" xmlns:rdf="http://www.w3.org/1999/02/22-rdf-syntax-ns#">
   <cc:Work>
    <dc:type rdf:resource="http://purl.org/dc/dcmitype/StillImage"/>
    <dc:date>2022-01-27T15:50:04.948462</dc:date>
    <dc:format>image/svg+xml</dc:format>
    <dc:creator>
     <cc:Agent>
      <dc:title>Matplotlib v3.4.3, https://matplotlib.org/</dc:title>
     </cc:Agent>
    </dc:creator>
   </cc:Work>
  </rdf:RDF>
 </metadata>
 <defs>
  <style type="text/css">*{stroke-linecap:butt;stroke-linejoin:round;}</style>
 </defs>
 <g id="figure_1">
  <g id="patch_1">
   <path d="M 0 416.88 
L 846 416.88 
L 846 0 
L 0 0 
z
" style="fill:#ffffff;"/>
  </g>
  <g id="axes_1">
   <g id="patch_2">
    <path d="M 43.36 377.336 
L 835.2 377.336 
L 835.2 25.44 
L 43.36 25.44 
z
" style="fill:#ffffff;"/>
   </g>
   <g id="patch_3">
    <path clip-path="url(#paf83d884c5)" d="M 79.352727 222.031065 
L 112.030949 222.031065 
L 112.030949 65.774331 
L 79.352727 65.774331 
z
" style="fill:#add8e6;"/>
   </g>
   <g id="patch_4">
    <path clip-path="url(#paf83d884c5)" d="M 172.719076 213.83779 
L 205.397297 213.83779 
L 205.397297 42.196952 
L 172.719076 42.196952 
z
" style="fill:#add8e6;"/>
   </g>
   <g id="patch_5">
    <path clip-path="url(#paf83d884c5)" d="M 266.085424 238.121531 
L 298.763646 238.121531 
L 298.763646 60.085085 
L 266.085424 60.085085 
z
" style="fill:#add8e6;"/>
   </g>
   <g id="patch_6">
    <path clip-path="url(#paf83d884c5)" d="M 359.451772 300.052984 
L 392.129994 300.052984 
L 392.129994 182.552975 
L 359.451772 182.552975 
z
" style="fill:#add8e6;"/>
   </g>
   <g id="patch_7">
    <path clip-path="url(#paf83d884c5)" d="M 452.818121 338.595054 
L 485.496342 338.595054 
L 485.496342 191.459372 
L 452.818121 191.459372 
z
" style="fill:#add8e6;"/>
   </g>
   <g id="patch_8">
    <path clip-path="url(#paf83d884c5)" d="M 546.184469 353.701065 
L 578.862691 353.701065 
L 578.862691 240.210583 
L 546.184469 240.210583 
z
" style="fill:#add8e6;"/>
   </g>
   <g id="patch_9">
    <path clip-path="url(#paf83d884c5)" d="M 639.550817 338.468574 
L 672.229039 338.468574 
L 672.229039 226.877972 
L 639.550817 226.877972 
z
" style="fill:#add8e6;"/>
   </g>
   <g id="patch_10">
    <path clip-path="url(#paf83d884c5)" d="M 732.917165 348.493243 
L 765.595387 348.493243 
L 765.595387 235.927123 
L 732.917165 235.927123 
z
" style="fill:#add8e6;"/>
   </g>
   <g id="patch_11">
    <path clip-path="url(#paf83d884c5)" d="M 79.352727 377.336 
L 112.030949 377.336 
L 112.030949 222.031065 
L 79.352727 222.031065 
z
" style="fill:#f08080;"/>
   </g>
   <g id="patch_12">
    <path clip-path="url(#paf83d884c5)" d="M 172.719076 377.336 
L 205.397297 377.336 
L 205.397297 213.83779 
L 172.719076 213.83779 
z
" style="fill:#f08080;"/>
   </g>
   <g id="patch_13">
    <path clip-path="url(#paf83d884c5)" d="M 266.085424 377.336 
L 298.763646 377.336 
L 298.763646 238.121531 
L 266.085424 238.121531 
z
" style="fill:#f08080;"/>
   </g>
   <g id="patch_14">
    <path clip-path="url(#paf83d884c5)" d="M 359.451772 377.336 
L 392.129994 377.336 
L 392.129994 300.052984 
L 359.451772 300.052984 
z
" style="fill:#f08080;"/>
   </g>
   <g id="patch_15">
    <path clip-path="url(#paf83d884c5)" d="M 452.818121 377.336 
L 485.496342 377.336 
L 485.496342 338.595054 
L 452.818121 338.595054 
z
" style="fill:#f08080;"/>
   </g>
   <g id="patch_16">
    <path clip-path="url(#paf83d884c5)" d="M 546.184469 377.336 
L 578.862691 377.336 
L 578.862691 353.701065 
L 546.184469 353.701065 
z
" style="fill:#f08080;"/>
   </g>
   <g id="patch_17">
    <path clip-path="url(#paf83d884c5)" d="M 639.550817 377.336 
L 672.229039 377.336 
L 672.229039 338.468574 
L 639.550817 338.468574 
z
" style="fill:#f08080;"/>
   </g>
   <g id="patch_18">
    <path clip-path="url(#paf83d884c5)" d="M 732.917165 377.336 
L 765.595387 377.336 
L 765.595387 348.493243 
L 732.917165 348.493243 
z
" style="fill:#f08080;"/>
   </g>
   <g id="patch_19">
    <path clip-path="url(#paf83d884c5)" d="M 112.964613 377.336 
L 145.642835 377.336 
L 145.642835 346.453352 
L 112.964613 346.453352 
z
" style="fill:#1f77b4;"/>
   </g>
   <g id="patch_20">
    <path clip-path="url(#paf83d884c5)" d="M 206.330961 377.336 
L 239.009183 377.336 
L 239.009183 342.96711 
L 206.330961 342.96711 
z
" style="fill:#1f77b4;"/>
   </g>
   <g id="patch_21">
    <path clip-path="url(#paf83d884c5)" d="M 299.697309 377.336 
L 332.375531 377.336 
L 332.375531 347.793839 
L 299.697309 347.793839 
z
" style="fill:#1f77b4;"/>
   </g>
   <g id="patch_22">
    <path clip-path="url(#paf83d884c5)" d="M 393.063658 377.336 
L 425.741879 377.336 
L 425.741879 334.645424 
L 393.063658 334.645424 
z
" style="fill:#1f77b4;"/>
   </g>
   <g id="patch_23">
    <path clip-path="url(#paf83d884c5)" d="M 486.430006 377.336 
L 519.108228 377.336 
L 519.108228 352.3022 
L 486.430006 352.3022 
z
" style="fill:#1f77b4;"/>
   </g>
   <g id="patch_24">
    <path clip-path="url(#paf83d884c5)" d="M 579.796354 377.336 
L 612.474576 377.336 
L 612.474576 356.606985 
L 579.796354 356.606985 
z
" style="fill:#1f77b4;"/>
   </g>
   <g id="patch_25">
    <path clip-path="url(#paf83d884c5)" d="M 673.162703 377.336 
L 705.840924 377.336 
L 705.840924 365.377826 
L 673.162703 365.377826 
z
" style="fill:#1f77b4;"/>
   </g>
   <g id="patch_26">
    <path clip-path="url(#paf83d884c5)" d="M 766.529051 377.336 
L 799.207273 377.336 
L 799.207273 367.444192 
L 766.529051 367.444192 
z
" style="fill:#1f77b4;"/>
   </g>
   <g id="patch_27">
    <path clip-path="url(#paf83d884c5)" d="M 112.964613 346.453352 
L 145.642835 346.453352 
L 145.642835 335.936757 
L 112.964613 335.936757 
z
" style="fill:#ffd700;"/>
   </g>
   <g id="patch_28">
    <path clip-path="url(#paf83d884c5)" d="M 206.330961 342.96711 
L 239.009183 342.96711 
L 239.009183 331.762932 
L 206.330961 331.762932 
z
" style="fill:#ffd700;"/>
   </g>
   <g id="patch_29">
    <path clip-path="url(#paf83d884c5)" d="M 299.697309 347.793839 
L 332.375531 347.793839 
L 332.375531 337.025207 
L 299.697309 337.025207 
z
" style="fill:#ffd700;"/>
   </g>
   <g id="patch_30">
    <path clip-path="url(#paf83d884c5)" d="M 393.063658 334.645424 
L 425.741879 334.645424 
L 425.741879 331.290819 
L 393.063658 331.290819 
z
" style="fill:#ffd700;"/>
   </g>
   <g id="patch_31">
    <path clip-path="url(#paf83d884c5)" d="M 486.430006 352.3022 
L 519.108228 352.3022 
L 519.108228 333.569863 
L 486.430006 333.569863 
z
" style="fill:#ffd700;"/>
   </g>
   <g id="patch_32">
    <path clip-path="url(#paf83d884c5)" d="M 579.796354 356.606985 
L 612.474576 356.606985 
L 612.474576 336.187389 
L 579.796354 336.187389 
z
" style="fill:#ffd700;"/>
   </g>
   <g id="patch_33">
    <path clip-path="url(#paf83d884c5)" d="M 673.162703 365.377826 
L 705.840924 365.377826 
L 705.840924 343.120723 
L 673.162703 343.120723 
z
" style="fill:#ffd700;"/>
   </g>
   <g id="patch_34">
    <path clip-path="url(#paf83d884c5)" d="M 766.529051 367.444192 
L 799.207273 367.444192 
L 799.207273 348.394112 
L 766.529051 348.394112 
z
" style="fill:#ffd700;"/>
   </g>
   <g id="patch_35">
    <path clip-path="url(#paf83d884c5)" d="M 112.964613 335.936757 
L 145.642835 335.936757 
L 145.642835 134.474997 
L 112.964613 134.474997 
z
" style="fill:#17becf;"/>
   </g>
   <g id="patch_36">
    <path clip-path="url(#paf83d884c5)" d="M 206.330961 331.762932 
L 239.009183 331.762932 
L 239.009183 135.207669 
L 206.330961 135.207669 
z
" style="fill:#17becf;"/>
   </g>
   <g id="patch_37">
    <path clip-path="url(#paf83d884c5)" d="M 299.697309 337.025207 
L 332.375531 337.025207 
L 332.375531 158.224565 
L 299.697309 158.224565 
z
" style="fill:#17becf;"/>
   </g>
   <g id="patch_38">
    <path clip-path="url(#paf83d884c5)" d="M 393.063658 331.290819 
L 425.741879 331.290819 
L 425.741879 224.84141 
L 393.063658 224.84141 
z
" style="fill:#17becf;"/>
   </g>
   <g id="patch_39">
    <path clip-path="url(#paf83d884c5)" d="M 486.430006 333.569863 
L 519.108228 333.569863 
L 519.108228 289.724792 
L 486.430006 289.724792 
z
" style="fill:#17becf;"/>
   </g>
   <g id="patch_40">
    <path clip-path="url(#paf83d884c5)" d="M 579.796354 336.187389 
L 612.474576 336.187389 
L 612.474576 325.972787 
L 579.796354 325.972787 
z
" style="fill:#17becf;"/>
   </g>
   <g id="patch_41">
    <path clip-path="url(#paf83d884c5)" d="M 673.162703 343.120723 
L 705.840924 343.120723 
L 705.840924 317.61016 
L 673.162703 317.61016 
z
" style="fill:#17becf;"/>
   </g>
   <g id="patch_42">
    <path clip-path="url(#paf83d884c5)" d="M 766.529051 348.394112 
L 799.207273 348.394112 
L 799.207273 311.558011 
L 766.529051 311.558011 
z
" style="fill:#17becf;"/>
   </g>
   <g id="patch_43">
    <path clip-path="url(#paf83d884c5)" d="M 112.964613 134.474997 
L 145.642835 134.474997 
L 145.642835 131.86591 
L 112.964613 131.86591 
z
" style="fill:#d62728;"/>
   </g>
   <g id="patch_44">
    <path clip-path="url(#paf83d884c5)" d="M 206.330961 135.207669 
L 239.009183 135.207669 
L 239.009183 133.535951 
L 206.330961 133.535951 
z
" style="fill:#d62728;"/>
   </g>
   <g id="patch_45">
    <path clip-path="url(#paf83d884c5)" d="M 299.697309 158.224565 
L 332.375531 158.224565 
L 332.375531 156.059417 
L 299.697309 156.059417 
z
" style="fill:#d62728;"/>
   </g>
   <g id="patch_46">
    <path clip-path="url(#paf83d884c5)" d="M 393.063658 224.84141 
L 425.741879 224.84141 
L 425.741879 224.766642 
L 393.063658 224.766642 
z
" style="fill:#d62728;"/>
   </g>
   <g id="patch_47">
    <path clip-path="url(#paf83d884c5)" d="M 486.430006 289.724792 
L 519.108228 289.724792 
L 519.108228 288.386612 
L 486.430006 288.386612 
z
" style="fill:#d62728;"/>
   </g>
   <g id="patch_48">
    <path clip-path="url(#paf83d884c5)" d="M 579.796354 325.972787 
L 612.474576 325.972787 
L 612.474576 322.792521 
L 579.796354 322.792521 
z
" style="fill:#d62728;"/>
   </g>
   <g id="patch_49">
    <path clip-path="url(#paf83d884c5)" d="M 673.162703 317.61016 
L 705.840924 317.61016 
L 705.840924 312.397186 
L 673.162703 312.397186 
z
" style="fill:#d62728;"/>
   </g>
   <g id="patch_50">
    <path clip-path="url(#paf83d884c5)" d="M 766.529051 311.558011 
L 799.207273 311.558011 
L 799.207273 309.172722 
L 766.529051 309.172722 
z
" style="fill:#d62728;"/>
   </g>
   <g id="patch_51">
    <path clip-path="url(#paf83d884c5)" d="M 112.964613 131.86591 
L 145.642835 131.86591 
L 145.642835 96.063343 
L 112.964613 96.063343 
z
" style="fill:#2ca02c;"/>
   </g>
   <g id="patch_52">
    <path clip-path="url(#paf83d884c5)" d="M 206.330961 133.535951 
L 239.009183 133.535951 
L 239.009183 78.019259 
L 206.330961 78.019259 
z
" style="fill:#2ca02c;"/>
   </g>
   <g id="patch_53">
    <path clip-path="url(#paf83d884c5)" d="M 299.697309 156.059417 
L 332.375531 156.059417 
L 332.375531 94.342745 
L 299.697309 94.342745 
z
" style="fill:#2ca02c;"/>
   </g>
   <g id="patch_54">
    <path clip-path="url(#paf83d884c5)" d="M 393.063658 224.766642 
L 425.741879 224.766642 
L 425.741879 209.182828 
L 393.063658 209.182828 
z
" style="fill:#2ca02c;"/>
   </g>
   <g id="patch_55">
    <path clip-path="url(#paf83d884c5)" d="M 486.430006 288.386612 
L 519.108228 288.386612 
L 519.108228 228.262982 
L 486.430006 228.262982 
z
" style="fill:#2ca02c;"/>
   </g>
   <g id="patch_56">
    <path clip-path="url(#paf83d884c5)" d="M 579.796354 322.792521 
L 612.474576 322.792521 
L 612.474576 276.553158 
L 579.796354 276.553158 
z
" style="fill:#2ca02c;"/>
   </g>
   <g id="patch_57">
    <path clip-path="url(#paf83d884c5)" d="M 673.162703 312.397186 
L 705.840924 312.397186 
L 705.840924 265.310675 
L 673.162703 265.310675 
z
" style="fill:#2ca02c;"/>
   </g>
   <g id="patch_58">
    <path clip-path="url(#paf83d884c5)" d="M 766.529051 309.172722 
L 799.207273 309.172722 
L 799.207273 267.298675 
L 766.529051 267.298675 
z
" style="fill:#2ca02c;"/>
   </g>
   <g id="patch_59">
    <path clip-path="url(#paf83d884c5)" d="M 112.964613 96.063343 
L 145.642835 96.063343 
L 145.642835 96.063141 
L 112.964613 96.063141 
z
" style="fill:#ff7f0e;"/>
   </g>
   <g id="patch_60">
    <path clip-path="url(#paf83d884c5)" d="M 206.330961 78.019259 
L 239.009183 78.019259 
L 239.009183 77.678557 
L 206.330961 77.678557 
z
" style="fill:#ff7f0e;"/>
   </g>
   <g id="patch_61">
    <path clip-path="url(#paf83d884c5)" d="M 299.697309 94.342745 
L 332.375531 94.342745 
L 332.375531 94.342546 
L 299.697309 94.342546 
z
" style="fill:#ff7f0e;"/>
   </g>
   <g id="patch_62">
    <path clip-path="url(#paf83d884c5)" d="M 393.063658 209.182828 
L 425.741879 209.182828 
L 425.741879 209.182693 
L 393.063658 209.182693 
z
" style="fill:#ff7f0e;"/>
   </g>
   <g id="patch_63">
    <path clip-path="url(#paf83d884c5)" d="M 486.430006 228.262982 
L 519.108228 228.262982 
L 519.108228 228.262325 
L 486.430006 228.262325 
z
" style="fill:#ff7f0e;"/>
   </g>
   <g id="patch_64">
    <path clip-path="url(#paf83d884c5)" d="M 579.796354 276.553158 
L 612.474576 276.553158 
L 612.474576 276.552128 
L 579.796354 276.552128 
z
" style="fill:#ff7f0e;"/>
   </g>
   <g id="patch_65">
    <path clip-path="url(#paf83d884c5)" d="M 673.162703 265.310675 
L 705.840924 265.310675 
L 705.840924 265.084761 
L 673.162703 265.084761 
z
" style="fill:#ff7f0e;"/>
   </g>
   <g id="patch_66">
    <path clip-path="url(#paf83d884c5)" d="M 766.529051 267.298675 
L 799.207273 267.298675 
L 799.207273 267.297231 
L 766.529051 267.297231 
z
" style="fill:#ff7f0e;"/>
   </g>
   <g id="patch_67">
    <path clip-path="url(#paf83d884c5)" d="M 112.964613 96.063141 
L 145.642835 96.063141 
L 145.642835 65.774331 
L 112.964613 65.774331 
z
" style="fill:#d3d3d3;"/>
   </g>
   <g id="patch_68">
    <path clip-path="url(#paf83d884c5)" d="M 206.330961 77.678557 
L 239.009183 77.678557 
L 239.009183 42.196952 
L 206.330961 42.196952 
z
" style="fill:#d3d3d3;"/>
   </g>
   <g id="patch_69">
    <path clip-path="url(#paf83d884c5)" d="M 299.697309 94.342546 
L 332.375531 94.342546 
L 332.375531 60.085085 
L 299.697309 60.085085 
z
" style="fill:#d3d3d3;"/>
   </g>
   <g id="patch_70">
    <path clip-path="url(#paf83d884c5)" d="M 393.063658 209.182693 
L 425.741879 209.182693 
L 425.741879 182.552975 
L 393.063658 182.552975 
z
" style="fill:#d3d3d3;"/>
   </g>
   <g id="patch_71">
    <path clip-path="url(#paf83d884c5)" d="M 486.430006 228.262325 
L 519.108228 228.262325 
L 519.108228 191.459372 
L 486.430006 191.459372 
z
" style="fill:#d3d3d3;"/>
   </g>
   <g id="patch_72">
    <path clip-path="url(#paf83d884c5)" d="M 579.796354 276.552128 
L 612.474576 276.552128 
L 612.474576 240.210583 
L 579.796354 240.210583 
z
" style="fill:#d3d3d3;"/>
   </g>
   <g id="patch_73">
    <path clip-path="url(#paf83d884c5)" d="M 673.162703 265.084761 
L 705.840924 265.084761 
L 705.840924 226.877972 
L 673.162703 226.877972 
z
" style="fill:#d3d3d3;"/>
   </g>
   <g id="patch_74">
    <path clip-path="url(#paf83d884c5)" d="M 766.529051 267.297231 
L 799.207273 267.297231 
L 799.207273 235.927123 
L 766.529051 235.927123 
z
" style="fill:#d3d3d3;"/>
   </g>
   <g id="matplotlib.axis_1">
    <g id="xtick_1">
     <g id="line2d_1">
      <path clip-path="url(#paf83d884c5)" d="M 112.030949 377.336 
L 112.030949 25.44 
" style="fill:none;stroke:#b0b0b0;stroke-dasharray:0.8,1.32;stroke-dashoffset:0;stroke-width:0.8;"/>
     </g>
     <g id="line2d_2">
      <defs>
       <path d="M 0 0 
L 0 3.5 
" id="m5b4a8893d4" style="stroke:#000000;stroke-width:0.8;"/>
      </defs>
      <g>
       <use style="stroke:#000000;stroke-width:0.8;" x="112.030949" xlink:href="#m5b4a8893d4" y="377.336"/>
      </g>
     </g>
     <g id="text_1">
      <!-- June -->
      <g transform="translate(101.141887 391.934437)scale(0.1 -0.1)">
       <defs>
        <path d="M 628 4666 
L 1259 4666 
L 1259 325 
Q 1259 -519 939 -900 
Q 619 -1281 -91 -1281 
L -331 -1281 
L -331 -750 
L -134 -750 
Q 284 -750 456 -515 
Q 628 -281 628 325 
L 628 4666 
z
" id="DejaVuSans-4a" transform="scale(0.015625)"/>
        <path d="M 544 1381 
L 544 3500 
L 1119 3500 
L 1119 1403 
Q 1119 906 1312 657 
Q 1506 409 1894 409 
Q 2359 409 2629 706 
Q 2900 1003 2900 1516 
L 2900 3500 
L 3475 3500 
L 3475 0 
L 2900 0 
L 2900 538 
Q 2691 219 2414 64 
Q 2138 -91 1772 -91 
Q 1169 -91 856 284 
Q 544 659 544 1381 
z
M 1991 3584 
L 1991 3584 
z
" id="DejaVuSans-75" transform="scale(0.015625)"/>
        <path d="M 3513 2113 
L 3513 0 
L 2938 0 
L 2938 2094 
Q 2938 2591 2744 2837 
Q 2550 3084 2163 3084 
Q 1697 3084 1428 2787 
Q 1159 2491 1159 1978 
L 1159 0 
L 581 0 
L 581 3500 
L 1159 3500 
L 1159 2956 
Q 1366 3272 1645 3428 
Q 1925 3584 2291 3584 
Q 2894 3584 3203 3211 
Q 3513 2838 3513 2113 
z
" id="DejaVuSans-6e" transform="scale(0.015625)"/>
        <path d="M 3597 1894 
L 3597 1613 
L 953 1613 
Q 991 1019 1311 708 
Q 1631 397 2203 397 
Q 2534 397 2845 478 
Q 3156 559 3463 722 
L 3463 178 
Q 3153 47 2828 -22 
Q 2503 -91 2169 -91 
Q 1331 -91 842 396 
Q 353 884 353 1716 
Q 353 2575 817 3079 
Q 1281 3584 2069 3584 
Q 2775 3584 3186 3129 
Q 3597 2675 3597 1894 
z
M 3022 2063 
Q 3016 2534 2758 2815 
Q 2500 3097 2075 3097 
Q 1594 3097 1305 2825 
Q 1016 2553 972 2059 
L 3022 2063 
z
" id="DejaVuSans-65" transform="scale(0.015625)"/>
       </defs>
       <use xlink:href="#DejaVuSans-4a"/>
       <use x="29.492188" xlink:href="#DejaVuSans-75"/>
       <use x="92.871094" xlink:href="#DejaVuSans-6e"/>
       <use x="156.25" xlink:href="#DejaVuSans-65"/>
      </g>
      <!-- 2021 -->
      <g transform="translate(99.305949 403.13225)scale(0.1 -0.1)">
       <defs>
        <path d="M 1228 531 
L 3431 531 
L 3431 0 
L 469 0 
L 469 531 
Q 828 903 1448 1529 
Q 2069 2156 2228 2338 
Q 2531 2678 2651 2914 
Q 2772 3150 2772 3378 
Q 2772 3750 2511 3984 
Q 2250 4219 1831 4219 
Q 1534 4219 1204 4116 
Q 875 4013 500 3803 
L 500 4441 
Q 881 4594 1212 4672 
Q 1544 4750 1819 4750 
Q 2544 4750 2975 4387 
Q 3406 4025 3406 3419 
Q 3406 3131 3298 2873 
Q 3191 2616 2906 2266 
Q 2828 2175 2409 1742 
Q 1991 1309 1228 531 
z
" id="DejaVuSans-32" transform="scale(0.015625)"/>
        <path d="M 2034 4250 
Q 1547 4250 1301 3770 
Q 1056 3291 1056 2328 
Q 1056 1369 1301 889 
Q 1547 409 2034 409 
Q 2525 409 2770 889 
Q 3016 1369 3016 2328 
Q 3016 3291 2770 3770 
Q 2525 4250 2034 4250 
z
M 2034 4750 
Q 2819 4750 3233 4129 
Q 3647 3509 3647 2328 
Q 3647 1150 3233 529 
Q 2819 -91 2034 -91 
Q 1250 -91 836 529 
Q 422 1150 422 2328 
Q 422 3509 836 4129 
Q 1250 4750 2034 4750 
z
" id="DejaVuSans-30" transform="scale(0.015625)"/>
        <path d="M 794 531 
L 1825 531 
L 1825 4091 
L 703 3866 
L 703 4441 
L 1819 4666 
L 2450 4666 
L 2450 531 
L 3481 531 
L 3481 0 
L 794 0 
L 794 531 
z
" id="DejaVuSans-31" transform="scale(0.015625)"/>
       </defs>
       <use xlink:href="#DejaVuSans-32"/>
       <use x="63.623047" xlink:href="#DejaVuSans-30"/>
       <use x="127.246094" xlink:href="#DejaVuSans-32"/>
       <use x="190.869141" xlink:href="#DejaVuSans-31"/>
      </g>
     </g>
    </g>
    <g id="xtick_2">
     <g id="line2d_3">
      <path clip-path="url(#paf83d884c5)" d="M 205.397297 377.336 
L 205.397297 25.44 
" style="fill:none;stroke:#b0b0b0;stroke-dasharray:0.8,1.32;stroke-dashoffset:0;stroke-width:0.8;"/>
     </g>
     <g id="line2d_4">
      <g>
       <use style="stroke:#000000;stroke-width:0.8;" x="205.397297" xlink:href="#m5b4a8893d4" y="377.336"/>
      </g>
     </g>
     <g id="text_2">
      <!-- July -->
      <g transform="translate(196.40511 391.934437)scale(0.1 -0.1)">
       <defs>
        <path d="M 603 4863 
L 1178 4863 
L 1178 0 
L 603 0 
L 603 4863 
z
" id="DejaVuSans-6c" transform="scale(0.015625)"/>
        <path d="M 2059 -325 
Q 1816 -950 1584 -1140 
Q 1353 -1331 966 -1331 
L 506 -1331 
L 506 -850 
L 844 -850 
Q 1081 -850 1212 -737 
Q 1344 -625 1503 -206 
L 1606 56 
L 191 3500 
L 800 3500 
L 1894 763 
L 2988 3500 
L 3597 3500 
L 2059 -325 
z
" id="DejaVuSans-79" transform="scale(0.015625)"/>
       </defs>
       <use xlink:href="#DejaVuSans-4a"/>
       <use x="29.492188" xlink:href="#DejaVuSans-75"/>
       <use x="92.871094" xlink:href="#DejaVuSans-6c"/>
       <use x="120.654297" xlink:href="#DejaVuSans-79"/>
      </g>
      <!-- 2021 -->
      <g transform="translate(192.672297 403.13225)scale(0.1 -0.1)">
       <use xlink:href="#DejaVuSans-32"/>
       <use x="63.623047" xlink:href="#DejaVuSans-30"/>
       <use x="127.246094" xlink:href="#DejaVuSans-32"/>
       <use x="190.869141" xlink:href="#DejaVuSans-31"/>
      </g>
     </g>
    </g>
    <g id="xtick_3">
     <g id="line2d_5">
      <path clip-path="url(#paf83d884c5)" d="M 298.763646 377.336 
L 298.763646 25.44 
" style="fill:none;stroke:#b0b0b0;stroke-dasharray:0.8,1.32;stroke-dashoffset:0;stroke-width:0.8;"/>
     </g>
     <g id="line2d_6">
      <g>
       <use style="stroke:#000000;stroke-width:0.8;" x="298.763646" xlink:href="#m5b4a8893d4" y="377.336"/>
      </g>
     </g>
     <g id="text_3">
      <!-- August -->
      <g transform="translate(281.266771 391.934437)scale(0.1 -0.1)">
       <defs>
        <path d="M 2188 4044 
L 1331 1722 
L 3047 1722 
L 2188 4044 
z
M 1831 4666 
L 2547 4666 
L 4325 0 
L 3669 0 
L 3244 1197 
L 1141 1197 
L 716 0 
L 50 0 
L 1831 4666 
z
" id="DejaVuSans-41" transform="scale(0.015625)"/>
        <path d="M 2906 1791 
Q 2906 2416 2648 2759 
Q 2391 3103 1925 3103 
Q 1463 3103 1205 2759 
Q 947 2416 947 1791 
Q 947 1169 1205 825 
Q 1463 481 1925 481 
Q 2391 481 2648 825 
Q 2906 1169 2906 1791 
z
M 3481 434 
Q 3481 -459 3084 -895 
Q 2688 -1331 1869 -1331 
Q 1566 -1331 1297 -1286 
Q 1028 -1241 775 -1147 
L 775 -588 
Q 1028 -725 1275 -790 
Q 1522 -856 1778 -856 
Q 2344 -856 2625 -561 
Q 2906 -266 2906 331 
L 2906 616 
Q 2728 306 2450 153 
Q 2172 0 1784 0 
Q 1141 0 747 490 
Q 353 981 353 1791 
Q 353 2603 747 3093 
Q 1141 3584 1784 3584 
Q 2172 3584 2450 3431 
Q 2728 3278 2906 2969 
L 2906 3500 
L 3481 3500 
L 3481 434 
z
" id="DejaVuSans-67" transform="scale(0.015625)"/>
        <path d="M 2834 3397 
L 2834 2853 
Q 2591 2978 2328 3040 
Q 2066 3103 1784 3103 
Q 1356 3103 1142 2972 
Q 928 2841 928 2578 
Q 928 2378 1081 2264 
Q 1234 2150 1697 2047 
L 1894 2003 
Q 2506 1872 2764 1633 
Q 3022 1394 3022 966 
Q 3022 478 2636 193 
Q 2250 -91 1575 -91 
Q 1294 -91 989 -36 
Q 684 19 347 128 
L 347 722 
Q 666 556 975 473 
Q 1284 391 1588 391 
Q 1994 391 2212 530 
Q 2431 669 2431 922 
Q 2431 1156 2273 1281 
Q 2116 1406 1581 1522 
L 1381 1569 
Q 847 1681 609 1914 
Q 372 2147 372 2553 
Q 372 3047 722 3315 
Q 1072 3584 1716 3584 
Q 2034 3584 2315 3537 
Q 2597 3491 2834 3397 
z
" id="DejaVuSans-73" transform="scale(0.015625)"/>
        <path d="M 1172 4494 
L 1172 3500 
L 2356 3500 
L 2356 3053 
L 1172 3053 
L 1172 1153 
Q 1172 725 1289 603 
Q 1406 481 1766 481 
L 2356 481 
L 2356 0 
L 1766 0 
Q 1100 0 847 248 
Q 594 497 594 1153 
L 594 3053 
L 172 3053 
L 172 3500 
L 594 3500 
L 594 4494 
L 1172 4494 
z
" id="DejaVuSans-74" transform="scale(0.015625)"/>
       </defs>
       <use xlink:href="#DejaVuSans-41"/>
       <use x="68.408203" xlink:href="#DejaVuSans-75"/>
       <use x="131.787109" xlink:href="#DejaVuSans-67"/>
       <use x="195.263672" xlink:href="#DejaVuSans-75"/>
       <use x="258.642578" xlink:href="#DejaVuSans-73"/>
       <use x="310.742188" xlink:href="#DejaVuSans-74"/>
      </g>
      <!-- 2021 -->
      <g transform="translate(286.038646 403.13225)scale(0.1 -0.1)">
       <use xlink:href="#DejaVuSans-32"/>
       <use x="63.623047" xlink:href="#DejaVuSans-30"/>
       <use x="127.246094" xlink:href="#DejaVuSans-32"/>
       <use x="190.869141" xlink:href="#DejaVuSans-31"/>
      </g>
     </g>
    </g>
    <g id="xtick_4">
     <g id="line2d_7">
      <path clip-path="url(#paf83d884c5)" d="M 392.129994 377.336 
L 392.129994 25.44 
" style="fill:none;stroke:#b0b0b0;stroke-dasharray:0.8,1.32;stroke-dashoffset:0;stroke-width:0.8;"/>
     </g>
     <g id="line2d_8">
      <g>
       <use style="stroke:#000000;stroke-width:0.8;" x="392.129994" xlink:href="#m5b4a8893d4" y="377.336"/>
      </g>
     </g>
     <g id="text_4">
      <!-- September -->
      <g transform="translate(364.491713 391.934437)scale(0.1 -0.1)">
       <defs>
        <path d="M 3425 4513 
L 3425 3897 
Q 3066 4069 2747 4153 
Q 2428 4238 2131 4238 
Q 1616 4238 1336 4038 
Q 1056 3838 1056 3469 
Q 1056 3159 1242 3001 
Q 1428 2844 1947 2747 
L 2328 2669 
Q 3034 2534 3370 2195 
Q 3706 1856 3706 1288 
Q 3706 609 3251 259 
Q 2797 -91 1919 -91 
Q 1588 -91 1214 -16 
Q 841 59 441 206 
L 441 856 
Q 825 641 1194 531 
Q 1563 422 1919 422 
Q 2459 422 2753 634 
Q 3047 847 3047 1241 
Q 3047 1584 2836 1778 
Q 2625 1972 2144 2069 
L 1759 2144 
Q 1053 2284 737 2584 
Q 422 2884 422 3419 
Q 422 4038 858 4394 
Q 1294 4750 2059 4750 
Q 2388 4750 2728 4690 
Q 3069 4631 3425 4513 
z
" id="DejaVuSans-53" transform="scale(0.015625)"/>
        <path d="M 1159 525 
L 1159 -1331 
L 581 -1331 
L 581 3500 
L 1159 3500 
L 1159 2969 
Q 1341 3281 1617 3432 
Q 1894 3584 2278 3584 
Q 2916 3584 3314 3078 
Q 3713 2572 3713 1747 
Q 3713 922 3314 415 
Q 2916 -91 2278 -91 
Q 1894 -91 1617 61 
Q 1341 213 1159 525 
z
M 3116 1747 
Q 3116 2381 2855 2742 
Q 2594 3103 2138 3103 
Q 1681 3103 1420 2742 
Q 1159 2381 1159 1747 
Q 1159 1113 1420 752 
Q 1681 391 2138 391 
Q 2594 391 2855 752 
Q 3116 1113 3116 1747 
z
" id="DejaVuSans-70" transform="scale(0.015625)"/>
        <path d="M 3328 2828 
Q 3544 3216 3844 3400 
Q 4144 3584 4550 3584 
Q 5097 3584 5394 3201 
Q 5691 2819 5691 2113 
L 5691 0 
L 5113 0 
L 5113 2094 
Q 5113 2597 4934 2840 
Q 4756 3084 4391 3084 
Q 3944 3084 3684 2787 
Q 3425 2491 3425 1978 
L 3425 0 
L 2847 0 
L 2847 2094 
Q 2847 2600 2669 2842 
Q 2491 3084 2119 3084 
Q 1678 3084 1418 2786 
Q 1159 2488 1159 1978 
L 1159 0 
L 581 0 
L 581 3500 
L 1159 3500 
L 1159 2956 
Q 1356 3278 1631 3431 
Q 1906 3584 2284 3584 
Q 2666 3584 2933 3390 
Q 3200 3197 3328 2828 
z
" id="DejaVuSans-6d" transform="scale(0.015625)"/>
        <path d="M 3116 1747 
Q 3116 2381 2855 2742 
Q 2594 3103 2138 3103 
Q 1681 3103 1420 2742 
Q 1159 2381 1159 1747 
Q 1159 1113 1420 752 
Q 1681 391 2138 391 
Q 2594 391 2855 752 
Q 3116 1113 3116 1747 
z
M 1159 2969 
Q 1341 3281 1617 3432 
Q 1894 3584 2278 3584 
Q 2916 3584 3314 3078 
Q 3713 2572 3713 1747 
Q 3713 922 3314 415 
Q 2916 -91 2278 -91 
Q 1894 -91 1617 61 
Q 1341 213 1159 525 
L 1159 0 
L 581 0 
L 581 4863 
L 1159 4863 
L 1159 2969 
z
" id="DejaVuSans-62" transform="scale(0.015625)"/>
        <path d="M 2631 2963 
Q 2534 3019 2420 3045 
Q 2306 3072 2169 3072 
Q 1681 3072 1420 2755 
Q 1159 2438 1159 1844 
L 1159 0 
L 581 0 
L 581 3500 
L 1159 3500 
L 1159 2956 
Q 1341 3275 1631 3429 
Q 1922 3584 2338 3584 
Q 2397 3584 2469 3576 
Q 2541 3569 2628 3553 
L 2631 2963 
z
" id="DejaVuSans-72" transform="scale(0.015625)"/>
       </defs>
       <use xlink:href="#DejaVuSans-53"/>
       <use x="63.476562" xlink:href="#DejaVuSans-65"/>
       <use x="125" xlink:href="#DejaVuSans-70"/>
       <use x="188.476562" xlink:href="#DejaVuSans-74"/>
       <use x="227.685547" xlink:href="#DejaVuSans-65"/>
       <use x="289.208984" xlink:href="#DejaVuSans-6d"/>
       <use x="386.621094" xlink:href="#DejaVuSans-62"/>
       <use x="450.097656" xlink:href="#DejaVuSans-65"/>
       <use x="511.621094" xlink:href="#DejaVuSans-72"/>
      </g>
      <!-- 2021 -->
      <g transform="translate(379.404994 403.13225)scale(0.1 -0.1)">
       <use xlink:href="#DejaVuSans-32"/>
       <use x="63.623047" xlink:href="#DejaVuSans-30"/>
       <use x="127.246094" xlink:href="#DejaVuSans-32"/>
       <use x="190.869141" xlink:href="#DejaVuSans-31"/>
      </g>
     </g>
    </g>
    <g id="xtick_5">
     <g id="line2d_9">
      <path clip-path="url(#paf83d884c5)" d="M 485.496342 377.336 
L 485.496342 25.44 
" style="fill:none;stroke:#b0b0b0;stroke-dasharray:0.8,1.32;stroke-dashoffset:0;stroke-width:0.8;"/>
     </g>
     <g id="line2d_10">
      <g>
       <use style="stroke:#000000;stroke-width:0.8;" x="485.496342" xlink:href="#m5b4a8893d4" y="377.336"/>
      </g>
     </g>
     <g id="text_5">
      <!-- October -->
      <g transform="translate(465.485405 391.934437)scale(0.1 -0.1)">
       <defs>
        <path d="M 2522 4238 
Q 1834 4238 1429 3725 
Q 1025 3213 1025 2328 
Q 1025 1447 1429 934 
Q 1834 422 2522 422 
Q 3209 422 3611 934 
Q 4013 1447 4013 2328 
Q 4013 3213 3611 3725 
Q 3209 4238 2522 4238 
z
M 2522 4750 
Q 3503 4750 4090 4092 
Q 4678 3434 4678 2328 
Q 4678 1225 4090 567 
Q 3503 -91 2522 -91 
Q 1538 -91 948 565 
Q 359 1222 359 2328 
Q 359 3434 948 4092 
Q 1538 4750 2522 4750 
z
" id="DejaVuSans-4f" transform="scale(0.015625)"/>
        <path d="M 3122 3366 
L 3122 2828 
Q 2878 2963 2633 3030 
Q 2388 3097 2138 3097 
Q 1578 3097 1268 2742 
Q 959 2388 959 1747 
Q 959 1106 1268 751 
Q 1578 397 2138 397 
Q 2388 397 2633 464 
Q 2878 531 3122 666 
L 3122 134 
Q 2881 22 2623 -34 
Q 2366 -91 2075 -91 
Q 1284 -91 818 406 
Q 353 903 353 1747 
Q 353 2603 823 3093 
Q 1294 3584 2113 3584 
Q 2378 3584 2631 3529 
Q 2884 3475 3122 3366 
z
" id="DejaVuSans-63" transform="scale(0.015625)"/>
        <path d="M 1959 3097 
Q 1497 3097 1228 2736 
Q 959 2375 959 1747 
Q 959 1119 1226 758 
Q 1494 397 1959 397 
Q 2419 397 2687 759 
Q 2956 1122 2956 1747 
Q 2956 2369 2687 2733 
Q 2419 3097 1959 3097 
z
M 1959 3584 
Q 2709 3584 3137 3096 
Q 3566 2609 3566 1747 
Q 3566 888 3137 398 
Q 2709 -91 1959 -91 
Q 1206 -91 779 398 
Q 353 888 353 1747 
Q 353 2609 779 3096 
Q 1206 3584 1959 3584 
z
" id="DejaVuSans-6f" transform="scale(0.015625)"/>
       </defs>
       <use xlink:href="#DejaVuSans-4f"/>
       <use x="78.710938" xlink:href="#DejaVuSans-63"/>
       <use x="133.691406" xlink:href="#DejaVuSans-74"/>
       <use x="172.900391" xlink:href="#DejaVuSans-6f"/>
       <use x="234.082031" xlink:href="#DejaVuSans-62"/>
       <use x="297.558594" xlink:href="#DejaVuSans-65"/>
       <use x="359.082031" xlink:href="#DejaVuSans-72"/>
      </g>
      <!-- 2021 -->
      <g transform="translate(472.771342 403.13225)scale(0.1 -0.1)">
       <use xlink:href="#DejaVuSans-32"/>
       <use x="63.623047" xlink:href="#DejaVuSans-30"/>
       <use x="127.246094" xlink:href="#DejaVuSans-32"/>
       <use x="190.869141" xlink:href="#DejaVuSans-31"/>
      </g>
     </g>
    </g>
    <g id="xtick_6">
     <g id="line2d_11">
      <path clip-path="url(#paf83d884c5)" d="M 578.862691 377.336 
L 578.862691 25.44 
" style="fill:none;stroke:#b0b0b0;stroke-dasharray:0.8,1.32;stroke-dashoffset:0;stroke-width:0.8;"/>
     </g>
     <g id="line2d_12">
      <g>
       <use style="stroke:#000000;stroke-width:0.8;" x="578.862691" xlink:href="#m5b4a8893d4" y="377.336"/>
      </g>
     </g>
     <g id="text_6">
      <!-- November -->
      <g transform="translate(552.850191 391.934437)scale(0.1 -0.1)">
       <defs>
        <path d="M 628 4666 
L 1478 4666 
L 3547 763 
L 3547 4666 
L 4159 4666 
L 4159 0 
L 3309 0 
L 1241 3903 
L 1241 0 
L 628 0 
L 628 4666 
z
" id="DejaVuSans-4e" transform="scale(0.015625)"/>
        <path d="M 191 3500 
L 800 3500 
L 1894 563 
L 2988 3500 
L 3597 3500 
L 2284 0 
L 1503 0 
L 191 3500 
z
" id="DejaVuSans-76" transform="scale(0.015625)"/>
       </defs>
       <use xlink:href="#DejaVuSans-4e"/>
       <use x="74.804688" xlink:href="#DejaVuSans-6f"/>
       <use x="135.986328" xlink:href="#DejaVuSans-76"/>
       <use x="195.166016" xlink:href="#DejaVuSans-65"/>
       <use x="256.689453" xlink:href="#DejaVuSans-6d"/>
       <use x="354.101562" xlink:href="#DejaVuSans-62"/>
       <use x="417.578125" xlink:href="#DejaVuSans-65"/>
       <use x="479.101562" xlink:href="#DejaVuSans-72"/>
      </g>
      <!-- 2021 -->
      <g transform="translate(566.137691 403.13225)scale(0.1 -0.1)">
       <use xlink:href="#DejaVuSans-32"/>
       <use x="63.623047" xlink:href="#DejaVuSans-30"/>
       <use x="127.246094" xlink:href="#DejaVuSans-32"/>
       <use x="190.869141" xlink:href="#DejaVuSans-31"/>
      </g>
     </g>
    </g>
    <g id="xtick_7">
     <g id="line2d_13">
      <path clip-path="url(#paf83d884c5)" d="M 672.229039 377.336 
L 672.229039 25.44 
" style="fill:none;stroke:#b0b0b0;stroke-dasharray:0.8,1.32;stroke-dashoffset:0;stroke-width:0.8;"/>
     </g>
     <g id="line2d_14">
      <g>
       <use style="stroke:#000000;stroke-width:0.8;" x="672.229039" xlink:href="#m5b4a8893d4" y="377.336"/>
      </g>
     </g>
     <g id="text_7">
      <!-- December -->
      <g transform="translate(646.300133 391.934437)scale(0.1 -0.1)">
       <defs>
        <path d="M 1259 4147 
L 1259 519 
L 2022 519 
Q 2988 519 3436 956 
Q 3884 1394 3884 2338 
Q 3884 3275 3436 3711 
Q 2988 4147 2022 4147 
L 1259 4147 
z
M 628 4666 
L 1925 4666 
Q 3281 4666 3915 4102 
Q 4550 3538 4550 2338 
Q 4550 1131 3912 565 
Q 3275 0 1925 0 
L 628 0 
L 628 4666 
z
" id="DejaVuSans-44" transform="scale(0.015625)"/>
       </defs>
       <use xlink:href="#DejaVuSans-44"/>
       <use x="77.001953" xlink:href="#DejaVuSans-65"/>
       <use x="138.525391" xlink:href="#DejaVuSans-63"/>
       <use x="193.505859" xlink:href="#DejaVuSans-65"/>
       <use x="255.029297" xlink:href="#DejaVuSans-6d"/>
       <use x="352.441406" xlink:href="#DejaVuSans-62"/>
       <use x="415.917969" xlink:href="#DejaVuSans-65"/>
       <use x="477.441406" xlink:href="#DejaVuSans-72"/>
      </g>
      <!-- 2021 -->
      <g transform="translate(659.504039 403.13225)scale(0.1 -0.1)">
       <use xlink:href="#DejaVuSans-32"/>
       <use x="63.623047" xlink:href="#DejaVuSans-30"/>
       <use x="127.246094" xlink:href="#DejaVuSans-32"/>
       <use x="190.869141" xlink:href="#DejaVuSans-31"/>
      </g>
     </g>
    </g>
    <g id="xtick_8">
     <g id="line2d_15">
      <path clip-path="url(#paf83d884c5)" d="M 765.595387 377.336 
L 765.595387 25.44 
" style="fill:none;stroke:#b0b0b0;stroke-dasharray:0.8,1.32;stroke-dashoffset:0;stroke-width:0.8;"/>
     </g>
     <g id="line2d_16">
      <g>
       <use style="stroke:#000000;stroke-width:0.8;" x="765.595387" xlink:href="#m5b4a8893d4" y="377.336"/>
      </g>
     </g>
     <g id="text_8">
      <!-- January -->
      <g transform="translate(746.639919 391.934437)scale(0.1 -0.1)">
       <defs>
        <path d="M 2194 1759 
Q 1497 1759 1228 1600 
Q 959 1441 959 1056 
Q 959 750 1161 570 
Q 1363 391 1709 391 
Q 2188 391 2477 730 
Q 2766 1069 2766 1631 
L 2766 1759 
L 2194 1759 
z
M 3341 1997 
L 3341 0 
L 2766 0 
L 2766 531 
Q 2569 213 2275 61 
Q 1981 -91 1556 -91 
Q 1019 -91 701 211 
Q 384 513 384 1019 
Q 384 1609 779 1909 
Q 1175 2209 1959 2209 
L 2766 2209 
L 2766 2266 
Q 2766 2663 2505 2880 
Q 2244 3097 1772 3097 
Q 1472 3097 1187 3025 
Q 903 2953 641 2809 
L 641 3341 
Q 956 3463 1253 3523 
Q 1550 3584 1831 3584 
Q 2591 3584 2966 3190 
Q 3341 2797 3341 1997 
z
" id="DejaVuSans-61" transform="scale(0.015625)"/>
       </defs>
       <use xlink:href="#DejaVuSans-4a"/>
       <use x="29.492188" xlink:href="#DejaVuSans-61"/>
       <use x="90.771484" xlink:href="#DejaVuSans-6e"/>
       <use x="154.150391" xlink:href="#DejaVuSans-75"/>
       <use x="217.529297" xlink:href="#DejaVuSans-61"/>
       <use x="278.808594" xlink:href="#DejaVuSans-72"/>
       <use x="319.921875" xlink:href="#DejaVuSans-79"/>
      </g>
      <!-- 2022 -->
      <g transform="translate(752.870387 403.13225)scale(0.1 -0.1)">
       <use xlink:href="#DejaVuSans-32"/>
       <use x="63.623047" xlink:href="#DejaVuSans-30"/>
       <use x="127.246094" xlink:href="#DejaVuSans-32"/>
       <use x="190.869141" xlink:href="#DejaVuSans-32"/>
      </g>
     </g>
    </g>
   </g>
   <g id="matplotlib.axis_2">
    <g id="ytick_1">
     <g id="line2d_17">
      <path clip-path="url(#paf83d884c5)" d="M 43.36 377.336 
L 835.2 377.336 
" style="fill:none;stroke:#b0b0b0;stroke-dasharray:0.8,1.32;stroke-dashoffset:0;stroke-width:0.8;"/>
     </g>
     <g id="line2d_18">
      <defs>
       <path d="M 0 0 
L -3.5 0 
" id="m564f635a3b" style="stroke:#000000;stroke-width:0.8;"/>
      </defs>
      <g>
       <use style="stroke:#000000;stroke-width:0.8;" x="43.36" xlink:href="#m564f635a3b" y="377.336"/>
      </g>
     </g>
     <g id="text_9">
      <!-- 0 -->
      <g transform="translate(29.9975 381.135219)scale(0.1 -0.1)">
       <use xlink:href="#DejaVuSans-30"/>
      </g>
     </g>
    </g>
    <g id="ytick_2">
     <g id="line2d_19">
      <path clip-path="url(#paf83d884c5)" d="M 43.36 334.836014 
L 835.2 334.836014 
" style="fill:none;stroke:#b0b0b0;stroke-dasharray:0.8,1.32;stroke-dashoffset:0;stroke-width:0.8;"/>
     </g>
     <g id="line2d_20">
      <g>
       <use style="stroke:#000000;stroke-width:0.8;" x="43.36" xlink:href="#m564f635a3b" y="334.836014"/>
      </g>
     </g>
     <g id="text_10">
      <!-- 250 -->
      <g transform="translate(17.2725 338.635233)scale(0.1 -0.1)">
       <defs>
        <path d="M 691 4666 
L 3169 4666 
L 3169 4134 
L 1269 4134 
L 1269 2991 
Q 1406 3038 1543 3061 
Q 1681 3084 1819 3084 
Q 2600 3084 3056 2656 
Q 3513 2228 3513 1497 
Q 3513 744 3044 326 
Q 2575 -91 1722 -91 
Q 1428 -91 1123 -41 
Q 819 9 494 109 
L 494 744 
Q 775 591 1075 516 
Q 1375 441 1709 441 
Q 2250 441 2565 725 
Q 2881 1009 2881 1497 
Q 2881 1984 2565 2268 
Q 2250 2553 1709 2553 
Q 1456 2553 1204 2497 
Q 953 2441 691 2322 
L 691 4666 
z
" id="DejaVuSans-35" transform="scale(0.015625)"/>
       </defs>
       <use xlink:href="#DejaVuSans-32"/>
       <use x="63.623047" xlink:href="#DejaVuSans-35"/>
       <use x="127.246094" xlink:href="#DejaVuSans-30"/>
      </g>
     </g>
    </g>
    <g id="ytick_3">
     <g id="line2d_21">
      <path clip-path="url(#paf83d884c5)" d="M 43.36 292.336028 
L 835.2 292.336028 
" style="fill:none;stroke:#b0b0b0;stroke-dasharray:0.8,1.32;stroke-dashoffset:0;stroke-width:0.8;"/>
     </g>
     <g id="line2d_22">
      <g>
       <use style="stroke:#000000;stroke-width:0.8;" x="43.36" xlink:href="#m564f635a3b" y="292.336028"/>
      </g>
     </g>
     <g id="text_11">
      <!-- 500 -->
      <g transform="translate(17.2725 296.135247)scale(0.1 -0.1)">
       <use xlink:href="#DejaVuSans-35"/>
       <use x="63.623047" xlink:href="#DejaVuSans-30"/>
       <use x="127.246094" xlink:href="#DejaVuSans-30"/>
      </g>
     </g>
    </g>
    <g id="ytick_4">
     <g id="line2d_23">
      <path clip-path="url(#paf83d884c5)" d="M 43.36 249.836043 
L 835.2 249.836043 
" style="fill:none;stroke:#b0b0b0;stroke-dasharray:0.8,1.32;stroke-dashoffset:0;stroke-width:0.8;"/>
     </g>
     <g id="line2d_24">
      <g>
       <use style="stroke:#000000;stroke-width:0.8;" x="43.36" xlink:href="#m564f635a3b" y="249.836043"/>
      </g>
     </g>
     <g id="text_12">
      <!-- 750 -->
      <g transform="translate(17.2725 253.635261)scale(0.1 -0.1)">
       <defs>
        <path d="M 525 4666 
L 3525 4666 
L 3525 4397 
L 1831 0 
L 1172 0 
L 2766 4134 
L 525 4134 
L 525 4666 
z
" id="DejaVuSans-37" transform="scale(0.015625)"/>
       </defs>
       <use xlink:href="#DejaVuSans-37"/>
       <use x="63.623047" xlink:href="#DejaVuSans-35"/>
       <use x="127.246094" xlink:href="#DejaVuSans-30"/>
      </g>
     </g>
    </g>
    <g id="ytick_5">
     <g id="line2d_25">
      <path clip-path="url(#paf83d884c5)" d="M 43.36 207.336057 
L 835.2 207.336057 
" style="fill:none;stroke:#b0b0b0;stroke-dasharray:0.8,1.32;stroke-dashoffset:0;stroke-width:0.8;"/>
     </g>
     <g id="line2d_26">
      <g>
       <use style="stroke:#000000;stroke-width:0.8;" x="43.36" xlink:href="#m564f635a3b" y="207.336057"/>
      </g>
     </g>
     <g id="text_13">
      <!-- 1000 -->
      <g transform="translate(10.91 211.135275)scale(0.1 -0.1)">
       <use xlink:href="#DejaVuSans-31"/>
       <use x="63.623047" xlink:href="#DejaVuSans-30"/>
       <use x="127.246094" xlink:href="#DejaVuSans-30"/>
       <use x="190.869141" xlink:href="#DejaVuSans-30"/>
      </g>
     </g>
    </g>
    <g id="ytick_6">
     <g id="line2d_27">
      <path clip-path="url(#paf83d884c5)" d="M 43.36 164.836071 
L 835.2 164.836071 
" style="fill:none;stroke:#b0b0b0;stroke-dasharray:0.8,1.32;stroke-dashoffset:0;stroke-width:0.8;"/>
     </g>
     <g id="line2d_28">
      <g>
       <use style="stroke:#000000;stroke-width:0.8;" x="43.36" xlink:href="#m564f635a3b" y="164.836071"/>
      </g>
     </g>
     <g id="text_14">
      <!-- 1250 -->
      <g transform="translate(10.91 168.63529)scale(0.1 -0.1)">
       <use xlink:href="#DejaVuSans-31"/>
       <use x="63.623047" xlink:href="#DejaVuSans-32"/>
       <use x="127.246094" xlink:href="#DejaVuSans-35"/>
       <use x="190.869141" xlink:href="#DejaVuSans-30"/>
      </g>
     </g>
    </g>
    <g id="ytick_7">
     <g id="line2d_29">
      <path clip-path="url(#paf83d884c5)" d="M 43.36 122.336085 
L 835.2 122.336085 
" style="fill:none;stroke:#b0b0b0;stroke-dasharray:0.8,1.32;stroke-dashoffset:0;stroke-width:0.8;"/>
     </g>
     <g id="line2d_30">
      <g>
       <use style="stroke:#000000;stroke-width:0.8;" x="43.36" xlink:href="#m564f635a3b" y="122.336085"/>
      </g>
     </g>
     <g id="text_15">
      <!-- 1500 -->
      <g transform="translate(10.91 126.135304)scale(0.1 -0.1)">
       <use xlink:href="#DejaVuSans-31"/>
       <use x="63.623047" xlink:href="#DejaVuSans-35"/>
       <use x="127.246094" xlink:href="#DejaVuSans-30"/>
       <use x="190.869141" xlink:href="#DejaVuSans-30"/>
      </g>
     </g>
    </g>
    <g id="ytick_8">
     <g id="line2d_31">
      <path clip-path="url(#paf83d884c5)" d="M 43.36 79.836099 
L 835.2 79.836099 
" style="fill:none;stroke:#b0b0b0;stroke-dasharray:0.8,1.32;stroke-dashoffset:0;stroke-width:0.8;"/>
     </g>
     <g id="line2d_32">
      <g>
       <use style="stroke:#000000;stroke-width:0.8;" x="43.36" xlink:href="#m564f635a3b" y="79.836099"/>
      </g>
     </g>
     <g id="text_16">
      <!-- 1750 -->
      <g transform="translate(10.91 83.635318)scale(0.1 -0.1)">
       <use xlink:href="#DejaVuSans-31"/>
       <use x="63.623047" xlink:href="#DejaVuSans-37"/>
       <use x="127.246094" xlink:href="#DejaVuSans-35"/>
       <use x="190.869141" xlink:href="#DejaVuSans-30"/>
      </g>
     </g>
    </g>
    <g id="ytick_9">
     <g id="line2d_33">
      <path clip-path="url(#paf83d884c5)" d="M 43.36 37.336113 
L 835.2 37.336113 
" style="fill:none;stroke:#b0b0b0;stroke-dasharray:0.8,1.32;stroke-dashoffset:0;stroke-width:0.8;"/>
     </g>
     <g id="line2d_34">
      <g>
       <use style="stroke:#000000;stroke-width:0.8;" x="43.36" xlink:href="#m564f635a3b" y="37.336113"/>
      </g>
     </g>
     <g id="text_17">
      <!-- 2000 -->
      <g transform="translate(10.91 41.135332)scale(0.1 -0.1)">
       <use xlink:href="#DejaVuSans-32"/>
       <use x="63.623047" xlink:href="#DejaVuSans-30"/>
       <use x="127.246094" xlink:href="#DejaVuSans-30"/>
       <use x="190.869141" xlink:href="#DejaVuSans-30"/>
      </g>
     </g>
    </g>
   </g>
   <g id="patch_75">
    <path d="M 43.36 377.336 
L 43.36 25.44 
" style="fill:none;stroke:#000000;stroke-linecap:square;stroke-linejoin:miter;stroke-width:0.8;"/>
   </g>
   <g id="patch_76">
    <path d="M 835.2 377.336 
L 835.2 25.44 
" style="fill:none;stroke:#000000;stroke-linecap:square;stroke-linejoin:miter;stroke-width:0.8;"/>
   </g>
   <g id="patch_77">
    <path d="M 43.36 377.336 
L 835.2 377.336 
" style="fill:none;stroke:#000000;stroke-linecap:square;stroke-linejoin:miter;stroke-width:0.8;"/>
   </g>
   <g id="patch_78">
    <path d="M 43.36 25.44 
L 835.2 25.44 
" style="fill:none;stroke:#000000;stroke-linecap:square;stroke-linejoin:miter;stroke-width:0.8;"/>
   </g>
   <g id="text_18">
    <!-- 50% -->
    <g style="fill:#add8e6;" transform="translate(86.355203 62.374332)scale(0.1 -0.1)">
     <defs>
      <path d="M 678 4666 
L 3669 4666 
L 3669 3781 
L 1638 3781 
L 1638 3059 
Q 1775 3097 1914 3117 
Q 2053 3138 2203 3138 
Q 3056 3138 3531 2711 
Q 4006 2284 4006 1522 
Q 4006 766 3489 337 
Q 2972 -91 2053 -91 
Q 1656 -91 1267 -14 
Q 878 63 494 219 
L 494 1166 
Q 875 947 1217 837 
Q 1559 728 1863 728 
Q 2300 728 2551 942 
Q 2803 1156 2803 1522 
Q 2803 1891 2551 2103 
Q 2300 2316 1863 2316 
Q 1603 2316 1309 2248 
Q 1016 2181 678 2041 
L 678 4666 
z
" id="DejaVuSans-Bold-35" transform="scale(0.015625)"/>
      <path d="M 2944 2338 
Q 2944 3213 2780 3570 
Q 2616 3928 2228 3928 
Q 1841 3928 1675 3570 
Q 1509 3213 1509 2338 
Q 1509 1453 1675 1090 
Q 1841 728 2228 728 
Q 2613 728 2778 1090 
Q 2944 1453 2944 2338 
z
M 4147 2328 
Q 4147 1169 3647 539 
Q 3147 -91 2228 -91 
Q 1306 -91 806 539 
Q 306 1169 306 2328 
Q 306 3491 806 4120 
Q 1306 4750 2228 4750 
Q 3147 4750 3647 4120 
Q 4147 3491 4147 2328 
z
" id="DejaVuSans-Bold-30" transform="scale(0.015625)"/>
      <path d="M 4959 1925 
Q 4738 1925 4616 1733 
Q 4494 1541 4494 1184 
Q 4494 825 4614 633 
Q 4734 441 4959 441 
Q 5184 441 5303 633 
Q 5422 825 5422 1184 
Q 5422 1541 5301 1733 
Q 5181 1925 4959 1925 
z
M 4959 2450 
Q 5541 2450 5875 2112 
Q 6209 1775 6209 1184 
Q 6209 594 5875 251 
Q 5541 -91 4959 -91 
Q 4378 -91 4042 251 
Q 3706 594 3706 1184 
Q 3706 1772 4042 2111 
Q 4378 2450 4959 2450 
z
M 2094 -91 
L 1403 -91 
L 4319 4750 
L 5013 4750 
L 2094 -91 
z
M 1453 4750 
Q 2034 4750 2367 4411 
Q 2700 4072 2700 3481 
Q 2700 2891 2367 2550 
Q 2034 2209 1453 2209 
Q 872 2209 539 2550 
Q 206 2891 206 3481 
Q 206 4072 539 4411 
Q 872 4750 1453 4750 
z
M 1453 4225 
Q 1228 4225 1106 4031 
Q 984 3838 984 3481 
Q 984 3122 1106 2926 
Q 1228 2731 1453 2731 
Q 1678 2731 1798 2926 
Q 1919 3122 1919 3481 
Q 1919 3838 1797 4031 
Q 1675 4225 1453 4225 
z
" id="DejaVuSans-Bold-25" transform="scale(0.015625)"/>
     </defs>
     <use xlink:href="#DejaVuSans-Bold-35"/>
     <use x="69.580078" xlink:href="#DejaVuSans-Bold-30"/>
     <use x="139.160156" xlink:href="#DejaVuSans-Bold-25"/>
    </g>
   </g>
   <g id="text_19">
    <!-- 51% -->
    <g style="fill:#add8e6;" transform="translate(179.721552 38.796954)scale(0.1 -0.1)">
     <defs>
      <path d="M 750 831 
L 1813 831 
L 1813 3847 
L 722 3622 
L 722 4441 
L 1806 4666 
L 2950 4666 
L 2950 831 
L 4013 831 
L 4013 0 
L 750 0 
L 750 831 
z
" id="DejaVuSans-Bold-31" transform="scale(0.015625)"/>
     </defs>
     <use xlink:href="#DejaVuSans-Bold-35"/>
     <use x="69.580078" xlink:href="#DejaVuSans-Bold-31"/>
     <use x="139.160156" xlink:href="#DejaVuSans-Bold-25"/>
    </g>
   </g>
   <g id="text_20">
    <!-- 56% -->
    <g style="fill:#add8e6;" transform="translate(273.0879 56.685086)scale(0.1 -0.1)">
     <defs>
      <path d="M 2316 2303 
Q 2000 2303 1842 2098 
Q 1684 1894 1684 1484 
Q 1684 1075 1842 870 
Q 2000 666 2316 666 
Q 2634 666 2792 870 
Q 2950 1075 2950 1484 
Q 2950 1894 2792 2098 
Q 2634 2303 2316 2303 
z
M 3803 4544 
L 3803 3681 
Q 3506 3822 3243 3889 
Q 2981 3956 2731 3956 
Q 2194 3956 1894 3657 
Q 1594 3359 1544 2772 
Q 1750 2925 1990 3001 
Q 2231 3078 2516 3078 
Q 3231 3078 3670 2659 
Q 4109 2241 4109 1563 
Q 4109 813 3618 361 
Q 3128 -91 2303 -91 
Q 1394 -91 895 523 
Q 397 1138 397 2266 
Q 397 3422 980 4083 
Q 1563 4744 2578 4744 
Q 2900 4744 3203 4694 
Q 3506 4644 3803 4544 
z
" id="DejaVuSans-Bold-36" transform="scale(0.015625)"/>
     </defs>
     <use xlink:href="#DejaVuSans-Bold-35"/>
     <use x="69.580078" xlink:href="#DejaVuSans-Bold-36"/>
     <use x="139.160156" xlink:href="#DejaVuSans-Bold-25"/>
    </g>
   </g>
   <g id="text_21">
    <!-- 60% -->
    <g style="fill:#add8e6;" transform="translate(366.454248 179.152976)scale(0.1 -0.1)">
     <use xlink:href="#DejaVuSans-Bold-36"/>
     <use x="69.580078" xlink:href="#DejaVuSans-Bold-30"/>
     <use x="139.160156" xlink:href="#DejaVuSans-Bold-25"/>
    </g>
   </g>
   <g id="text_22">
    <!-- 79% -->
    <g style="fill:#add8e6;" transform="translate(459.820597 188.059373)scale(0.1 -0.1)">
     <defs>
      <path d="M 428 4666 
L 3944 4666 
L 3944 3988 
L 2125 0 
L 953 0 
L 2675 3781 
L 428 3781 
L 428 4666 
z
" id="DejaVuSans-Bold-37" transform="scale(0.015625)"/>
      <path d="M 641 103 
L 641 966 
Q 928 831 1190 764 
Q 1453 697 1709 697 
Q 2247 697 2547 995 
Q 2847 1294 2900 1881 
Q 2688 1725 2447 1647 
Q 2206 1569 1925 1569 
Q 1209 1569 770 1986 
Q 331 2403 331 3084 
Q 331 3838 820 4291 
Q 1309 4744 2131 4744 
Q 3044 4744 3544 4128 
Q 4044 3513 4044 2388 
Q 4044 1231 3459 570 
Q 2875 -91 1856 -91 
Q 1528 -91 1228 -42 
Q 928 6 641 103 
z
M 2125 2350 
Q 2441 2350 2600 2554 
Q 2759 2759 2759 3169 
Q 2759 3575 2600 3781 
Q 2441 3988 2125 3988 
Q 1809 3988 1650 3781 
Q 1491 3575 1491 3169 
Q 1491 2759 1650 2554 
Q 1809 2350 2125 2350 
z
" id="DejaVuSans-Bold-39" transform="scale(0.015625)"/>
     </defs>
     <use xlink:href="#DejaVuSans-Bold-37"/>
     <use x="69.580078" xlink:href="#DejaVuSans-Bold-39"/>
     <use x="139.160156" xlink:href="#DejaVuSans-Bold-25"/>
    </g>
   </g>
   <g id="text_23">
    <!-- 82% -->
    <g style="fill:#add8e6;" transform="translate(553.186945 236.810585)scale(0.1 -0.1)">
     <defs>
      <path d="M 2228 2088 
Q 1891 2088 1709 1903 
Q 1528 1719 1528 1375 
Q 1528 1031 1709 848 
Q 1891 666 2228 666 
Q 2563 666 2741 848 
Q 2919 1031 2919 1375 
Q 2919 1722 2741 1905 
Q 2563 2088 2228 2088 
z
M 1350 2484 
Q 925 2613 709 2878 
Q 494 3144 494 3541 
Q 494 4131 934 4440 
Q 1375 4750 2228 4750 
Q 3075 4750 3515 4442 
Q 3956 4134 3956 3541 
Q 3956 3144 3739 2878 
Q 3522 2613 3097 2484 
Q 3572 2353 3814 2058 
Q 4056 1763 4056 1313 
Q 4056 619 3595 264 
Q 3134 -91 2228 -91 
Q 1319 -91 855 264 
Q 391 619 391 1313 
Q 391 1763 633 2058 
Q 875 2353 1350 2484 
z
M 1631 3419 
Q 1631 3141 1786 2991 
Q 1941 2841 2228 2841 
Q 2509 2841 2662 2991 
Q 2816 3141 2816 3419 
Q 2816 3697 2662 3845 
Q 2509 3994 2228 3994 
Q 1941 3994 1786 3844 
Q 1631 3694 1631 3419 
z
" id="DejaVuSans-Bold-38" transform="scale(0.015625)"/>
      <path d="M 1844 884 
L 3897 884 
L 3897 0 
L 506 0 
L 506 884 
L 2209 2388 
Q 2438 2594 2547 2791 
Q 2656 2988 2656 3200 
Q 2656 3528 2436 3728 
Q 2216 3928 1850 3928 
Q 1569 3928 1234 3808 
Q 900 3688 519 3450 
L 519 4475 
Q 925 4609 1322 4679 
Q 1719 4750 2100 4750 
Q 2938 4750 3402 4381 
Q 3866 4013 3866 3353 
Q 3866 2972 3669 2642 
Q 3472 2313 2841 1759 
L 1844 884 
z
" id="DejaVuSans-Bold-32" transform="scale(0.015625)"/>
     </defs>
     <use xlink:href="#DejaVuSans-Bold-38"/>
     <use x="69.580078" xlink:href="#DejaVuSans-Bold-32"/>
     <use x="139.160156" xlink:href="#DejaVuSans-Bold-25"/>
    </g>
   </g>
   <g id="text_24">
    <!-- 74% -->
    <g style="fill:#add8e6;" transform="translate(646.553293 223.477973)scale(0.1 -0.1)">
     <defs>
      <path d="M 2356 3675 
L 1038 1722 
L 2356 1722 
L 2356 3675 
z
M 2156 4666 
L 3494 4666 
L 3494 1722 
L 4159 1722 
L 4159 850 
L 3494 850 
L 3494 0 
L 2356 0 
L 2356 850 
L 288 850 
L 288 1881 
L 2156 4666 
z
" id="DejaVuSans-Bold-34" transform="scale(0.015625)"/>
     </defs>
     <use xlink:href="#DejaVuSans-Bold-37"/>
     <use x="69.580078" xlink:href="#DejaVuSans-Bold-34"/>
     <use x="139.160156" xlink:href="#DejaVuSans-Bold-25"/>
    </g>
   </g>
   <g id="text_25">
    <!-- 79% -->
    <g style="fill:#add8e6;" transform="translate(739.919642 232.527124)scale(0.1 -0.1)">
     <use xlink:href="#DejaVuSans-Bold-37"/>
     <use x="69.580078" xlink:href="#DejaVuSans-Bold-39"/>
     <use x="139.160156" xlink:href="#DejaVuSans-Bold-25"/>
    </g>
   </g>
   <g id="text_26">
    <!-- Energy consumption distribution -->
    <g transform="translate(341.42 19.44)scale(0.12 -0.12)">
     <defs>
      <path d="M 628 4666 
L 3578 4666 
L 3578 4134 
L 1259 4134 
L 1259 2753 
L 3481 2753 
L 3481 2222 
L 1259 2222 
L 1259 531 
L 3634 531 
L 3634 0 
L 628 0 
L 628 4666 
z
" id="DejaVuSans-45" transform="scale(0.015625)"/>
      <path id="DejaVuSans-20" transform="scale(0.015625)"/>
      <path d="M 603 3500 
L 1178 3500 
L 1178 0 
L 603 0 
L 603 3500 
z
M 603 4863 
L 1178 4863 
L 1178 4134 
L 603 4134 
L 603 4863 
z
" id="DejaVuSans-69" transform="scale(0.015625)"/>
      <path d="M 2906 2969 
L 2906 4863 
L 3481 4863 
L 3481 0 
L 2906 0 
L 2906 525 
Q 2725 213 2448 61 
Q 2172 -91 1784 -91 
Q 1150 -91 751 415 
Q 353 922 353 1747 
Q 353 2572 751 3078 
Q 1150 3584 1784 3584 
Q 2172 3584 2448 3432 
Q 2725 3281 2906 2969 
z
M 947 1747 
Q 947 1113 1208 752 
Q 1469 391 1925 391 
Q 2381 391 2643 752 
Q 2906 1113 2906 1747 
Q 2906 2381 2643 2742 
Q 2381 3103 1925 3103 
Q 1469 3103 1208 2742 
Q 947 2381 947 1747 
z
" id="DejaVuSans-64" transform="scale(0.015625)"/>
     </defs>
     <use xlink:href="#DejaVuSans-45"/>
     <use x="63.183594" xlink:href="#DejaVuSans-6e"/>
     <use x="126.5625" xlink:href="#DejaVuSans-65"/>
     <use x="188.085938" xlink:href="#DejaVuSans-72"/>
     <use x="227.449219" xlink:href="#DejaVuSans-67"/>
     <use x="290.925781" xlink:href="#DejaVuSans-79"/>
     <use x="350.105469" xlink:href="#DejaVuSans-20"/>
     <use x="381.892578" xlink:href="#DejaVuSans-63"/>
     <use x="436.873047" xlink:href="#DejaVuSans-6f"/>
     <use x="498.054688" xlink:href="#DejaVuSans-6e"/>
     <use x="561.433594" xlink:href="#DejaVuSans-73"/>
     <use x="613.533203" xlink:href="#DejaVuSans-75"/>
     <use x="676.912109" xlink:href="#DejaVuSans-6d"/>
     <use x="774.324219" xlink:href="#DejaVuSans-70"/>
     <use x="837.800781" xlink:href="#DejaVuSans-74"/>
     <use x="877.009766" xlink:href="#DejaVuSans-69"/>
     <use x="904.792969" xlink:href="#DejaVuSans-6f"/>
     <use x="965.974609" xlink:href="#DejaVuSans-6e"/>
     <use x="1029.353516" xlink:href="#DejaVuSans-20"/>
     <use x="1061.140625" xlink:href="#DejaVuSans-64"/>
     <use x="1124.617188" xlink:href="#DejaVuSans-69"/>
     <use x="1152.400391" xlink:href="#DejaVuSans-73"/>
     <use x="1204.5" xlink:href="#DejaVuSans-74"/>
     <use x="1243.708984" xlink:href="#DejaVuSans-72"/>
     <use x="1284.822266" xlink:href="#DejaVuSans-69"/>
     <use x="1312.605469" xlink:href="#DejaVuSans-62"/>
     <use x="1376.082031" xlink:href="#DejaVuSans-75"/>
     <use x="1439.460938" xlink:href="#DejaVuSans-74"/>
     <use x="1478.669922" xlink:href="#DejaVuSans-69"/>
     <use x="1506.453125" xlink:href="#DejaVuSans-6f"/>
     <use x="1567.634766" xlink:href="#DejaVuSans-6e"/>
    </g>
   </g>
   <g id="legend_1">
    <g id="patch_79">
     <path d="M 630.760937 165.82125 
L 828.2 165.82125 
Q 830.2 165.82125 830.2 163.82125 
L 830.2 32.44 
Q 830.2 30.44 828.2 30.44 
L 630.760937 30.44 
Q 628.760937 30.44 628.760937 32.44 
L 628.760937 163.82125 
Q 628.760937 165.82125 630.760937 165.82125 
z
" style="fill:#ffffff;opacity:0.8;stroke:#cccccc;stroke-linejoin:miter;"/>
    </g>
    <g id="patch_80">
     <path d="M 632.760937 42.038437 
L 652.760937 42.038437 
L 652.760937 35.038437 
L 632.760937 35.038437 
z
" style="fill:#add8e6;"/>
    </g>
    <g id="text_27">
     <!-- Energy from the solar production -->
     <g transform="translate(660.760937 42.038437)scale(0.1 -0.1)">
      <defs>
       <path d="M 2375 4863 
L 2375 4384 
L 1825 4384 
Q 1516 4384 1395 4259 
Q 1275 4134 1275 3809 
L 1275 3500 
L 2222 3500 
L 2222 3053 
L 1275 3053 
L 1275 0 
L 697 0 
L 697 3053 
L 147 3053 
L 147 3500 
L 697 3500 
L 697 3744 
Q 697 4328 969 4595 
Q 1241 4863 1831 4863 
L 2375 4863 
z
" id="DejaVuSans-66" transform="scale(0.015625)"/>
       <path d="M 3513 2113 
L 3513 0 
L 2938 0 
L 2938 2094 
Q 2938 2591 2744 2837 
Q 2550 3084 2163 3084 
Q 1697 3084 1428 2787 
Q 1159 2491 1159 1978 
L 1159 0 
L 581 0 
L 581 4863 
L 1159 4863 
L 1159 2956 
Q 1366 3272 1645 3428 
Q 1925 3584 2291 3584 
Q 2894 3584 3203 3211 
Q 3513 2838 3513 2113 
z
" id="DejaVuSans-68" transform="scale(0.015625)"/>
      </defs>
      <use xlink:href="#DejaVuSans-45"/>
      <use x="63.183594" xlink:href="#DejaVuSans-6e"/>
      <use x="126.5625" xlink:href="#DejaVuSans-65"/>
      <use x="188.085938" xlink:href="#DejaVuSans-72"/>
      <use x="227.449219" xlink:href="#DejaVuSans-67"/>
      <use x="290.925781" xlink:href="#DejaVuSans-79"/>
      <use x="350.105469" xlink:href="#DejaVuSans-20"/>
      <use x="381.892578" xlink:href="#DejaVuSans-66"/>
      <use x="417.097656" xlink:href="#DejaVuSans-72"/>
      <use x="455.960938" xlink:href="#DejaVuSans-6f"/>
      <use x="517.142578" xlink:href="#DejaVuSans-6d"/>
      <use x="614.554688" xlink:href="#DejaVuSans-20"/>
      <use x="646.341797" xlink:href="#DejaVuSans-74"/>
      <use x="685.550781" xlink:href="#DejaVuSans-68"/>
      <use x="748.929688" xlink:href="#DejaVuSans-65"/>
      <use x="810.453125" xlink:href="#DejaVuSans-20"/>
      <use x="842.240234" xlink:href="#DejaVuSans-73"/>
      <use x="894.339844" xlink:href="#DejaVuSans-6f"/>
      <use x="955.521484" xlink:href="#DejaVuSans-6c"/>
      <use x="983.304688" xlink:href="#DejaVuSans-61"/>
      <use x="1044.583984" xlink:href="#DejaVuSans-72"/>
      <use x="1085.697266" xlink:href="#DejaVuSans-20"/>
      <use x="1117.484375" xlink:href="#DejaVuSans-70"/>
      <use x="1180.960938" xlink:href="#DejaVuSans-72"/>
      <use x="1219.824219" xlink:href="#DejaVuSans-6f"/>
      <use x="1281.005859" xlink:href="#DejaVuSans-64"/>
      <use x="1344.482422" xlink:href="#DejaVuSans-75"/>
      <use x="1407.861328" xlink:href="#DejaVuSans-63"/>
      <use x="1462.841797" xlink:href="#DejaVuSans-74"/>
      <use x="1502.050781" xlink:href="#DejaVuSans-69"/>
      <use x="1529.833984" xlink:href="#DejaVuSans-6f"/>
      <use x="1591.015625" xlink:href="#DejaVuSans-6e"/>
     </g>
    </g>
    <g id="patch_81">
     <path d="M 632.760937 56.716563 
L 652.760937 56.716563 
L 652.760937 49.716563 
L 632.760937 49.716563 
z
" style="fill:#f08080;"/>
    </g>
    <g id="text_28">
     <!-- Energy from the grid -->
     <g transform="translate(660.760937 56.716563)scale(0.1 -0.1)">
      <use xlink:href="#DejaVuSans-45"/>
      <use x="63.183594" xlink:href="#DejaVuSans-6e"/>
      <use x="126.5625" xlink:href="#DejaVuSans-65"/>
      <use x="188.085938" xlink:href="#DejaVuSans-72"/>
      <use x="227.449219" xlink:href="#DejaVuSans-67"/>
      <use x="290.925781" xlink:href="#DejaVuSans-79"/>
      <use x="350.105469" xlink:href="#DejaVuSans-20"/>
      <use x="381.892578" xlink:href="#DejaVuSans-66"/>
      <use x="417.097656" xlink:href="#DejaVuSans-72"/>
      <use x="455.960938" xlink:href="#DejaVuSans-6f"/>
      <use x="517.142578" xlink:href="#DejaVuSans-6d"/>
      <use x="614.554688" xlink:href="#DejaVuSans-20"/>
      <use x="646.341797" xlink:href="#DejaVuSans-74"/>
      <use x="685.550781" xlink:href="#DejaVuSans-68"/>
      <use x="748.929688" xlink:href="#DejaVuSans-65"/>
      <use x="810.453125" xlink:href="#DejaVuSans-20"/>
      <use x="842.240234" xlink:href="#DejaVuSans-67"/>
      <use x="905.716797" xlink:href="#DejaVuSans-72"/>
      <use x="946.830078" xlink:href="#DejaVuSans-69"/>
      <use x="974.613281" xlink:href="#DejaVuSans-64"/>
     </g>
    </g>
    <g id="patch_82">
     <path d="M 632.760937 71.394687 
L 652.760937 71.394687 
L 652.760937 64.394687 
L 632.760937 64.394687 
z
" style="fill:#1f77b4;"/>
    </g>
    <g id="text_29">
     <!-- pool -->
     <g transform="translate(660.760937 71.394687)scale(0.1 -0.1)">
      <use xlink:href="#DejaVuSans-70"/>
      <use x="63.476562" xlink:href="#DejaVuSans-6f"/>
      <use x="124.658203" xlink:href="#DejaVuSans-6f"/>
      <use x="185.839844" xlink:href="#DejaVuSans-6c"/>
     </g>
    </g>
    <g id="patch_83">
     <path d="M 632.760937 86.072812 
L 652.760937 86.072812 
L 652.760937 79.072812 
L 632.760937 79.072812 
z
" style="fill:#ffd700;"/>
    </g>
    <g id="text_30">
     <!-- water_heater -->
     <g transform="translate(660.760937 86.072812)scale(0.1 -0.1)">
      <defs>
       <path d="M 269 3500 
L 844 3500 
L 1563 769 
L 2278 3500 
L 2956 3500 
L 3675 769 
L 4391 3500 
L 4966 3500 
L 4050 0 
L 3372 0 
L 2619 2869 
L 1863 0 
L 1184 0 
L 269 3500 
z
" id="DejaVuSans-77" transform="scale(0.015625)"/>
       <path d="M 3263 -1063 
L 3263 -1509 
L -63 -1509 
L -63 -1063 
L 3263 -1063 
z
" id="DejaVuSans-5f" transform="scale(0.015625)"/>
      </defs>
      <use xlink:href="#DejaVuSans-77"/>
      <use x="81.787109" xlink:href="#DejaVuSans-61"/>
      <use x="143.066406" xlink:href="#DejaVuSans-74"/>
      <use x="182.275391" xlink:href="#DejaVuSans-65"/>
      <use x="243.798828" xlink:href="#DejaVuSans-72"/>
      <use x="284.912109" xlink:href="#DejaVuSans-5f"/>
      <use x="334.912109" xlink:href="#DejaVuSans-68"/>
      <use x="398.291016" xlink:href="#DejaVuSans-65"/>
      <use x="459.814453" xlink:href="#DejaVuSans-61"/>
      <use x="521.09375" xlink:href="#DejaVuSans-74"/>
      <use x="560.302734" xlink:href="#DejaVuSans-65"/>
      <use x="621.826172" xlink:href="#DejaVuSans-72"/>
     </g>
    </g>
    <g id="patch_84">
     <path d="M 632.760937 101.029063 
L 652.760937 101.029063 
L 652.760937 94.029063 
L 632.760937 94.029063 
z
" style="fill:#17becf;"/>
    </g>
    <g id="text_31">
     <!-- hvac -->
     <g transform="translate(660.760937 101.029063)scale(0.1 -0.1)">
      <use xlink:href="#DejaVuSans-68"/>
      <use x="63.378906" xlink:href="#DejaVuSans-76"/>
      <use x="122.558594" xlink:href="#DejaVuSans-61"/>
      <use x="183.837891" xlink:href="#DejaVuSans-63"/>
     </g>
    </g>
    <g id="patch_85">
     <path d="M 632.760937 115.707188 
L 652.760937 115.707188 
L 652.760937 108.707188 
L 632.760937 108.707188 
z
" style="fill:#d62728;"/>
    </g>
    <g id="text_32">
     <!-- range -->
     <g transform="translate(660.760937 115.707188)scale(0.1 -0.1)">
      <use xlink:href="#DejaVuSans-72"/>
      <use x="41.113281" xlink:href="#DejaVuSans-61"/>
      <use x="102.392578" xlink:href="#DejaVuSans-6e"/>
      <use x="165.771484" xlink:href="#DejaVuSans-67"/>
      <use x="229.248047" xlink:href="#DejaVuSans-65"/>
     </g>
    </g>
    <g id="patch_86">
     <path d="M 632.760937 130.385312 
L 652.760937 130.385312 
L 652.760937 123.385312 
L 632.760937 123.385312 
z
" style="fill:#2ca02c;"/>
    </g>
    <g id="text_33">
     <!-- ev -->
     <g transform="translate(660.760937 130.385312)scale(0.1 -0.1)">
      <use xlink:href="#DejaVuSans-65"/>
      <use x="61.523438" xlink:href="#DejaVuSans-76"/>
     </g>
    </g>
    <g id="patch_87">
     <path d="M 632.760937 145.063437 
L 652.760937 145.063437 
L 652.760937 138.063437 
L 632.760937 138.063437 
z
" style="fill:#ff7f0e;"/>
    </g>
    <g id="text_34">
     <!-- dryer -->
     <g transform="translate(660.760937 145.063437)scale(0.1 -0.1)">
      <use xlink:href="#DejaVuSans-64"/>
      <use x="63.476562" xlink:href="#DejaVuSans-72"/>
      <use x="104.589844" xlink:href="#DejaVuSans-79"/>
      <use x="163.769531" xlink:href="#DejaVuSans-65"/>
      <use x="225.292969" xlink:href="#DejaVuSans-72"/>
     </g>
    </g>
    <g id="patch_88">
     <path d="M 632.760937 159.741562 
L 652.760937 159.741562 
L 652.760937 152.741562 
L 632.760937 152.741562 
z
" style="fill:#d3d3d3;"/>
    </g>
    <g id="text_35">
     <!-- other -->
     <g transform="translate(660.760937 159.741562)scale(0.1 -0.1)">
      <use xlink:href="#DejaVuSans-6f"/>
      <use x="61.181641" xlink:href="#DejaVuSans-74"/>
      <use x="100.390625" xlink:href="#DejaVuSans-68"/>
      <use x="163.769531" xlink:href="#DejaVuSans-65"/>
      <use x="225.292969" xlink:href="#DejaVuSans-72"/>
     </g>
    </g>
   </g>
  </g>
 </g>
 <defs>
  <clipPath id="paf83d884c5">
   <rect height="351.896" width="791.84" x="43.36" y="25.44"/>
  </clipPath>
 </defs>
</svg>
