<?xml version="1.0" encoding="utf-8" standalone="no"?>
<!DOCTYPE svg PUBLIC "-//W3C//DTD SVG 1.1//EN"
  "http://www.w3.org/Graphics/SVG/1.1/DTD/svg11.dtd">
<svg height="354.96pt" version="1.1" viewBox="0 0 720 354.96" width="720pt" xmlns="http://www.w3.org/2000/svg" xmlns:xlink="http://www.w3.org/1999/xlink">
 <metadata>
  <rdf:RDF xmlns:cc="http://creativecommons.org/ns#" xmlns:dc="http://purl.org/dc/elements/1.1/" xmlns:rdf="http://www.w3.org/1999/02/22-rdf-syntax-ns#">
   <cc:Work>
    <dc:type rdf:resource="http://purl.org/dc/dcmitype/StillImage"/>
    <dc:date>2022-02-24T14:31:09.071484</dc:date>
    <dc:format>image/svg+xml</dc:format>
    <dc:creator>
     <cc:Agent>
      <dc:title>Matplotlib v3.4.3, https://matplotlib.org/</dc:title>
     </cc:Agent>
    </dc:creator>
   </cc:Work>
  </rdf:RDF>
 </metadata>
 <defs>
  <style type="text/css">*{stroke-linecap:butt;stroke-linejoin:round;}</style>
 </defs>
 <g id="figure_1">
  <g id="patch_1">
   <path d="M 0 354.96 
L 720 354.96 
L 720 0 
L 0 0 
z
" style="fill:#ffffff;"/>
  </g>
  <g id="axes_1">
   <g id="patch_2">
    <path d="M 44.66 313 
L 689.42 313 
L 689.42 25.44 
L 44.66 25.44 
z
" style="fill:#ffffff;"/>
   </g>
   <g id="patch_3">
    <path clip-path="url(#pa4fbe9d0e6)" d="M 110.85536 313 
L 110.85536 25.44 
L 126.3296 25.44 
L 126.3296 313 
z
" style="fill:#ffc0cb;"/>
   </g>
   <g id="patch_4">
    <path clip-path="url(#pa4fbe9d0e6)" d="M 194.24432 313 
L 194.24432 25.44 
L 224.33312 25.44 
L 224.33312 313 
z
" style="fill:#ffc0cb;"/>
   </g>
   <g id="patch_5">
    <path clip-path="url(#pa4fbe9d0e6)" d="M 272.4752 313 
L 272.4752 25.44 
L 282.79136 25.44 
L 282.79136 313 
z
" style="fill:#ffc0cb;"/>
   </g>
   <g id="matplotlib.axis_1">
    <g id="xtick_1">
     <g id="line2d_1">
      <path clip-path="url(#pa4fbe9d0e6)" d="M 44.66 313 
L 44.66 25.44 
" style="fill:none;stroke:#b0b0b0;stroke-dasharray:0.8,1.32;stroke-dashoffset:0;stroke-width:0.8;"/>
     </g>
     <g id="line2d_2">
      <defs>
       <path d="M 0 0 
L 0 3.5 
" id="m4a51c962fe" style="stroke:#000000;stroke-width:0.8;"/>
      </defs>
      <g>
       <use style="stroke:#000000;stroke-width:0.8;" x="44.66" xlink:href="#m4a51c962fe" y="313"/>
      </g>
     </g>
     <g id="text_1">
      <!-- 10:00 -->
      <g transform="translate(30.250625 327.598437)scale(0.1 -0.1)">
       <defs>
        <path d="M 794 531 
L 1825 531 
L 1825 4091 
L 703 3866 
L 703 4441 
L 1819 4666 
L 2450 4666 
L 2450 531 
L 3481 531 
L 3481 0 
L 794 0 
L 794 531 
z
" id="DejaVuSans-31" transform="scale(0.015625)"/>
        <path d="M 2034 4250 
Q 1547 4250 1301 3770 
Q 1056 3291 1056 2328 
Q 1056 1369 1301 889 
Q 1547 409 2034 409 
Q 2525 409 2770 889 
Q 3016 1369 3016 2328 
Q 3016 3291 2770 3770 
Q 2525 4250 2034 4250 
z
M 2034 4750 
Q 2819 4750 3233 4129 
Q 3647 3509 3647 2328 
Q 3647 1150 3233 529 
Q 2819 -91 2034 -91 
Q 1250 -91 836 529 
Q 422 1150 422 2328 
Q 422 3509 836 4129 
Q 1250 4750 2034 4750 
z
" id="DejaVuSans-30" transform="scale(0.015625)"/>
        <path d="M 750 794 
L 1409 794 
L 1409 0 
L 750 0 
L 750 794 
z
M 750 3309 
L 1409 3309 
L 1409 2516 
L 750 2516 
L 750 3309 
z
" id="DejaVuSans-3a" transform="scale(0.015625)"/>
       </defs>
       <use xlink:href="#DejaVuSans-31"/>
       <use x="63.623047" xlink:href="#DejaVuSans-30"/>
       <use x="127.246094" xlink:href="#DejaVuSans-3a"/>
       <use x="160.9375" xlink:href="#DejaVuSans-30"/>
       <use x="224.560547" xlink:href="#DejaVuSans-30"/>
      </g>
     </g>
    </g>
    <g id="xtick_2">
     <g id="line2d_3">
      <path clip-path="url(#pa4fbe9d0e6)" d="M 147.8216 313 
L 147.8216 25.44 
" style="fill:none;stroke:#b0b0b0;stroke-dasharray:0.8,1.32;stroke-dashoffset:0;stroke-width:0.8;"/>
     </g>
     <g id="line2d_4">
      <g>
       <use style="stroke:#000000;stroke-width:0.8;" x="147.8216" xlink:href="#m4a51c962fe" y="313"/>
      </g>
     </g>
     <g id="text_2">
      <!-- 12:00 -->
      <g transform="translate(133.412225 327.598437)scale(0.1 -0.1)">
       <defs>
        <path d="M 1228 531 
L 3431 531 
L 3431 0 
L 469 0 
L 469 531 
Q 828 903 1448 1529 
Q 2069 2156 2228 2338 
Q 2531 2678 2651 2914 
Q 2772 3150 2772 3378 
Q 2772 3750 2511 3984 
Q 2250 4219 1831 4219 
Q 1534 4219 1204 4116 
Q 875 4013 500 3803 
L 500 4441 
Q 881 4594 1212 4672 
Q 1544 4750 1819 4750 
Q 2544 4750 2975 4387 
Q 3406 4025 3406 3419 
Q 3406 3131 3298 2873 
Q 3191 2616 2906 2266 
Q 2828 2175 2409 1742 
Q 1991 1309 1228 531 
z
" id="DejaVuSans-32" transform="scale(0.015625)"/>
       </defs>
       <use xlink:href="#DejaVuSans-31"/>
       <use x="63.623047" xlink:href="#DejaVuSans-32"/>
       <use x="127.246094" xlink:href="#DejaVuSans-3a"/>
       <use x="160.9375" xlink:href="#DejaVuSans-30"/>
       <use x="224.560547" xlink:href="#DejaVuSans-30"/>
      </g>
     </g>
    </g>
    <g id="xtick_3">
     <g id="line2d_5">
      <path clip-path="url(#pa4fbe9d0e6)" d="M 250.9832 313 
L 250.9832 25.44 
" style="fill:none;stroke:#b0b0b0;stroke-dasharray:0.8,1.32;stroke-dashoffset:0;stroke-width:0.8;"/>
     </g>
     <g id="line2d_6">
      <g>
       <use style="stroke:#000000;stroke-width:0.8;" x="250.9832" xlink:href="#m4a51c962fe" y="313"/>
      </g>
     </g>
     <g id="text_3">
      <!-- 14:00 -->
      <g transform="translate(236.573825 327.598437)scale(0.1 -0.1)">
       <defs>
        <path d="M 2419 4116 
L 825 1625 
L 2419 1625 
L 2419 4116 
z
M 2253 4666 
L 3047 4666 
L 3047 1625 
L 3713 1625 
L 3713 1100 
L 3047 1100 
L 3047 0 
L 2419 0 
L 2419 1100 
L 313 1100 
L 313 1709 
L 2253 4666 
z
" id="DejaVuSans-34" transform="scale(0.015625)"/>
       </defs>
       <use xlink:href="#DejaVuSans-31"/>
       <use x="63.623047" xlink:href="#DejaVuSans-34"/>
       <use x="127.246094" xlink:href="#DejaVuSans-3a"/>
       <use x="160.9375" xlink:href="#DejaVuSans-30"/>
       <use x="224.560547" xlink:href="#DejaVuSans-30"/>
      </g>
     </g>
    </g>
    <g id="xtick_4">
     <g id="line2d_7">
      <path clip-path="url(#pa4fbe9d0e6)" d="M 354.1448 313 
L 354.1448 25.44 
" style="fill:none;stroke:#b0b0b0;stroke-dasharray:0.8,1.32;stroke-dashoffset:0;stroke-width:0.8;"/>
     </g>
     <g id="line2d_8">
      <g>
       <use style="stroke:#000000;stroke-width:0.8;" x="354.1448" xlink:href="#m4a51c962fe" y="313"/>
      </g>
     </g>
     <g id="text_4">
      <!-- 16:00 -->
      <g transform="translate(339.735425 327.598437)scale(0.1 -0.1)">
       <defs>
        <path d="M 2113 2584 
Q 1688 2584 1439 2293 
Q 1191 2003 1191 1497 
Q 1191 994 1439 701 
Q 1688 409 2113 409 
Q 2538 409 2786 701 
Q 3034 994 3034 1497 
Q 3034 2003 2786 2293 
Q 2538 2584 2113 2584 
z
M 3366 4563 
L 3366 3988 
Q 3128 4100 2886 4159 
Q 2644 4219 2406 4219 
Q 1781 4219 1451 3797 
Q 1122 3375 1075 2522 
Q 1259 2794 1537 2939 
Q 1816 3084 2150 3084 
Q 2853 3084 3261 2657 
Q 3669 2231 3669 1497 
Q 3669 778 3244 343 
Q 2819 -91 2113 -91 
Q 1303 -91 875 529 
Q 447 1150 447 2328 
Q 447 3434 972 4092 
Q 1497 4750 2381 4750 
Q 2619 4750 2861 4703 
Q 3103 4656 3366 4563 
z
" id="DejaVuSans-36" transform="scale(0.015625)"/>
       </defs>
       <use xlink:href="#DejaVuSans-31"/>
       <use x="63.623047" xlink:href="#DejaVuSans-36"/>
       <use x="127.246094" xlink:href="#DejaVuSans-3a"/>
       <use x="160.9375" xlink:href="#DejaVuSans-30"/>
       <use x="224.560547" xlink:href="#DejaVuSans-30"/>
      </g>
     </g>
    </g>
    <g id="xtick_5">
     <g id="line2d_9">
      <path clip-path="url(#pa4fbe9d0e6)" d="M 457.3064 313 
L 457.3064 25.44 
" style="fill:none;stroke:#b0b0b0;stroke-dasharray:0.8,1.32;stroke-dashoffset:0;stroke-width:0.8;"/>
     </g>
     <g id="line2d_10">
      <g>
       <use style="stroke:#000000;stroke-width:0.8;" x="457.3064" xlink:href="#m4a51c962fe" y="313"/>
      </g>
     </g>
     <g id="text_5">
      <!-- 18:00 -->
      <g transform="translate(442.897025 327.598437)scale(0.1 -0.1)">
       <defs>
        <path d="M 2034 2216 
Q 1584 2216 1326 1975 
Q 1069 1734 1069 1313 
Q 1069 891 1326 650 
Q 1584 409 2034 409 
Q 2484 409 2743 651 
Q 3003 894 3003 1313 
Q 3003 1734 2745 1975 
Q 2488 2216 2034 2216 
z
M 1403 2484 
Q 997 2584 770 2862 
Q 544 3141 544 3541 
Q 544 4100 942 4425 
Q 1341 4750 2034 4750 
Q 2731 4750 3128 4425 
Q 3525 4100 3525 3541 
Q 3525 3141 3298 2862 
Q 3072 2584 2669 2484 
Q 3125 2378 3379 2068 
Q 3634 1759 3634 1313 
Q 3634 634 3220 271 
Q 2806 -91 2034 -91 
Q 1263 -91 848 271 
Q 434 634 434 1313 
Q 434 1759 690 2068 
Q 947 2378 1403 2484 
z
M 1172 3481 
Q 1172 3119 1398 2916 
Q 1625 2713 2034 2713 
Q 2441 2713 2670 2916 
Q 2900 3119 2900 3481 
Q 2900 3844 2670 4047 
Q 2441 4250 2034 4250 
Q 1625 4250 1398 4047 
Q 1172 3844 1172 3481 
z
" id="DejaVuSans-38" transform="scale(0.015625)"/>
       </defs>
       <use xlink:href="#DejaVuSans-31"/>
       <use x="63.623047" xlink:href="#DejaVuSans-38"/>
       <use x="127.246094" xlink:href="#DejaVuSans-3a"/>
       <use x="160.9375" xlink:href="#DejaVuSans-30"/>
       <use x="224.560547" xlink:href="#DejaVuSans-30"/>
      </g>
     </g>
    </g>
    <g id="xtick_6">
     <g id="line2d_11">
      <path clip-path="url(#pa4fbe9d0e6)" d="M 560.468 313 
L 560.468 25.44 
" style="fill:none;stroke:#b0b0b0;stroke-dasharray:0.8,1.32;stroke-dashoffset:0;stroke-width:0.8;"/>
     </g>
     <g id="line2d_12">
      <g>
       <use style="stroke:#000000;stroke-width:0.8;" x="560.468" xlink:href="#m4a51c962fe" y="313"/>
      </g>
     </g>
     <g id="text_6">
      <!-- 20:00 -->
      <g transform="translate(546.058625 327.598437)scale(0.1 -0.1)">
       <use xlink:href="#DejaVuSans-32"/>
       <use x="63.623047" xlink:href="#DejaVuSans-30"/>
       <use x="127.246094" xlink:href="#DejaVuSans-3a"/>
       <use x="160.9375" xlink:href="#DejaVuSans-30"/>
       <use x="224.560547" xlink:href="#DejaVuSans-30"/>
      </g>
     </g>
    </g>
    <g id="xtick_7">
     <g id="line2d_13">
      <path clip-path="url(#pa4fbe9d0e6)" d="M 663.6296 313 
L 663.6296 25.44 
" style="fill:none;stroke:#b0b0b0;stroke-dasharray:0.8,1.32;stroke-dashoffset:0;stroke-width:0.8;"/>
     </g>
     <g id="line2d_14">
      <g>
       <use style="stroke:#000000;stroke-width:0.8;" x="663.6296" xlink:href="#m4a51c962fe" y="313"/>
      </g>
     </g>
     <g id="text_7">
      <!-- 22:00 -->
      <g transform="translate(649.220225 327.598437)scale(0.1 -0.1)">
       <use xlink:href="#DejaVuSans-32"/>
       <use x="63.623047" xlink:href="#DejaVuSans-32"/>
       <use x="127.246094" xlink:href="#DejaVuSans-3a"/>
       <use x="160.9375" xlink:href="#DejaVuSans-30"/>
       <use x="224.560547" xlink:href="#DejaVuSans-30"/>
      </g>
     </g>
    </g>
    <g id="text_8">
     <!-- Time -->
     <g transform="translate(354.806406 341.276563)scale(0.1 -0.1)">
      <defs>
       <path d="M -19 4666 
L 3928 4666 
L 3928 4134 
L 2272 4134 
L 2272 0 
L 1638 0 
L 1638 4134 
L -19 4134 
L -19 4666 
z
" id="DejaVuSans-54" transform="scale(0.015625)"/>
       <path d="M 603 3500 
L 1178 3500 
L 1178 0 
L 603 0 
L 603 3500 
z
M 603 4863 
L 1178 4863 
L 1178 4134 
L 603 4134 
L 603 4863 
z
" id="DejaVuSans-69" transform="scale(0.015625)"/>
       <path d="M 3328 2828 
Q 3544 3216 3844 3400 
Q 4144 3584 4550 3584 
Q 5097 3584 5394 3201 
Q 5691 2819 5691 2113 
L 5691 0 
L 5113 0 
L 5113 2094 
Q 5113 2597 4934 2840 
Q 4756 3084 4391 3084 
Q 3944 3084 3684 2787 
Q 3425 2491 3425 1978 
L 3425 0 
L 2847 0 
L 2847 2094 
Q 2847 2600 2669 2842 
Q 2491 3084 2119 3084 
Q 1678 3084 1418 2786 
Q 1159 2488 1159 1978 
L 1159 0 
L 581 0 
L 581 3500 
L 1159 3500 
L 1159 2956 
Q 1356 3278 1631 3431 
Q 1906 3584 2284 3584 
Q 2666 3584 2933 3390 
Q 3200 3197 3328 2828 
z
" id="DejaVuSans-6d" transform="scale(0.015625)"/>
       <path d="M 3597 1894 
L 3597 1613 
L 953 1613 
Q 991 1019 1311 708 
Q 1631 397 2203 397 
Q 2534 397 2845 478 
Q 3156 559 3463 722 
L 3463 178 
Q 3153 47 2828 -22 
Q 2503 -91 2169 -91 
Q 1331 -91 842 396 
Q 353 884 353 1716 
Q 353 2575 817 3079 
Q 1281 3584 2069 3584 
Q 2775 3584 3186 3129 
Q 3597 2675 3597 1894 
z
M 3022 2063 
Q 3016 2534 2758 2815 
Q 2500 3097 2075 3097 
Q 1594 3097 1305 2825 
Q 1016 2553 972 2059 
L 3022 2063 
z
" id="DejaVuSans-65" transform="scale(0.015625)"/>
      </defs>
      <use xlink:href="#DejaVuSans-54"/>
      <use x="57.958984" xlink:href="#DejaVuSans-69"/>
      <use x="85.742188" xlink:href="#DejaVuSans-6d"/>
      <use x="183.154297" xlink:href="#DejaVuSans-65"/>
     </g>
    </g>
   </g>
   <g id="matplotlib.axis_2">
    <g id="ytick_1">
     <g id="line2d_15">
      <path clip-path="url(#pa4fbe9d0e6)" d="M 44.66 313 
L 689.42 313 
" style="fill:none;stroke:#b0b0b0;stroke-dasharray:0.8,1.32;stroke-dashoffset:0;stroke-width:0.8;"/>
     </g>
     <g id="line2d_16">
      <defs>
       <path d="M 0 0 
L -3.5 0 
" id="m0772a2bf27" style="stroke:#000000;stroke-width:0.8;"/>
      </defs>
      <g>
       <use style="stroke:#000000;stroke-width:0.8;" x="44.66" xlink:href="#m0772a2bf27" y="313"/>
      </g>
     </g>
     <g id="line2d_17">
      <defs>
       <path d="M 0 0 
L 3.5 0 
" id="mebd7b82027" style="stroke:#000000;stroke-width:0.8;"/>
      </defs>
      <g>
       <use style="stroke:#000000;stroke-width:0.8;" x="689.42" xlink:href="#mebd7b82027" y="313"/>
      </g>
     </g>
     <g id="text_9">
      <!-- 49 -->
      <g transform="translate(24.935 316.799219)scale(0.1 -0.1)">
       <defs>
        <path d="M 703 97 
L 703 672 
Q 941 559 1184 500 
Q 1428 441 1663 441 
Q 2288 441 2617 861 
Q 2947 1281 2994 2138 
Q 2813 1869 2534 1725 
Q 2256 1581 1919 1581 
Q 1219 1581 811 2004 
Q 403 2428 403 3163 
Q 403 3881 828 4315 
Q 1253 4750 1959 4750 
Q 2769 4750 3195 4129 
Q 3622 3509 3622 2328 
Q 3622 1225 3098 567 
Q 2575 -91 1691 -91 
Q 1453 -91 1209 -44 
Q 966 3 703 97 
z
M 1959 2075 
Q 2384 2075 2632 2365 
Q 2881 2656 2881 3163 
Q 2881 3666 2632 3958 
Q 2384 4250 1959 4250 
Q 1534 4250 1286 3958 
Q 1038 3666 1038 3163 
Q 1038 2656 1286 2365 
Q 1534 2075 1959 2075 
z
" id="DejaVuSans-39" transform="scale(0.015625)"/>
       </defs>
       <use xlink:href="#DejaVuSans-34"/>
       <use x="63.623047" xlink:href="#DejaVuSans-39"/>
      </g>
     </g>
     <g id="text_10">
      <!-- 49 -->
      <g transform="translate(696.42 316.799219)scale(0.1 -0.1)">
       <use xlink:href="#DejaVuSans-34"/>
       <use x="63.623047" xlink:href="#DejaVuSans-39"/>
      </g>
     </g>
    </g>
    <g id="ytick_2">
     <g id="line2d_18">
      <path clip-path="url(#pa4fbe9d0e6)" d="M 44.66 294.333105 
L 689.42 294.333105 
" style="fill:none;stroke:#b0b0b0;stroke-dasharray:0.8,1.32;stroke-dashoffset:0;stroke-width:0.8;"/>
     </g>
     <g id="line2d_19">
      <g>
       <use style="stroke:#000000;stroke-width:0.8;" x="44.66" xlink:href="#m0772a2bf27" y="294.333105"/>
      </g>
     </g>
     <g id="line2d_20">
      <g>
       <use style="stroke:#000000;stroke-width:0.8;" x="689.42" xlink:href="#mebd7b82027" y="294.333105"/>
      </g>
     </g>
     <g id="text_11">
      <!-- 51 -->
      <g transform="translate(24.935 298.132324)scale(0.1 -0.1)">
       <defs>
        <path d="M 691 4666 
L 3169 4666 
L 3169 4134 
L 1269 4134 
L 1269 2991 
Q 1406 3038 1543 3061 
Q 1681 3084 1819 3084 
Q 2600 3084 3056 2656 
Q 3513 2228 3513 1497 
Q 3513 744 3044 326 
Q 2575 -91 1722 -91 
Q 1428 -91 1123 -41 
Q 819 9 494 109 
L 494 744 
Q 775 591 1075 516 
Q 1375 441 1709 441 
Q 2250 441 2565 725 
Q 2881 1009 2881 1497 
Q 2881 1984 2565 2268 
Q 2250 2553 1709 2553 
Q 1456 2553 1204 2497 
Q 953 2441 691 2322 
L 691 4666 
z
" id="DejaVuSans-35" transform="scale(0.015625)"/>
       </defs>
       <use xlink:href="#DejaVuSans-35"/>
       <use x="63.623047" xlink:href="#DejaVuSans-31"/>
      </g>
     </g>
     <g id="text_12">
      <!-- 51 -->
      <g transform="translate(696.42 298.132324)scale(0.1 -0.1)">
       <use xlink:href="#DejaVuSans-35"/>
       <use x="63.623047" xlink:href="#DejaVuSans-31"/>
      </g>
     </g>
    </g>
    <g id="ytick_3">
     <g id="line2d_21">
      <path clip-path="url(#pa4fbe9d0e6)" d="M 44.66 275.66621 
L 689.42 275.66621 
" style="fill:none;stroke:#b0b0b0;stroke-dasharray:0.8,1.32;stroke-dashoffset:0;stroke-width:0.8;"/>
     </g>
     <g id="line2d_22">
      <g>
       <use style="stroke:#000000;stroke-width:0.8;" x="44.66" xlink:href="#m0772a2bf27" y="275.66621"/>
      </g>
     </g>
     <g id="line2d_23">
      <g>
       <use style="stroke:#000000;stroke-width:0.8;" x="689.42" xlink:href="#mebd7b82027" y="275.66621"/>
      </g>
     </g>
     <g id="text_13">
      <!-- 53 -->
      <g transform="translate(24.935 279.465429)scale(0.1 -0.1)">
       <defs>
        <path d="M 2597 2516 
Q 3050 2419 3304 2112 
Q 3559 1806 3559 1356 
Q 3559 666 3084 287 
Q 2609 -91 1734 -91 
Q 1441 -91 1130 -33 
Q 819 25 488 141 
L 488 750 
Q 750 597 1062 519 
Q 1375 441 1716 441 
Q 2309 441 2620 675 
Q 2931 909 2931 1356 
Q 2931 1769 2642 2001 
Q 2353 2234 1838 2234 
L 1294 2234 
L 1294 2753 
L 1863 2753 
Q 2328 2753 2575 2939 
Q 2822 3125 2822 3475 
Q 2822 3834 2567 4026 
Q 2313 4219 1838 4219 
Q 1578 4219 1281 4162 
Q 984 4106 628 3988 
L 628 4550 
Q 988 4650 1302 4700 
Q 1616 4750 1894 4750 
Q 2613 4750 3031 4423 
Q 3450 4097 3450 3541 
Q 3450 3153 3228 2886 
Q 3006 2619 2597 2516 
z
" id="DejaVuSans-33" transform="scale(0.015625)"/>
       </defs>
       <use xlink:href="#DejaVuSans-35"/>
       <use x="63.623047" xlink:href="#DejaVuSans-33"/>
      </g>
     </g>
     <g id="text_14">
      <!-- 53 -->
      <g transform="translate(696.42 279.465429)scale(0.1 -0.1)">
       <use xlink:href="#DejaVuSans-35"/>
       <use x="63.623047" xlink:href="#DejaVuSans-33"/>
      </g>
     </g>
    </g>
    <g id="ytick_4">
     <g id="line2d_24">
      <path clip-path="url(#pa4fbe9d0e6)" d="M 44.66 256.999315 
L 689.42 256.999315 
" style="fill:none;stroke:#b0b0b0;stroke-dasharray:0.8,1.32;stroke-dashoffset:0;stroke-width:0.8;"/>
     </g>
     <g id="line2d_25">
      <g>
       <use style="stroke:#000000;stroke-width:0.8;" x="44.66" xlink:href="#m0772a2bf27" y="256.999315"/>
      </g>
     </g>
     <g id="line2d_26">
      <g>
       <use style="stroke:#000000;stroke-width:0.8;" x="689.42" xlink:href="#mebd7b82027" y="256.999315"/>
      </g>
     </g>
     <g id="text_15">
      <!-- 55 -->
      <g transform="translate(24.935 260.798534)scale(0.1 -0.1)">
       <use xlink:href="#DejaVuSans-35"/>
       <use x="63.623047" xlink:href="#DejaVuSans-35"/>
      </g>
     </g>
     <g id="text_16">
      <!-- 55 -->
      <g transform="translate(696.42 260.798534)scale(0.1 -0.1)">
       <use xlink:href="#DejaVuSans-35"/>
       <use x="63.623047" xlink:href="#DejaVuSans-35"/>
      </g>
     </g>
    </g>
    <g id="ytick_5">
     <g id="line2d_27">
      <path clip-path="url(#pa4fbe9d0e6)" d="M 44.66 238.332421 
L 689.42 238.332421 
" style="fill:none;stroke:#b0b0b0;stroke-dasharray:0.8,1.32;stroke-dashoffset:0;stroke-width:0.8;"/>
     </g>
     <g id="line2d_28">
      <g>
       <use style="stroke:#000000;stroke-width:0.8;" x="44.66" xlink:href="#m0772a2bf27" y="238.332421"/>
      </g>
     </g>
     <g id="line2d_29">
      <g>
       <use style="stroke:#000000;stroke-width:0.8;" x="689.42" xlink:href="#mebd7b82027" y="238.332421"/>
      </g>
     </g>
     <g id="text_17">
      <!-- 57 -->
      <g transform="translate(24.935 242.131639)scale(0.1 -0.1)">
       <defs>
        <path d="M 525 4666 
L 3525 4666 
L 3525 4397 
L 1831 0 
L 1172 0 
L 2766 4134 
L 525 4134 
L 525 4666 
z
" id="DejaVuSans-37" transform="scale(0.015625)"/>
       </defs>
       <use xlink:href="#DejaVuSans-35"/>
       <use x="63.623047" xlink:href="#DejaVuSans-37"/>
      </g>
     </g>
     <g id="text_18">
      <!-- 57 -->
      <g transform="translate(696.42 242.131639)scale(0.1 -0.1)">
       <use xlink:href="#DejaVuSans-35"/>
       <use x="63.623047" xlink:href="#DejaVuSans-37"/>
      </g>
     </g>
    </g>
    <g id="ytick_6">
     <g id="line2d_30">
      <path clip-path="url(#pa4fbe9d0e6)" d="M 44.66 219.665526 
L 689.42 219.665526 
" style="fill:none;stroke:#b0b0b0;stroke-dasharray:0.8,1.32;stroke-dashoffset:0;stroke-width:0.8;"/>
     </g>
     <g id="line2d_31">
      <g>
       <use style="stroke:#000000;stroke-width:0.8;" x="44.66" xlink:href="#m0772a2bf27" y="219.665526"/>
      </g>
     </g>
     <g id="line2d_32">
      <g>
       <use style="stroke:#000000;stroke-width:0.8;" x="689.42" xlink:href="#mebd7b82027" y="219.665526"/>
      </g>
     </g>
     <g id="text_19">
      <!-- 59 -->
      <g transform="translate(24.935 223.464744)scale(0.1 -0.1)">
       <use xlink:href="#DejaVuSans-35"/>
       <use x="63.623047" xlink:href="#DejaVuSans-39"/>
      </g>
     </g>
     <g id="text_20">
      <!-- 59 -->
      <g transform="translate(696.42 223.464744)scale(0.1 -0.1)">
       <use xlink:href="#DejaVuSans-35"/>
       <use x="63.623047" xlink:href="#DejaVuSans-39"/>
      </g>
     </g>
    </g>
    <g id="ytick_7">
     <g id="line2d_33">
      <path clip-path="url(#pa4fbe9d0e6)" d="M 44.66 200.998631 
L 689.42 200.998631 
" style="fill:none;stroke:#b0b0b0;stroke-dasharray:0.8,1.32;stroke-dashoffset:0;stroke-width:0.8;"/>
     </g>
     <g id="line2d_34">
      <g>
       <use style="stroke:#000000;stroke-width:0.8;" x="44.66" xlink:href="#m0772a2bf27" y="200.998631"/>
      </g>
     </g>
     <g id="line2d_35">
      <g>
       <use style="stroke:#000000;stroke-width:0.8;" x="689.42" xlink:href="#mebd7b82027" y="200.998631"/>
      </g>
     </g>
     <g id="text_21">
      <!-- 61 -->
      <g transform="translate(24.935 204.79785)scale(0.1 -0.1)">
       <use xlink:href="#DejaVuSans-36"/>
       <use x="63.623047" xlink:href="#DejaVuSans-31"/>
      </g>
     </g>
     <g id="text_22">
      <!-- 61 -->
      <g transform="translate(696.42 204.79785)scale(0.1 -0.1)">
       <use xlink:href="#DejaVuSans-36"/>
       <use x="63.623047" xlink:href="#DejaVuSans-31"/>
      </g>
     </g>
    </g>
    <g id="ytick_8">
     <g id="line2d_36">
      <path clip-path="url(#pa4fbe9d0e6)" d="M 44.66 182.331736 
L 689.42 182.331736 
" style="fill:none;stroke:#b0b0b0;stroke-dasharray:0.8,1.32;stroke-dashoffset:0;stroke-width:0.8;"/>
     </g>
     <g id="line2d_37">
      <g>
       <use style="stroke:#000000;stroke-width:0.8;" x="44.66" xlink:href="#m0772a2bf27" y="182.331736"/>
      </g>
     </g>
     <g id="line2d_38">
      <g>
       <use style="stroke:#000000;stroke-width:0.8;" x="689.42" xlink:href="#mebd7b82027" y="182.331736"/>
      </g>
     </g>
     <g id="text_23">
      <!-- 63 -->
      <g transform="translate(24.935 186.130955)scale(0.1 -0.1)">
       <use xlink:href="#DejaVuSans-36"/>
       <use x="63.623047" xlink:href="#DejaVuSans-33"/>
      </g>
     </g>
     <g id="text_24">
      <!-- 63 -->
      <g transform="translate(696.42 186.130955)scale(0.1 -0.1)">
       <use xlink:href="#DejaVuSans-36"/>
       <use x="63.623047" xlink:href="#DejaVuSans-33"/>
      </g>
     </g>
    </g>
    <g id="ytick_9">
     <g id="line2d_39">
      <path clip-path="url(#pa4fbe9d0e6)" d="M 44.66 163.664841 
L 689.42 163.664841 
" style="fill:none;stroke:#b0b0b0;stroke-dasharray:0.8,1.32;stroke-dashoffset:0;stroke-width:0.8;"/>
     </g>
     <g id="line2d_40">
      <g>
       <use style="stroke:#000000;stroke-width:0.8;" x="44.66" xlink:href="#m0772a2bf27" y="163.664841"/>
      </g>
     </g>
     <g id="line2d_41">
      <g>
       <use style="stroke:#000000;stroke-width:0.8;" x="689.42" xlink:href="#mebd7b82027" y="163.664841"/>
      </g>
     </g>
     <g id="text_25">
      <!-- 65 -->
      <g transform="translate(24.935 167.46406)scale(0.1 -0.1)">
       <use xlink:href="#DejaVuSans-36"/>
       <use x="63.623047" xlink:href="#DejaVuSans-35"/>
      </g>
     </g>
     <g id="text_26">
      <!-- 65 -->
      <g transform="translate(696.42 167.46406)scale(0.1 -0.1)">
       <use xlink:href="#DejaVuSans-36"/>
       <use x="63.623047" xlink:href="#DejaVuSans-35"/>
      </g>
     </g>
    </g>
    <g id="ytick_10">
     <g id="line2d_42">
      <path clip-path="url(#pa4fbe9d0e6)" d="M 44.66 144.997946 
L 689.42 144.997946 
" style="fill:none;stroke:#b0b0b0;stroke-dasharray:0.8,1.32;stroke-dashoffset:0;stroke-width:0.8;"/>
     </g>
     <g id="line2d_43">
      <g>
       <use style="stroke:#000000;stroke-width:0.8;" x="44.66" xlink:href="#m0772a2bf27" y="144.997946"/>
      </g>
     </g>
     <g id="line2d_44">
      <g>
       <use style="stroke:#000000;stroke-width:0.8;" x="689.42" xlink:href="#mebd7b82027" y="144.997946"/>
      </g>
     </g>
     <g id="text_27">
      <!-- 67 -->
      <g transform="translate(24.935 148.797165)scale(0.1 -0.1)">
       <use xlink:href="#DejaVuSans-36"/>
       <use x="63.623047" xlink:href="#DejaVuSans-37"/>
      </g>
     </g>
     <g id="text_28">
      <!-- 67 -->
      <g transform="translate(696.42 148.797165)scale(0.1 -0.1)">
       <use xlink:href="#DejaVuSans-36"/>
       <use x="63.623047" xlink:href="#DejaVuSans-37"/>
      </g>
     </g>
    </g>
    <g id="ytick_11">
     <g id="line2d_45">
      <path clip-path="url(#pa4fbe9d0e6)" d="M 44.66 126.331051 
L 689.42 126.331051 
" style="fill:none;stroke:#b0b0b0;stroke-dasharray:0.8,1.32;stroke-dashoffset:0;stroke-width:0.8;"/>
     </g>
     <g id="line2d_46">
      <g>
       <use style="stroke:#000000;stroke-width:0.8;" x="44.66" xlink:href="#m0772a2bf27" y="126.331051"/>
      </g>
     </g>
     <g id="line2d_47">
      <g>
       <use style="stroke:#000000;stroke-width:0.8;" x="689.42" xlink:href="#mebd7b82027" y="126.331051"/>
      </g>
     </g>
     <g id="text_29">
      <!-- 69 -->
      <g transform="translate(24.935 130.13027)scale(0.1 -0.1)">
       <use xlink:href="#DejaVuSans-36"/>
       <use x="63.623047" xlink:href="#DejaVuSans-39"/>
      </g>
     </g>
     <g id="text_30">
      <!-- 69 -->
      <g transform="translate(696.42 130.13027)scale(0.1 -0.1)">
       <use xlink:href="#DejaVuSans-36"/>
       <use x="63.623047" xlink:href="#DejaVuSans-39"/>
      </g>
     </g>
    </g>
    <g id="ytick_12">
     <g id="line2d_48">
      <path clip-path="url(#pa4fbe9d0e6)" d="M 44.66 107.664157 
L 689.42 107.664157 
" style="fill:none;stroke:#b0b0b0;stroke-dasharray:0.8,1.32;stroke-dashoffset:0;stroke-width:0.8;"/>
     </g>
     <g id="line2d_49">
      <g>
       <use style="stroke:#000000;stroke-width:0.8;" x="44.66" xlink:href="#m0772a2bf27" y="107.664157"/>
      </g>
     </g>
     <g id="line2d_50">
      <g>
       <use style="stroke:#000000;stroke-width:0.8;" x="689.42" xlink:href="#mebd7b82027" y="107.664157"/>
      </g>
     </g>
     <g id="text_31">
      <!-- 71 -->
      <g transform="translate(24.935 111.463375)scale(0.1 -0.1)">
       <use xlink:href="#DejaVuSans-37"/>
       <use x="63.623047" xlink:href="#DejaVuSans-31"/>
      </g>
     </g>
     <g id="text_32">
      <!-- 71 -->
      <g transform="translate(696.42 111.463375)scale(0.1 -0.1)">
       <use xlink:href="#DejaVuSans-37"/>
       <use x="63.623047" xlink:href="#DejaVuSans-31"/>
      </g>
     </g>
    </g>
    <g id="ytick_13">
     <g id="line2d_51">
      <path clip-path="url(#pa4fbe9d0e6)" d="M 44.66 88.997262 
L 689.42 88.997262 
" style="fill:none;stroke:#b0b0b0;stroke-dasharray:0.8,1.32;stroke-dashoffset:0;stroke-width:0.8;"/>
     </g>
     <g id="line2d_52">
      <g>
       <use style="stroke:#000000;stroke-width:0.8;" x="44.66" xlink:href="#m0772a2bf27" y="88.997262"/>
      </g>
     </g>
     <g id="line2d_53">
      <g>
       <use style="stroke:#000000;stroke-width:0.8;" x="689.42" xlink:href="#mebd7b82027" y="88.997262"/>
      </g>
     </g>
     <g id="text_33">
      <!-- 73 -->
      <g transform="translate(24.935 92.796481)scale(0.1 -0.1)">
       <use xlink:href="#DejaVuSans-37"/>
       <use x="63.623047" xlink:href="#DejaVuSans-33"/>
      </g>
     </g>
     <g id="text_34">
      <!-- 73 -->
      <g transform="translate(696.42 92.796481)scale(0.1 -0.1)">
       <use xlink:href="#DejaVuSans-37"/>
       <use x="63.623047" xlink:href="#DejaVuSans-33"/>
      </g>
     </g>
    </g>
    <g id="ytick_14">
     <g id="line2d_54">
      <path clip-path="url(#pa4fbe9d0e6)" d="M 44.66 70.330367 
L 689.42 70.330367 
" style="fill:none;stroke:#b0b0b0;stroke-dasharray:0.8,1.32;stroke-dashoffset:0;stroke-width:0.8;"/>
     </g>
     <g id="line2d_55">
      <g>
       <use style="stroke:#000000;stroke-width:0.8;" x="44.66" xlink:href="#m0772a2bf27" y="70.330367"/>
      </g>
     </g>
     <g id="line2d_56">
      <g>
       <use style="stroke:#000000;stroke-width:0.8;" x="689.42" xlink:href="#mebd7b82027" y="70.330367"/>
      </g>
     </g>
     <g id="text_35">
      <!-- 75 -->
      <g transform="translate(24.935 74.129586)scale(0.1 -0.1)">
       <use xlink:href="#DejaVuSans-37"/>
       <use x="63.623047" xlink:href="#DejaVuSans-35"/>
      </g>
     </g>
     <g id="text_36">
      <!-- 75 -->
      <g transform="translate(696.42 74.129586)scale(0.1 -0.1)">
       <use xlink:href="#DejaVuSans-37"/>
       <use x="63.623047" xlink:href="#DejaVuSans-35"/>
      </g>
     </g>
    </g>
    <g id="ytick_15">
     <g id="line2d_57">
      <path clip-path="url(#pa4fbe9d0e6)" d="M 44.66 51.663472 
L 689.42 51.663472 
" style="fill:none;stroke:#b0b0b0;stroke-dasharray:0.8,1.32;stroke-dashoffset:0;stroke-width:0.8;"/>
     </g>
     <g id="line2d_58">
      <g>
       <use style="stroke:#000000;stroke-width:0.8;" x="44.66" xlink:href="#m0772a2bf27" y="51.663472"/>
      </g>
     </g>
     <g id="line2d_59">
      <g>
       <use style="stroke:#000000;stroke-width:0.8;" x="689.42" xlink:href="#mebd7b82027" y="51.663472"/>
      </g>
     </g>
     <g id="text_37">
      <!-- 77 -->
      <g transform="translate(24.935 55.462691)scale(0.1 -0.1)">
       <use xlink:href="#DejaVuSans-37"/>
       <use x="63.623047" xlink:href="#DejaVuSans-37"/>
      </g>
     </g>
     <g id="text_38">
      <!-- 77 -->
      <g transform="translate(696.42 55.462691)scale(0.1 -0.1)">
       <use xlink:href="#DejaVuSans-37"/>
       <use x="63.623047" xlink:href="#DejaVuSans-37"/>
      </g>
     </g>
    </g>
    <g id="ytick_16">
     <g id="line2d_60">
      <path clip-path="url(#pa4fbe9d0e6)" d="M 44.66 32.996577 
L 689.42 32.996577 
" style="fill:none;stroke:#b0b0b0;stroke-dasharray:0.8,1.32;stroke-dashoffset:0;stroke-width:0.8;"/>
     </g>
     <g id="line2d_61">
      <g>
       <use style="stroke:#000000;stroke-width:0.8;" x="44.66" xlink:href="#m0772a2bf27" y="32.996577"/>
      </g>
     </g>
     <g id="line2d_62">
      <g>
       <use style="stroke:#000000;stroke-width:0.8;" x="689.42" xlink:href="#mebd7b82027" y="32.996577"/>
      </g>
     </g>
     <g id="text_39">
      <!-- 79 -->
      <g transform="translate(24.935 36.795796)scale(0.1 -0.1)">
       <use xlink:href="#DejaVuSans-37"/>
       <use x="63.623047" xlink:href="#DejaVuSans-39"/>
      </g>
     </g>
     <g id="text_40">
      <!-- 79 -->
      <g transform="translate(696.42 36.795796)scale(0.1 -0.1)">
       <use xlink:href="#DejaVuSans-37"/>
       <use x="63.623047" xlink:href="#DejaVuSans-39"/>
      </g>
     </g>
    </g>
    <g id="text_41">
     <!-- °F -->
     <g transform="translate(18.855313 174.595781)rotate(-90)scale(0.1 -0.1)">
      <defs>
       <path d="M 1600 4347 
Q 1350 4347 1178 4173 
Q 1006 4000 1006 3750 
Q 1006 3503 1178 3333 
Q 1350 3163 1600 3163 
Q 1850 3163 2022 3333 
Q 2194 3503 2194 3750 
Q 2194 3997 2020 4172 
Q 1847 4347 1600 4347 
z
M 1600 4750 
Q 1800 4750 1984 4673 
Q 2169 4597 2303 4453 
Q 2447 4313 2519 4134 
Q 2591 3956 2591 3750 
Q 2591 3338 2302 3052 
Q 2013 2766 1594 2766 
Q 1172 2766 890 3047 
Q 609 3328 609 3750 
Q 609 4169 896 4459 
Q 1184 4750 1600 4750 
z
" id="DejaVuSans-b0" transform="scale(0.015625)"/>
       <path d="M 628 4666 
L 3309 4666 
L 3309 4134 
L 1259 4134 
L 1259 2759 
L 3109 2759 
L 3109 2228 
L 1259 2228 
L 1259 0 
L 628 0 
L 628 4666 
z
" id="DejaVuSans-46" transform="scale(0.015625)"/>
      </defs>
      <use xlink:href="#DejaVuSans-b0"/>
      <use x="50" xlink:href="#DejaVuSans-46"/>
     </g>
    </g>
   </g>
   <g id="line2d_63">
    <path clip-path="url(#pa4fbe9d0e6)" d="M 51.53744 254.759288 
L 60.99392 249.065885 
L 69.59072 247.199196 
L 74.7488 241.692462 
L 83.3456 239.639103 
L 92.80208 232.452349 
L 101.39888 228.905639 
L 109.99568 227.038949 
L 119.45216 221.998888 
L 126.3296 216.772157 
L 135.78608 213.132113 
L 145.24256 207.252041 
L 153.83936 204.358672 
L 163.29584 203.238658 
L 172.75232 200.531959 
L 177.9104 196.985248 
L 187.36688 193.811876 
L 195.96368 193.25187 
L 205.42016 189.798494 
L 214.87664 188.398477 
L 223.47344 187.091794 
L 229.4912 183.918422 
L 239.80736 181.491726 
L 247.54448 177.19834 
L 257.00096 176.35833 
L 266.45744 173.931633 
L 275.05424 172.81162 
L 281.93168 171.318268 
L 291.38816 167.118217 
L 300.84464 166.091538 
L 309.44144 165.064858 
L 318.03824 162.078155 
L 333.51248 161.238145 
L 342.10928 158.811449 
L 350.70608 157.504766 
L 360.16256 157.971438 
L 368.75936 158.718114 
L 378.21584 157.878104 
L 385.09328 158.531445 
L 394.54976 157.131428 
L 403.14656 157.131428 
L 411.74336 160.211466 
L 421.19984 161.891486 
L 429.79664 162.358159 
L 435.8144 166.091538 
L 445.27088 168.798237 
L 453.86768 171.598271 
L 462.46448 178.131685 
L 471.92096 186.718456 
L 480.51776 191.291846 
L 488.25488 197.63859 
L 497.71136 204.545341 
L 506.30816 212.572106 
L 514.90496 218.825515 
L 523.50176 223.398905 
L 532.95824 226.85228 
L 539.83568 230.212321 
L 548.43248 237.305741 
L 557.88896 242.532472 
L 566.48576 245.239172 
L 575.94224 250.559237 
L 585.39872 252.425926 
L 591.41648 258.492667 
L 600.01328 261.666039 
L 608.61008 266.239428 
L 618.06656 269.039463 
L 626.66336 268.199452 
L 635.26016 270.719483 
L 643.85696 275.572876 
L 652.45376 279.119586 
L 661.05056 285.186327 
L 670.50704 280.986275 
L 679.10384 281.639617 
L 687.70064 284.999658 
" style="fill:none;stroke:#1f77b4;stroke-linecap:square;stroke-width:1.5;"/>
   </g>
   <g id="line2d_64">
    <path clip-path="url(#pa4fbe9d0e6)" d="M 46.37936 123.531017 
L 49.81808 123.531017 
L 64.43264 122.597673 
L 73.02944 122.597673 
L 76.46816 121.664328 
L 84.20528 121.664328 
L 86.78432 120.730983 
L 95.38112 119.797638 
L 96.2408 120.730983 
L 103.97792 118.864294 
L 109.136 118.864294 
L 110.85536 117.930949 
L 115.15376 116.064259 
L 121.17152 109.530846 
L 122.0312 111.397536 
L 123.75056 105.797467 
L 126.3296 102.997433 
L 128.90864 101.130743 
L 134.9264 101.130743 
L 135.78608 100.197399 
L 139.2248 100.197399 
L 148.68128 101.130743 
L 150.40064 100.197399 
L 165.0152 100.197399 
L 169.3136 99.264054 
L 173.612 99.264054 
L 176.19104 98.330709 
L 186.5072 98.330709 
L 189.08624 97.397364 
L 193.38464 97.397364 
L 198.54272 95.530675 
L 199.4024 96.46402 
L 201.12176 93.663985 
L 203.7008 89.930607 
L 207.13952 86.197228 
L 209.71856 84.330538 
L 215.73632 77.797125 
L 218.31536 75.930435 
L 221.75408 73.130401 
L 224.33312 70.330367 
L 225.1928 72.197056 
L 227.77184 69.397022 
L 232.07024 68.463677 
L 244.96544 69.397022 
L 250.9832 70.330367 
L 252.70256 70.330367 
L 256.14128 71.263712 
L 260.43968 70.330367 
L 263.8784 71.263712 
L 264.73808 70.330367 
L 267.31712 71.263712 
L 271.61552 70.330367 
L 274.19456 71.263712 
L 276.7736 69.397022 
L 281.93168 63.796954 
L 285.3704 61.930264 
L 287.94944 60.063575 
L 289.6688 60.99692 
L 295.68656 62.863609 
L 303.42368 62.863609 
L 315.4592 63.796954 
L 349.8464 63.796954 
L 352.42544 64.730298 
L 389.39168 64.730298 
L 397.98848 65.663643 
L 400.56752 65.663643 
L 417.76112 67.530333 
L 423.77888 67.530333 
L 431.516 68.463677 
L 434.95472 68.463677 
L 440.97248 69.397022 
L 447.84992 69.397022 
L 457.3064 70.330367 
L 460.74512 71.263712 
L 463.32416 71.263712 
L 467.62256 72.197056 
L 475.35968 73.130401 
L 483.0968 73.130401 
L 485.67584 74.063746 
L 494.27264 74.997091 
L 501.15008 74.997091 
L 504.5888 75.930435 
L 513.1856 76.86378 
L 521.7824 76.86378 
L 523.50176 77.797125 
L 533.81792 77.797125 
L 534.6776 78.73047 
L 540.69536 78.73047 
L 547.5728 79.663814 
L 551.01152 79.663814 
L 557.02928 80.597159 
L 561.32768 80.597159 
L 564.7664 81.530504 
L 578.52128 82.463849 
L 581.10032 81.530504 
L 586.2584 82.463849 
L 619.78592 82.463849 
L 622.36496 83.397193 
L 625.80368 83.397193 
L 629.2424 84.330538 
L 645.57632 86.197228 
L 655.89248 86.197228 
L 669.64736 88.063917 
L 674.80544 88.063917 
L 677.38448 88.997262 
L 683.40224 88.997262 
L 686.84096 89.930607 
L 686.84096 89.930607 
" style="fill:none;stroke:#ff7f0e;stroke-linecap:square;stroke-width:1.5;"/>
   </g>
   <g id="line2d_65">
    <path clip-path="url(#pa4fbe9d0e6)" d="M 44.66 37.808873 
L 60.99392 41.255948 
L 76.46816 44.285938 
L 89.36336 46.528186 
L 100.5392 48.181896 
L 118.59248 50.867053 
L 126.3296 52.008208 
L 135.78608 53.129417 
L 145.24256 54.03853 
L 155.55872 54.806351 
L 177.05072 56.086415 
L 200.26208 57.524374 
L 212.2976 58.496411 
L 264.73808 62.897498 
L 276.7736 63.618152 
L 292.24784 64.299317 
L 309.44144 64.850922 
L 314.59952 65.063141 
L 332.6528 65.967493 
L 353.28512 66.785231 
L 392.8304 68.334918 
L 413.46272 69.271013 
L 423.77888 70.029474 
L 438.39344 71.118821 
L 444.4112 71.650811 
L 456.44672 72.832252 
L 482.23712 74.72624 
L 506.30816 76.195485 
L 516.62432 76.876099 
L 523.50176 77.239856 
L 540.69536 77.993209 
L 549.29216 78.611281 
L 576.80192 80.504934 
L 594.8552 81.969529 
L 600.87296 82.404416 
L 607.7504 82.914225 
L 616.3472 83.535497 
L 632.68112 85.018206 
L 657.61184 86.969349 
L 675.66512 88.432181 
L 688.56032 89.337179 
L 688.56032 89.337179 
" style="fill:none;stroke:#008000;stroke-dasharray:5.55,2.4;stroke-dashoffset:0;stroke-width:1.5;"/>
   </g>
   <g id="patch_6">
    <path d="M 44.66 313 
L 44.66 25.44 
" style="fill:none;stroke:#000000;stroke-linecap:square;stroke-linejoin:miter;stroke-width:0.8;"/>
   </g>
   <g id="patch_7">
    <path d="M 689.42 313 
L 689.42 25.44 
" style="fill:none;stroke:#000000;stroke-linecap:square;stroke-linejoin:miter;stroke-width:0.8;"/>
   </g>
   <g id="patch_8">
    <path d="M 44.66 313 
L 689.42 313 
" style="fill:none;stroke:#000000;stroke-linecap:square;stroke-linejoin:miter;stroke-width:0.8;"/>
   </g>
   <g id="patch_9">
    <path d="M 44.66 25.44 
L 689.42 25.44 
" style="fill:none;stroke:#000000;stroke-linecap:square;stroke-linejoin:miter;stroke-width:0.8;"/>
   </g>
   <g id="text_42">
    <!-- Automatic adjustment of the home temperature on February 17 2022 -->
    <g transform="translate(157.669063 19.44)scale(0.12 -0.12)">
     <defs>
      <path d="M 2188 4044 
L 1331 1722 
L 3047 1722 
L 2188 4044 
z
M 1831 4666 
L 2547 4666 
L 4325 0 
L 3669 0 
L 3244 1197 
L 1141 1197 
L 716 0 
L 50 0 
L 1831 4666 
z
" id="DejaVuSans-41" transform="scale(0.015625)"/>
      <path d="M 544 1381 
L 544 3500 
L 1119 3500 
L 1119 1403 
Q 1119 906 1312 657 
Q 1506 409 1894 409 
Q 2359 409 2629 706 
Q 2900 1003 2900 1516 
L 2900 3500 
L 3475 3500 
L 3475 0 
L 2900 0 
L 2900 538 
Q 2691 219 2414 64 
Q 2138 -91 1772 -91 
Q 1169 -91 856 284 
Q 544 659 544 1381 
z
M 1991 3584 
L 1991 3584 
z
" id="DejaVuSans-75" transform="scale(0.015625)"/>
      <path d="M 1172 4494 
L 1172 3500 
L 2356 3500 
L 2356 3053 
L 1172 3053 
L 1172 1153 
Q 1172 725 1289 603 
Q 1406 481 1766 481 
L 2356 481 
L 2356 0 
L 1766 0 
Q 1100 0 847 248 
Q 594 497 594 1153 
L 594 3053 
L 172 3053 
L 172 3500 
L 594 3500 
L 594 4494 
L 1172 4494 
z
" id="DejaVuSans-74" transform="scale(0.015625)"/>
      <path d="M 1959 3097 
Q 1497 3097 1228 2736 
Q 959 2375 959 1747 
Q 959 1119 1226 758 
Q 1494 397 1959 397 
Q 2419 397 2687 759 
Q 2956 1122 2956 1747 
Q 2956 2369 2687 2733 
Q 2419 3097 1959 3097 
z
M 1959 3584 
Q 2709 3584 3137 3096 
Q 3566 2609 3566 1747 
Q 3566 888 3137 398 
Q 2709 -91 1959 -91 
Q 1206 -91 779 398 
Q 353 888 353 1747 
Q 353 2609 779 3096 
Q 1206 3584 1959 3584 
z
" id="DejaVuSans-6f" transform="scale(0.015625)"/>
      <path d="M 2194 1759 
Q 1497 1759 1228 1600 
Q 959 1441 959 1056 
Q 959 750 1161 570 
Q 1363 391 1709 391 
Q 2188 391 2477 730 
Q 2766 1069 2766 1631 
L 2766 1759 
L 2194 1759 
z
M 3341 1997 
L 3341 0 
L 2766 0 
L 2766 531 
Q 2569 213 2275 61 
Q 1981 -91 1556 -91 
Q 1019 -91 701 211 
Q 384 513 384 1019 
Q 384 1609 779 1909 
Q 1175 2209 1959 2209 
L 2766 2209 
L 2766 2266 
Q 2766 2663 2505 2880 
Q 2244 3097 1772 3097 
Q 1472 3097 1187 3025 
Q 903 2953 641 2809 
L 641 3341 
Q 956 3463 1253 3523 
Q 1550 3584 1831 3584 
Q 2591 3584 2966 3190 
Q 3341 2797 3341 1997 
z
" id="DejaVuSans-61" transform="scale(0.015625)"/>
      <path d="M 3122 3366 
L 3122 2828 
Q 2878 2963 2633 3030 
Q 2388 3097 2138 3097 
Q 1578 3097 1268 2742 
Q 959 2388 959 1747 
Q 959 1106 1268 751 
Q 1578 397 2138 397 
Q 2388 397 2633 464 
Q 2878 531 3122 666 
L 3122 134 
Q 2881 22 2623 -34 
Q 2366 -91 2075 -91 
Q 1284 -91 818 406 
Q 353 903 353 1747 
Q 353 2603 823 3093 
Q 1294 3584 2113 3584 
Q 2378 3584 2631 3529 
Q 2884 3475 3122 3366 
z
" id="DejaVuSans-63" transform="scale(0.015625)"/>
      <path id="DejaVuSans-20" transform="scale(0.015625)"/>
      <path d="M 2906 2969 
L 2906 4863 
L 3481 4863 
L 3481 0 
L 2906 0 
L 2906 525 
Q 2725 213 2448 61 
Q 2172 -91 1784 -91 
Q 1150 -91 751 415 
Q 353 922 353 1747 
Q 353 2572 751 3078 
Q 1150 3584 1784 3584 
Q 2172 3584 2448 3432 
Q 2725 3281 2906 2969 
z
M 947 1747 
Q 947 1113 1208 752 
Q 1469 391 1925 391 
Q 2381 391 2643 752 
Q 2906 1113 2906 1747 
Q 2906 2381 2643 2742 
Q 2381 3103 1925 3103 
Q 1469 3103 1208 2742 
Q 947 2381 947 1747 
z
" id="DejaVuSans-64" transform="scale(0.015625)"/>
      <path d="M 603 3500 
L 1178 3500 
L 1178 -63 
Q 1178 -731 923 -1031 
Q 669 -1331 103 -1331 
L -116 -1331 
L -116 -844 
L 38 -844 
Q 366 -844 484 -692 
Q 603 -541 603 -63 
L 603 3500 
z
M 603 4863 
L 1178 4863 
L 1178 4134 
L 603 4134 
L 603 4863 
z
" id="DejaVuSans-6a" transform="scale(0.015625)"/>
      <path d="M 2834 3397 
L 2834 2853 
Q 2591 2978 2328 3040 
Q 2066 3103 1784 3103 
Q 1356 3103 1142 2972 
Q 928 2841 928 2578 
Q 928 2378 1081 2264 
Q 1234 2150 1697 2047 
L 1894 2003 
Q 2506 1872 2764 1633 
Q 3022 1394 3022 966 
Q 3022 478 2636 193 
Q 2250 -91 1575 -91 
Q 1294 -91 989 -36 
Q 684 19 347 128 
L 347 722 
Q 666 556 975 473 
Q 1284 391 1588 391 
Q 1994 391 2212 530 
Q 2431 669 2431 922 
Q 2431 1156 2273 1281 
Q 2116 1406 1581 1522 
L 1381 1569 
Q 847 1681 609 1914 
Q 372 2147 372 2553 
Q 372 3047 722 3315 
Q 1072 3584 1716 3584 
Q 2034 3584 2315 3537 
Q 2597 3491 2834 3397 
z
" id="DejaVuSans-73" transform="scale(0.015625)"/>
      <path d="M 3513 2113 
L 3513 0 
L 2938 0 
L 2938 2094 
Q 2938 2591 2744 2837 
Q 2550 3084 2163 3084 
Q 1697 3084 1428 2787 
Q 1159 2491 1159 1978 
L 1159 0 
L 581 0 
L 581 3500 
L 1159 3500 
L 1159 2956 
Q 1366 3272 1645 3428 
Q 1925 3584 2291 3584 
Q 2894 3584 3203 3211 
Q 3513 2838 3513 2113 
z
" id="DejaVuSans-6e" transform="scale(0.015625)"/>
      <path d="M 2375 4863 
L 2375 4384 
L 1825 4384 
Q 1516 4384 1395 4259 
Q 1275 4134 1275 3809 
L 1275 3500 
L 2222 3500 
L 2222 3053 
L 1275 3053 
L 1275 0 
L 697 0 
L 697 3053 
L 147 3053 
L 147 3500 
L 697 3500 
L 697 3744 
Q 697 4328 969 4595 
Q 1241 4863 1831 4863 
L 2375 4863 
z
" id="DejaVuSans-66" transform="scale(0.015625)"/>
      <path d="M 3513 2113 
L 3513 0 
L 2938 0 
L 2938 2094 
Q 2938 2591 2744 2837 
Q 2550 3084 2163 3084 
Q 1697 3084 1428 2787 
Q 1159 2491 1159 1978 
L 1159 0 
L 581 0 
L 581 4863 
L 1159 4863 
L 1159 2956 
Q 1366 3272 1645 3428 
Q 1925 3584 2291 3584 
Q 2894 3584 3203 3211 
Q 3513 2838 3513 2113 
z
" id="DejaVuSans-68" transform="scale(0.015625)"/>
      <path d="M 1159 525 
L 1159 -1331 
L 581 -1331 
L 581 3500 
L 1159 3500 
L 1159 2969 
Q 1341 3281 1617 3432 
Q 1894 3584 2278 3584 
Q 2916 3584 3314 3078 
Q 3713 2572 3713 1747 
Q 3713 922 3314 415 
Q 2916 -91 2278 -91 
Q 1894 -91 1617 61 
Q 1341 213 1159 525 
z
M 3116 1747 
Q 3116 2381 2855 2742 
Q 2594 3103 2138 3103 
Q 1681 3103 1420 2742 
Q 1159 2381 1159 1747 
Q 1159 1113 1420 752 
Q 1681 391 2138 391 
Q 2594 391 2855 752 
Q 3116 1113 3116 1747 
z
" id="DejaVuSans-70" transform="scale(0.015625)"/>
      <path d="M 2631 2963 
Q 2534 3019 2420 3045 
Q 2306 3072 2169 3072 
Q 1681 3072 1420 2755 
Q 1159 2438 1159 1844 
L 1159 0 
L 581 0 
L 581 3500 
L 1159 3500 
L 1159 2956 
Q 1341 3275 1631 3429 
Q 1922 3584 2338 3584 
Q 2397 3584 2469 3576 
Q 2541 3569 2628 3553 
L 2631 2963 
z
" id="DejaVuSans-72" transform="scale(0.015625)"/>
      <path d="M 3116 1747 
Q 3116 2381 2855 2742 
Q 2594 3103 2138 3103 
Q 1681 3103 1420 2742 
Q 1159 2381 1159 1747 
Q 1159 1113 1420 752 
Q 1681 391 2138 391 
Q 2594 391 2855 752 
Q 3116 1113 3116 1747 
z
M 1159 2969 
Q 1341 3281 1617 3432 
Q 1894 3584 2278 3584 
Q 2916 3584 3314 3078 
Q 3713 2572 3713 1747 
Q 3713 922 3314 415 
Q 2916 -91 2278 -91 
Q 1894 -91 1617 61 
Q 1341 213 1159 525 
L 1159 0 
L 581 0 
L 581 4863 
L 1159 4863 
L 1159 2969 
z
" id="DejaVuSans-62" transform="scale(0.015625)"/>
      <path d="M 2059 -325 
Q 1816 -950 1584 -1140 
Q 1353 -1331 966 -1331 
L 506 -1331 
L 506 -850 
L 844 -850 
Q 1081 -850 1212 -737 
Q 1344 -625 1503 -206 
L 1606 56 
L 191 3500 
L 800 3500 
L 1894 763 
L 2988 3500 
L 3597 3500 
L 2059 -325 
z
" id="DejaVuSans-79" transform="scale(0.015625)"/>
     </defs>
     <use xlink:href="#DejaVuSans-41"/>
     <use x="68.408203" xlink:href="#DejaVuSans-75"/>
     <use x="131.787109" xlink:href="#DejaVuSans-74"/>
     <use x="170.996094" xlink:href="#DejaVuSans-6f"/>
     <use x="232.177734" xlink:href="#DejaVuSans-6d"/>
     <use x="329.589844" xlink:href="#DejaVuSans-61"/>
     <use x="390.869141" xlink:href="#DejaVuSans-74"/>
     <use x="430.078125" xlink:href="#DejaVuSans-69"/>
     <use x="457.861328" xlink:href="#DejaVuSans-63"/>
     <use x="512.841797" xlink:href="#DejaVuSans-20"/>
     <use x="544.628906" xlink:href="#DejaVuSans-61"/>
     <use x="605.908203" xlink:href="#DejaVuSans-64"/>
     <use x="669.384766" xlink:href="#DejaVuSans-6a"/>
     <use x="697.167969" xlink:href="#DejaVuSans-75"/>
     <use x="760.546875" xlink:href="#DejaVuSans-73"/>
     <use x="812.646484" xlink:href="#DejaVuSans-74"/>
     <use x="851.855469" xlink:href="#DejaVuSans-6d"/>
     <use x="949.267578" xlink:href="#DejaVuSans-65"/>
     <use x="1010.791016" xlink:href="#DejaVuSans-6e"/>
     <use x="1074.169922" xlink:href="#DejaVuSans-74"/>
     <use x="1113.378906" xlink:href="#DejaVuSans-20"/>
     <use x="1145.166016" xlink:href="#DejaVuSans-6f"/>
     <use x="1206.347656" xlink:href="#DejaVuSans-66"/>
     <use x="1241.552734" xlink:href="#DejaVuSans-20"/>
     <use x="1273.339844" xlink:href="#DejaVuSans-74"/>
     <use x="1312.548828" xlink:href="#DejaVuSans-68"/>
     <use x="1375.927734" xlink:href="#DejaVuSans-65"/>
     <use x="1437.451172" xlink:href="#DejaVuSans-20"/>
     <use x="1469.238281" xlink:href="#DejaVuSans-68"/>
     <use x="1532.617188" xlink:href="#DejaVuSans-6f"/>
     <use x="1593.798828" xlink:href="#DejaVuSans-6d"/>
     <use x="1691.210938" xlink:href="#DejaVuSans-65"/>
     <use x="1752.734375" xlink:href="#DejaVuSans-20"/>
     <use x="1784.521484" xlink:href="#DejaVuSans-74"/>
     <use x="1823.730469" xlink:href="#DejaVuSans-65"/>
     <use x="1885.253906" xlink:href="#DejaVuSans-6d"/>
     <use x="1982.666016" xlink:href="#DejaVuSans-70"/>
     <use x="2046.142578" xlink:href="#DejaVuSans-65"/>
     <use x="2107.666016" xlink:href="#DejaVuSans-72"/>
     <use x="2148.779297" xlink:href="#DejaVuSans-61"/>
     <use x="2210.058594" xlink:href="#DejaVuSans-74"/>
     <use x="2249.267578" xlink:href="#DejaVuSans-75"/>
     <use x="2312.646484" xlink:href="#DejaVuSans-72"/>
     <use x="2351.509766" xlink:href="#DejaVuSans-65"/>
     <use x="2413.033203" xlink:href="#DejaVuSans-20"/>
     <use x="2444.820312" xlink:href="#DejaVuSans-6f"/>
     <use x="2506.001953" xlink:href="#DejaVuSans-6e"/>
     <use x="2569.380859" xlink:href="#DejaVuSans-20"/>
     <use x="2601.167969" xlink:href="#DejaVuSans-46"/>
     <use x="2653.1875" xlink:href="#DejaVuSans-65"/>
     <use x="2714.710938" xlink:href="#DejaVuSans-62"/>
     <use x="2778.1875" xlink:href="#DejaVuSans-72"/>
     <use x="2819.300781" xlink:href="#DejaVuSans-75"/>
     <use x="2882.679688" xlink:href="#DejaVuSans-61"/>
     <use x="2943.958984" xlink:href="#DejaVuSans-72"/>
     <use x="2985.072266" xlink:href="#DejaVuSans-79"/>
     <use x="3044.251953" xlink:href="#DejaVuSans-20"/>
     <use x="3076.039062" xlink:href="#DejaVuSans-31"/>
     <use x="3139.662109" xlink:href="#DejaVuSans-37"/>
     <use x="3203.285156" xlink:href="#DejaVuSans-20"/>
     <use x="3235.072266" xlink:href="#DejaVuSans-32"/>
     <use x="3298.695312" xlink:href="#DejaVuSans-30"/>
     <use x="3362.318359" xlink:href="#DejaVuSans-32"/>
     <use x="3425.941406" xlink:href="#DejaVuSans-32"/>
    </g>
   </g>
   <g id="legend_1">
    <g id="patch_10">
     <path d="M 201.136875 308 
L 532.943125 308 
Q 534.943125 308 534.943125 306 
L 534.943125 248.2875 
Q 534.943125 246.2875 532.943125 246.2875 
L 201.136875 246.2875 
Q 199.136875 246.2875 199.136875 248.2875 
L 199.136875 306 
Q 199.136875 308 201.136875 308 
z
" style="fill:#ffffff;opacity:0.8;stroke:#cccccc;stroke-linejoin:miter;"/>
    </g>
    <g id="line2d_66">
     <path d="M 203.136875 254.385938 
L 223.136875 254.385938 
" style="fill:none;stroke:#1f77b4;stroke-linecap:square;stroke-width:1.5;"/>
    </g>
    <g id="line2d_67"/>
    <g id="text_43">
     <!-- Outdoor temperature -->
     <g transform="translate(231.136875 257.885938)scale(0.1 -0.1)">
      <defs>
       <path d="M 2522 4238 
Q 1834 4238 1429 3725 
Q 1025 3213 1025 2328 
Q 1025 1447 1429 934 
Q 1834 422 2522 422 
Q 3209 422 3611 934 
Q 4013 1447 4013 2328 
Q 4013 3213 3611 3725 
Q 3209 4238 2522 4238 
z
M 2522 4750 
Q 3503 4750 4090 4092 
Q 4678 3434 4678 2328 
Q 4678 1225 4090 567 
Q 3503 -91 2522 -91 
Q 1538 -91 948 565 
Q 359 1222 359 2328 
Q 359 3434 948 4092 
Q 1538 4750 2522 4750 
z
" id="DejaVuSans-4f" transform="scale(0.015625)"/>
      </defs>
      <use xlink:href="#DejaVuSans-4f"/>
      <use x="78.710938" xlink:href="#DejaVuSans-75"/>
      <use x="142.089844" xlink:href="#DejaVuSans-74"/>
      <use x="181.298828" xlink:href="#DejaVuSans-64"/>
      <use x="244.775391" xlink:href="#DejaVuSans-6f"/>
      <use x="305.957031" xlink:href="#DejaVuSans-6f"/>
      <use x="367.138672" xlink:href="#DejaVuSans-72"/>
      <use x="408.251953" xlink:href="#DejaVuSans-20"/>
      <use x="440.039062" xlink:href="#DejaVuSans-74"/>
      <use x="479.248047" xlink:href="#DejaVuSans-65"/>
      <use x="540.771484" xlink:href="#DejaVuSans-6d"/>
      <use x="638.183594" xlink:href="#DejaVuSans-70"/>
      <use x="701.660156" xlink:href="#DejaVuSans-65"/>
      <use x="763.183594" xlink:href="#DejaVuSans-72"/>
      <use x="804.296875" xlink:href="#DejaVuSans-61"/>
      <use x="865.576172" xlink:href="#DejaVuSans-74"/>
      <use x="904.785156" xlink:href="#DejaVuSans-75"/>
      <use x="968.164062" xlink:href="#DejaVuSans-72"/>
      <use x="1007.027344" xlink:href="#DejaVuSans-65"/>
     </g>
    </g>
    <g id="line2d_68">
     <path d="M 203.136875 269.064062 
L 223.136875 269.064062 
" style="fill:none;stroke:#ff7f0e;stroke-linecap:square;stroke-width:1.5;"/>
    </g>
    <g id="line2d_69"/>
    <g id="text_44">
     <!-- Home temperature -->
     <g transform="translate(231.136875 272.564062)scale(0.1 -0.1)">
      <defs>
       <path d="M 628 4666 
L 1259 4666 
L 1259 2753 
L 3553 2753 
L 3553 4666 
L 4184 4666 
L 4184 0 
L 3553 0 
L 3553 2222 
L 1259 2222 
L 1259 0 
L 628 0 
L 628 4666 
z
" id="DejaVuSans-48" transform="scale(0.015625)"/>
      </defs>
      <use xlink:href="#DejaVuSans-48"/>
      <use x="75.195312" xlink:href="#DejaVuSans-6f"/>
      <use x="136.376953" xlink:href="#DejaVuSans-6d"/>
      <use x="233.789062" xlink:href="#DejaVuSans-65"/>
      <use x="295.3125" xlink:href="#DejaVuSans-20"/>
      <use x="327.099609" xlink:href="#DejaVuSans-74"/>
      <use x="366.308594" xlink:href="#DejaVuSans-65"/>
      <use x="427.832031" xlink:href="#DejaVuSans-6d"/>
      <use x="525.244141" xlink:href="#DejaVuSans-70"/>
      <use x="588.720703" xlink:href="#DejaVuSans-65"/>
      <use x="650.244141" xlink:href="#DejaVuSans-72"/>
      <use x="691.357422" xlink:href="#DejaVuSans-61"/>
      <use x="752.636719" xlink:href="#DejaVuSans-74"/>
      <use x="791.845703" xlink:href="#DejaVuSans-75"/>
      <use x="855.224609" xlink:href="#DejaVuSans-72"/>
      <use x="894.087891" xlink:href="#DejaVuSans-65"/>
     </g>
    </g>
    <g id="line2d_70">
     <path d="M 203.136875 283.742188 
L 223.136875 283.742188 
" style="fill:none;stroke:#008000;stroke-dasharray:5.55,2.4;stroke-dashoffset:0;stroke-width:1.5;"/>
    </g>
    <g id="line2d_71"/>
    <g id="text_45">
     <!-- Passive temperature curve -->
     <g transform="translate(231.136875 287.242188)scale(0.1 -0.1)">
      <defs>
       <path d="M 1259 4147 
L 1259 2394 
L 2053 2394 
Q 2494 2394 2734 2622 
Q 2975 2850 2975 3272 
Q 2975 3691 2734 3919 
Q 2494 4147 2053 4147 
L 1259 4147 
z
M 628 4666 
L 2053 4666 
Q 2838 4666 3239 4311 
Q 3641 3956 3641 3272 
Q 3641 2581 3239 2228 
Q 2838 1875 2053 1875 
L 1259 1875 
L 1259 0 
L 628 0 
L 628 4666 
z
" id="DejaVuSans-50" transform="scale(0.015625)"/>
       <path d="M 191 3500 
L 800 3500 
L 1894 563 
L 2988 3500 
L 3597 3500 
L 2284 0 
L 1503 0 
L 191 3500 
z
" id="DejaVuSans-76" transform="scale(0.015625)"/>
      </defs>
      <use xlink:href="#DejaVuSans-50"/>
      <use x="55.802734" xlink:href="#DejaVuSans-61"/>
      <use x="117.082031" xlink:href="#DejaVuSans-73"/>
      <use x="169.181641" xlink:href="#DejaVuSans-73"/>
      <use x="221.28125" xlink:href="#DejaVuSans-69"/>
      <use x="249.064453" xlink:href="#DejaVuSans-76"/>
      <use x="308.244141" xlink:href="#DejaVuSans-65"/>
      <use x="369.767578" xlink:href="#DejaVuSans-20"/>
      <use x="401.554688" xlink:href="#DejaVuSans-74"/>
      <use x="440.763672" xlink:href="#DejaVuSans-65"/>
      <use x="502.287109" xlink:href="#DejaVuSans-6d"/>
      <use x="599.699219" xlink:href="#DejaVuSans-70"/>
      <use x="663.175781" xlink:href="#DejaVuSans-65"/>
      <use x="724.699219" xlink:href="#DejaVuSans-72"/>
      <use x="765.8125" xlink:href="#DejaVuSans-61"/>
      <use x="827.091797" xlink:href="#DejaVuSans-74"/>
      <use x="866.300781" xlink:href="#DejaVuSans-75"/>
      <use x="929.679688" xlink:href="#DejaVuSans-72"/>
      <use x="968.542969" xlink:href="#DejaVuSans-65"/>
      <use x="1030.066406" xlink:href="#DejaVuSans-20"/>
      <use x="1061.853516" xlink:href="#DejaVuSans-63"/>
      <use x="1116.833984" xlink:href="#DejaVuSans-75"/>
      <use x="1180.212891" xlink:href="#DejaVuSans-72"/>
      <use x="1221.326172" xlink:href="#DejaVuSans-76"/>
      <use x="1280.505859" xlink:href="#DejaVuSans-65"/>
     </g>
    </g>
    <g id="patch_11">
     <path d="M 203.136875 301.920313 
L 223.136875 301.920313 
L 223.136875 294.920313 
L 203.136875 294.920313 
z
" style="fill:#ffc0cb;"/>
    </g>
    <g id="text_46">
     <!-- The system is adjusting indoor temperature using the HVAC -->
     <g transform="translate(231.136875 301.920313)scale(0.1 -0.1)">
      <defs>
       <path d="M 2906 1791 
Q 2906 2416 2648 2759 
Q 2391 3103 1925 3103 
Q 1463 3103 1205 2759 
Q 947 2416 947 1791 
Q 947 1169 1205 825 
Q 1463 481 1925 481 
Q 2391 481 2648 825 
Q 2906 1169 2906 1791 
z
M 3481 434 
Q 3481 -459 3084 -895 
Q 2688 -1331 1869 -1331 
Q 1566 -1331 1297 -1286 
Q 1028 -1241 775 -1147 
L 775 -588 
Q 1028 -725 1275 -790 
Q 1522 -856 1778 -856 
Q 2344 -856 2625 -561 
Q 2906 -266 2906 331 
L 2906 616 
Q 2728 306 2450 153 
Q 2172 0 1784 0 
Q 1141 0 747 490 
Q 353 981 353 1791 
Q 353 2603 747 3093 
Q 1141 3584 1784 3584 
Q 2172 3584 2450 3431 
Q 2728 3278 2906 2969 
L 2906 3500 
L 3481 3500 
L 3481 434 
z
" id="DejaVuSans-67" transform="scale(0.015625)"/>
       <path d="M 1831 0 
L 50 4666 
L 709 4666 
L 2188 738 
L 3669 4666 
L 4325 4666 
L 2547 0 
L 1831 0 
z
" id="DejaVuSans-56" transform="scale(0.015625)"/>
       <path d="M 4122 4306 
L 4122 3641 
Q 3803 3938 3442 4084 
Q 3081 4231 2675 4231 
Q 1875 4231 1450 3742 
Q 1025 3253 1025 2328 
Q 1025 1406 1450 917 
Q 1875 428 2675 428 
Q 3081 428 3442 575 
Q 3803 722 4122 1019 
L 4122 359 
Q 3791 134 3420 21 
Q 3050 -91 2638 -91 
Q 1578 -91 968 557 
Q 359 1206 359 2328 
Q 359 3453 968 4101 
Q 1578 4750 2638 4750 
Q 3056 4750 3426 4639 
Q 3797 4528 4122 4306 
z
" id="DejaVuSans-43" transform="scale(0.015625)"/>
      </defs>
      <use xlink:href="#DejaVuSans-54"/>
      <use x="61.083984" xlink:href="#DejaVuSans-68"/>
      <use x="124.462891" xlink:href="#DejaVuSans-65"/>
      <use x="185.986328" xlink:href="#DejaVuSans-20"/>
      <use x="217.773438" xlink:href="#DejaVuSans-73"/>
      <use x="269.873047" xlink:href="#DejaVuSans-79"/>
      <use x="329.052734" xlink:href="#DejaVuSans-73"/>
      <use x="381.152344" xlink:href="#DejaVuSans-74"/>
      <use x="420.361328" xlink:href="#DejaVuSans-65"/>
      <use x="481.884766" xlink:href="#DejaVuSans-6d"/>
      <use x="579.296875" xlink:href="#DejaVuSans-20"/>
      <use x="611.083984" xlink:href="#DejaVuSans-69"/>
      <use x="638.867188" xlink:href="#DejaVuSans-73"/>
      <use x="690.966797" xlink:href="#DejaVuSans-20"/>
      <use x="722.753906" xlink:href="#DejaVuSans-61"/>
      <use x="784.033203" xlink:href="#DejaVuSans-64"/>
      <use x="847.509766" xlink:href="#DejaVuSans-6a"/>
      <use x="875.292969" xlink:href="#DejaVuSans-75"/>
      <use x="938.671875" xlink:href="#DejaVuSans-73"/>
      <use x="990.771484" xlink:href="#DejaVuSans-74"/>
      <use x="1029.980469" xlink:href="#DejaVuSans-69"/>
      <use x="1057.763672" xlink:href="#DejaVuSans-6e"/>
      <use x="1121.142578" xlink:href="#DejaVuSans-67"/>
      <use x="1184.619141" xlink:href="#DejaVuSans-20"/>
      <use x="1216.40625" xlink:href="#DejaVuSans-69"/>
      <use x="1244.189453" xlink:href="#DejaVuSans-6e"/>
      <use x="1307.568359" xlink:href="#DejaVuSans-64"/>
      <use x="1371.044922" xlink:href="#DejaVuSans-6f"/>
      <use x="1432.226562" xlink:href="#DejaVuSans-6f"/>
      <use x="1493.408203" xlink:href="#DejaVuSans-72"/>
      <use x="1534.521484" xlink:href="#DejaVuSans-20"/>
      <use x="1566.308594" xlink:href="#DejaVuSans-74"/>
      <use x="1605.517578" xlink:href="#DejaVuSans-65"/>
      <use x="1667.041016" xlink:href="#DejaVuSans-6d"/>
      <use x="1764.453125" xlink:href="#DejaVuSans-70"/>
      <use x="1827.929688" xlink:href="#DejaVuSans-65"/>
      <use x="1889.453125" xlink:href="#DejaVuSans-72"/>
      <use x="1930.566406" xlink:href="#DejaVuSans-61"/>
      <use x="1991.845703" xlink:href="#DejaVuSans-74"/>
      <use x="2031.054688" xlink:href="#DejaVuSans-75"/>
      <use x="2094.433594" xlink:href="#DejaVuSans-72"/>
      <use x="2133.296875" xlink:href="#DejaVuSans-65"/>
      <use x="2194.820312" xlink:href="#DejaVuSans-20"/>
      <use x="2226.607422" xlink:href="#DejaVuSans-75"/>
      <use x="2289.986328" xlink:href="#DejaVuSans-73"/>
      <use x="2342.085938" xlink:href="#DejaVuSans-69"/>
      <use x="2369.869141" xlink:href="#DejaVuSans-6e"/>
      <use x="2433.248047" xlink:href="#DejaVuSans-67"/>
      <use x="2496.724609" xlink:href="#DejaVuSans-20"/>
      <use x="2528.511719" xlink:href="#DejaVuSans-74"/>
      <use x="2567.720703" xlink:href="#DejaVuSans-68"/>
      <use x="2631.099609" xlink:href="#DejaVuSans-65"/>
      <use x="2692.623047" xlink:href="#DejaVuSans-20"/>
      <use x="2724.410156" xlink:href="#DejaVuSans-48"/>
      <use x="2799.605469" xlink:href="#DejaVuSans-56"/>
      <use x="2861.638672" xlink:href="#DejaVuSans-41"/>
      <use x="2928.296875" xlink:href="#DejaVuSans-43"/>
     </g>
    </g>
   </g>
  </g>
 </g>
 <defs>
  <clipPath id="pa4fbe9d0e6">
   <rect height="287.56" width="644.76" x="44.66" y="25.44"/>
  </clipPath>
 </defs>
</svg>
