<?xml version="1.0" encoding="UTF-8" standalone="no"?>
<!DOCTYPE svg PUBLIC "-//W3C//DTD SVG 1.1//EN"
 "http://www.w3.org/Graphics/SVG/1.1/DTD/svg11.dtd">
<!-- Generated by graphviz version 2.44.0 (0)
 -->
<!-- Pages: 1 -->
<svg width="333pt" height="260pt"
 viewBox="0.00 0.00 332.92 260.00" xmlns="http://www.w3.org/2000/svg" xmlns:xlink="http://www.w3.org/1999/xlink">
<g id="graph0" class="graph" transform="scale(1 1) rotate(0) translate(4 256)">
<polygon fill="white" stroke="transparent" points="-4,4 -4,-256 328.92,-256 328.92,4 -4,4"/>
<!-- car_charger -->
<g id="node1" class="node">
<title>car_charger</title>
<polygon fill="none" stroke="black" points="120.92,-252 22.92,-252 22.92,-216 120.92,-216 120.92,-252"/>
<text text-anchor="middle" x="71.92" y="-230.3" font-family="Times-Roman" font-size="14.00">car_charger</text>
</g>
<!-- scheduler -->
<g id="node2" class="node">
<title>scheduler</title>
<polygon fill="none" stroke="black" points="247.42,-180 162.42,-180 162.42,-144 247.42,-144 247.42,-180"/>
<text text-anchor="middle" x="204.92" y="-158.3" font-family="Times-Roman" font-size="14.00">scheduler</text>
</g>
<!-- car_charger&#45;&gt;scheduler -->
<g id="edge1" class="edge">
<title>car_charger&#45;&gt;scheduler</title>
<path fill="none" stroke="black" d="M104.46,-215.88C122.17,-206.55 144.28,-194.92 163.24,-184.94"/>
<polygon fill="black" stroke="black" points="165.04,-187.94 172.26,-180.19 161.78,-181.75 165.04,-187.94"/>
</g>
<!-- power_sensor -->
<g id="node3" class="node">
<title>power_sensor</title>
<polygon fill="none" stroke="black" points="174.42,-36 61.42,-36 61.42,0 174.42,0 174.42,-36"/>
<text text-anchor="middle" x="117.92" y="-14.3" font-family="Times-Roman" font-size="14.00">power_sensor</text>
</g>
<!-- car_charger&#45;&gt;power_sensor -->
<g id="edge2" class="edge">
<title>car_charger&#45;&gt;power_sensor</title>
<path fill="none" stroke="black" d="M39.4,-215.98C26.13,-207.18 12.22,-195.09 4.92,-180 -2.05,-165.6 -0.83,-158.93 4.92,-144 21.12,-101.94 58.74,-65.23 86.14,-42.67"/>
<polygon fill="black" stroke="black" points="88.68,-45.12 94.28,-36.13 84.29,-39.66 88.68,-45.12"/>
</g>
<!-- power_simulator -->
<g id="node4" class="node">
<title>power_simulator</title>
<polygon fill="none" stroke="black" points="277.42,-108 146.42,-108 146.42,-72 277.42,-72 277.42,-108"/>
<text text-anchor="middle" x="211.92" y="-86.3" font-family="Times-Roman" font-size="14.00">power_simulator</text>
</g>
<!-- car_charger&#45;&gt;power_simulator -->
<g id="edge3" class="edge">
<title>car_charger&#45;&gt;power_simulator</title>
<path fill="none" stroke="black" d="M86.66,-215.8C102.53,-197.52 128.76,-168 152.92,-144 162.79,-134.2 174.05,-123.88 184.08,-114.98"/>
<polygon fill="black" stroke="black" points="186.61,-117.42 191.8,-108.18 181.98,-112.16 186.61,-117.42"/>
</g>
<!-- car_sensor -->
<g id="node5" class="node">
<title>car_sensor</title>
<polygon fill="none" stroke="black" points="105.92,-180 13.92,-180 13.92,-144 105.92,-144 105.92,-180"/>
<text text-anchor="middle" x="59.92" y="-158.3" font-family="Times-Roman" font-size="14.00">car_sensor</text>
</g>
<!-- car_charger&#45;&gt;car_sensor -->
<g id="edge4" class="edge">
<title>car_charger&#45;&gt;car_sensor</title>
<path fill="none" stroke="black" d="M68.96,-215.7C67.63,-207.98 66.04,-198.71 64.57,-190.11"/>
<polygon fill="black" stroke="black" points="67.99,-189.37 62.85,-180.1 61.09,-190.55 67.99,-189.37"/>
</g>
<!-- scheduler&#45;&gt;power_sensor -->
<g id="edge10" class="edge">
<title>scheduler&#45;&gt;power_sensor</title>
<path fill="none" stroke="black" d="M174.42,-143.99C160.96,-134.98 146.14,-122.71 136.92,-108 125.29,-89.42 120.68,-64.83 118.91,-46.21"/>
<polygon fill="black" stroke="black" points="122.38,-45.74 118.15,-36.02 115.4,-46.25 122.38,-45.74"/>
</g>
<!-- scheduler&#45;&gt;power_simulator -->
<g id="edge11" class="edge">
<title>scheduler&#45;&gt;power_simulator</title>
<path fill="none" stroke="black" d="M206.65,-143.7C207.42,-135.98 208.35,-126.71 209.21,-118.11"/>
<polygon fill="black" stroke="black" points="212.7,-118.4 210.21,-108.1 205.73,-117.71 212.7,-118.4"/>
</g>
<!-- power_simulator&#45;&gt;power_sensor -->
<g id="edge8" class="edge">
<title>power_simulator&#45;&gt;power_sensor</title>
<path fill="none" stroke="black" d="M188.69,-71.7C176.73,-62.8 162,-51.82 149.08,-42.2"/>
<polygon fill="black" stroke="black" points="151,-39.27 140.89,-36.1 146.82,-44.88 151,-39.27"/>
</g>
<!-- weather -->
<g id="node7" class="node">
<title>weather</title>
<polygon fill="none" stroke="black" points="311.42,-36 238.42,-36 238.42,0 311.42,0 311.42,-36"/>
<text text-anchor="middle" x="274.92" y="-14.3" font-family="Times-Roman" font-size="14.00">weather</text>
</g>
<!-- power_simulator&#45;&gt;weather -->
<g id="edge9" class="edge">
<title>power_simulator&#45;&gt;weather</title>
<path fill="none" stroke="black" d="M227.5,-71.7C235.12,-63.22 244.45,-52.86 252.8,-43.58"/>
<polygon fill="black" stroke="black" points="255.44,-45.88 259.53,-36.1 250.24,-41.2 255.44,-45.88"/>
</g>
<!-- hvac -->
<g id="node6" class="node">
<title>hvac</title>
<polygon fill="none" stroke="black" points="324.92,-252 270.92,-252 270.92,-216 324.92,-216 324.92,-252"/>
<text text-anchor="middle" x="297.92" y="-230.3" font-family="Times-Roman" font-size="14.00">hvac</text>
</g>
<!-- hvac&#45;&gt;scheduler -->
<g id="edge5" class="edge">
<title>hvac&#45;&gt;scheduler</title>
<path fill="none" stroke="black" d="M274.93,-215.7C263.11,-206.8 248.53,-195.82 235.74,-186.2"/>
<polygon fill="black" stroke="black" points="237.74,-183.32 227.65,-180.1 233.53,-188.91 237.74,-183.32"/>
</g>
<!-- hvac&#45;&gt;power_simulator -->
<g id="edge6" class="edge">
<title>hvac&#45;&gt;power_simulator</title>
<path fill="none" stroke="black" d="M291.66,-215.89C284.53,-197.43 271.93,-167.52 256.92,-144 250.72,-134.28 242.89,-124.44 235.5,-115.92"/>
<polygon fill="black" stroke="black" points="237.89,-113.34 228.62,-108.2 232.66,-118 237.89,-113.34"/>
</g>
<!-- hvac&#45;&gt;weather -->
<g id="edge7" class="edge">
<title>hvac&#45;&gt;weather</title>
<path fill="none" stroke="black" d="M297.62,-215.99C296.91,-186.51 294.56,-124.12 286.92,-72 285.67,-63.47 283.79,-54.27 281.88,-45.97"/>
<polygon fill="black" stroke="black" points="285.23,-44.96 279.49,-36.06 278.43,-46.6 285.23,-44.96"/>
</g>
<!-- water_heater -->
<g id="node8" class="node">
<title>water_heater</title>
<polygon fill="none" stroke="black" points="252.42,-252 145.42,-252 145.42,-216 252.42,-216 252.42,-252"/>
<text text-anchor="middle" x="198.92" y="-230.3" font-family="Times-Roman" font-size="14.00">water_heater</text>
</g>
<!-- water_heater&#45;&gt;scheduler -->
<g id="edge12" class="edge">
<title>water_heater&#45;&gt;scheduler</title>
<path fill="none" stroke="black" d="M200.41,-215.7C201.07,-207.98 201.86,-198.71 202.6,-190.11"/>
<polygon fill="black" stroke="black" points="206.09,-190.37 203.46,-180.1 199.12,-189.77 206.09,-190.37"/>
</g>
</g>
</svg>
